<svg width="120" height="80" version="1.1" viewBox="0 0 120 80" xmlns="http://www.w3.org/2000/svg" xmlns:xlink="http://www.w3.org/1999/xlink">
<g transform="translate(0 -977.36)">
<path transform="translate(0 977.36)" d="m0 40v40h40v-40h-40zm18.5 12c3.578 0 6.5 2.922 6.5 6.5 5e-6 1.4297-0.47129 2.7506-1.2598 3.8262l3.9668 3.9668a1.0001 1.0001 0 1 1 -1.4141 1.4141l-3.9668-3.9668c-1.0756 0.7885-2.3965 1.2598-3.8262 1.2598-3.578 0-6.5-2.922-6.5-6.5 0-3.578 2.922-6.5 6.5-6.5zm0 2c-2.4971 0-4.5 2.0029-4.5 4.5-9e-6 2.4971 2.0029 4.5 4.5 4.5s4.5-2.0029 4.5-4.5c0-2.4971-2.0029-4.5-4.5-4.5z" style="color:#000000;fill-rule:evenodd;fill:#000000"/>
<use transform="translate(53 805.36)" width="256" height="512" xlink:href="#use7753"/>
<use transform="translate(47 801.36)" width="256" height="512" xlink:href="#use7753"/>
<path transform="translate(0 977.36)" d="m18.5 12c-3.578 0-6.5 2.922-6.5 6.5-1.3e-5 3.578 2.922 6.5 6.5 6.5 1.4297 0 2.7505-0.4713 3.8262-1.2598l3.9668 3.9668a1.0001 1.0001 0 1 0 1.4141 -1.4141l-3.9668-3.9668c0.78847-1.0756 1.2598-2.3965 1.2598-3.8262 0-3.578-2.922-6.5-6.5-6.5zm0 2c2.4971 0 4.5 2.0029 4.5 4.5 9e-6 2.4971-2.0029 4.5-4.5 4.5s-4.5-2.0029-4.5-4.5c0-2.4971 2.0029-4.5 4.5-4.5z" style="color-rendering:auto;color:#000000;dominant-baseline:auto;fill:#000000;font-feature-settings:normal;font-variant-alternates:normal;font-variant-caps:normal;font-variant-ligatures:normal;font-variant-numeric:normal;font-variant-position:normal;image-rendering:auto;isolation:auto;mix-blend-mode:normal;paint-order:fill markers stroke;shape-padding:0;shape-rendering:auto;solid-color:#000000;text-decoration-color:#000000;text-decoration-line:none;text-decoration-style:solid;text-indent:0;text-orientation:mixed;text-transform:none;white-space:normal"/>
<path d="m58.5 989.36c-3.578 0-6.5 2.922-6.5 6.5-1.3e-5 3.578 2.922 6.5 6.5 6.5 1.4297 0 2.7505-0.4713 3.8262-1.2598l3.9668 3.9668a1.0001 1.0001 0 1 0 1.4141 -1.414l-3.9668-3.9668c0.78847-1.0756 1.2598-2.3965 1.2598-3.8262 0-3.578-2.922-6.5-6.5-6.5zm0 2c2.4971 0 4.5 2.0029 4.5 4.5 9e-6 2.4971-2.0029 4.5-4.5 4.5s-4.5-2.0029-4.5-4.5c0-2.4971 2.0029-4.5 4.5-4.5z" style="color-rendering:auto;color:#000000;dominant-baseline:auto;fill:#808080;font-feature-settings:normal;font-variant-alternates:normal;font-variant-caps:normal;font-variant-ligatures:normal;font-variant-numeric:normal;font-variant-position:normal;image-rendering:auto;isolation:auto;mix-blend-mode:normal;paint-order:fill markers stroke;shape-padding:0;shape-rendering:auto;solid-color:#000000;text-decoration-color:#000000;text-decoration-line:none;text-decoration-style:solid;text-indent:0;text-orientation:mixed;text-transform:none;white-space:normal"/>
<path d="m98.5 989.36c-3.578 0-6.5 2.922-6.5 6.5-1.3e-5 3.578 2.922 6.5 6.5 6.5 1.4297 0 2.7505-0.4713 3.8262-1.2598l3.9668 3.9668a1.0001 1.0001 0 1 0 1.4141 -1.414l-3.9668-3.9668c0.78848-1.0756 1.2598-2.3965 1.2598-3.8262 0-3.578-2.922-6.5-6.5-6.5zm0 2c2.4971 0 4.5 2.0029 4.5 4.5 1e-5 2.4971-2.0029 4.5-4.5 4.5-2.4971 0-4.5-2.0029-4.5-4.5 0-2.4971 2.0029-4.5 4.5-4.5z" style="color-rendering:auto;color:#000000;dominant-baseline:auto;fill:#ffffff;font-feature-settings:normal;font-variant-alternates:normal;font-variant-caps:normal;font-variant-ligatures:normal;font-variant-numeric:normal;font-variant-position:normal;image-rendering:auto;isolation:auto;mix-blend-mode:normal;paint-order:fill markers stroke;shape-padding:0;shape-rendering:auto;solid-color:#000000;text-decoration-color:#000000;text-decoration-line:none;text-decoration-style:solid;text-indent:0;text-orientation:mixed;text-transform:none;white-space:normal"/>
<path d="m40 1017.4v40h40v-40zm18.5 12c3.578 0 6.5 2.922 6.5 6.5 5e-6 1.4297-0.47129 2.7506-1.2598 3.8262l3.9668 3.9668a1.0001 1.0001 0 1 1 -1.4141 1.414l-3.9668-3.9668c-1.0756 0.7885-2.3965 1.2598-3.8262 1.2598-3.578 0-6.5-2.922-6.5-6.5 0-3.578 2.922-6.5 6.5-6.5zm0 2c-2.4971 0-4.5 2.0029-4.5 4.5-9e-6 2.4971 2.0029 4.5 4.5 4.5s4.5-2.0029 4.5-4.5c0-2.4971-2.0029-4.5-4.5-4.5z" style="color:#000000;fill-rule:evenodd;fill:#808080"/>
<path d="m80 1017.4v40h40v-40zm18.5 12c3.578 0 6.5 2.922 6.5 6.5 1e-5 1.4297-0.47129 2.7506-1.2598 3.8262l3.9668 3.9668a1.0001 1.0001 0 1 1 -1.4141 1.414l-3.9668-3.9668c-1.0756 0.7885-2.3965 1.2598-3.8262 1.2598-3.578 0-6.5-2.922-6.5-6.5 0-3.578 2.922-6.5 6.5-6.5zm0 2c-2.4971 0-4.5 2.0029-4.5 4.5-9e-6 2.4971 2.0029 4.5 4.5 4.5 2.4971 0 4.5-2.0029 4.5-4.5 0-2.4971-2.0029-4.5-4.5-4.5z" style="color:#000000;fill-rule:evenodd;fill:#ffffff"/>
</g>
</svg>
