<svg id="SVGRoot" width="18" height="18" version="1.1" viewBox="0 0 18 18" xmlns="http://www.w3.org/2000/svg">
<path d="m9 0c-4.97 0-9 4.03-9 9 0 4.97 4.03 9 9 9 4.97 0 9-4.03 9-9 0-4.97-4.03-9-9-9zm-2.54 2c0.015-2.24e-4 0.0299-2.24e-4 0.0449 0 0.828 0 1.5 0.672 1.5 1.5v1.5h2v-1.5c0-0.828 0.672-1.5 1.5-1.5 0.635 8.91e-4 1.2 0.401 1.41 1l2.9 8c0.112 0.314 0.184 0.647 0.184 0.998 0 1.65-1.35 3-3 3s-3-1.35-3-3v-4h-2v4c0 1.65-1.35 3-3 3s-3-1.35-3-3c0-0.351 0.0716-0.684 0.184-0.998l2.9-8h0.00195c0.206-0.583 0.749-0.98 1.37-1zm-1.46 8c-1.1 0-2 0.895-2 2s0.895 2 2 2 2-0.895 2-2-0.895-2-2-2zm8 0c-1.1 0-2 0.895-2 2s0.895 2 2 2 2-0.895 2-2-0.895-2-2-2z" style="fill:#a0a0a0"/>
</svg>
