<svg width="32" height="640" preserveAspectRatio="none" version="1.1" xmlns="http://www.w3.org/2000/svg">
<defs>
<clipPath id="clipPath4218">
<rect y="-99.638" width="16.035" height="16.035" style="color:#000000;fill:#ffffff"/>
</clipPath>
</defs>
<g transform="translate(0 -412.36)">
<g transform="matrix(1.9956 0 0 1.9956 0 899.2)" clip-path="url(#clipPath4218)">
<g transform="matrix(.8147 0 0 .80728 -2.0076 -255.6)" style="stroke-width:.6179;stroke:#808080">
<path d="m13.5 205.5s-0.21875-5.0312-1.1567-5.1762-2.6884-0.44688-2.6884-0.44688l-3.3518-0.0238s-2.0911 0.39395-2.8534 0.47349c-0.76225 0.07959-0.94975 5.1733-0.94975 5.1733 2.4102 1.3573 8.413 1.4037 11 0z" style="fill-rule:evenodd;fill:#ffffff;stroke-linecap:round;stroke-linejoin:round;stroke-width:.6179;stroke:#808080"/>
<path d="m9.6549 199.88-0.43818-1.0008c0.79536-0.76615 0.99883-1.4448 1.1239-2.7334 0.12507-1.2886-0.27813-2.6427-2.3406-2.6427-2.0625 0-2.6246 1.3849-2.4594 2.7407 0.16229 1.3325 0.42974 1.577 1.0784 2.6562-0.02986 0.34842-0.13877 0.61682-0.31583 0.95626l-0.30312 0.14678s0.5 1.5 2 1.5 2-1.5 2-1.5z" style="fill-rule:evenodd;fill:#ffffff;stroke-linecap:round;stroke-linejoin:round;stroke-width:.6179;stroke:#808080"/>
</g>
<g transform="matrix(.8147 0 0 .80728 5.0079 -255.6)" style="stroke-width:.6179;stroke:#808080">
<path d="m13.5 205.5s-0.21875-5.0312-1.1567-5.1762-2.6884-0.44688-2.6884-0.44688l-3.3518-0.0238s-2.0911 0.39395-2.8534 0.47349c-0.76225 0.07959-0.94975 5.1733-0.94975 5.1733 2.4102 1.3573 8.413 1.4037 11 0z" style="fill-rule:evenodd;fill:#ffffff;stroke-linecap:round;stroke-linejoin:round;stroke-width:.6179;stroke:#808080"/>
<path d="m9.6549 199.88-0.43818-1.0008c0.79536-0.76615 0.99883-1.4448 1.1239-2.7334 0.12507-1.2886-0.27813-2.6427-2.3406-2.6427-2.0625 0-2.6246 1.3849-2.4594 2.7407 0.16229 1.3325 0.42974 1.577 1.0784 2.6562-0.02986 0.34842-0.13877 0.61682-0.31583 0.95626l-0.30312 0.14678s0.5 1.5 2 1.5 2-1.5 2-1.5z" style="fill-rule:evenodd;fill:#ffffff;stroke-linecap:round;stroke-linejoin:round;stroke-width:.6179;stroke:#808080"/>
</g>
<rect x="3.6135e-7" y="-99.638" width="16" height="16" style="fill:none"/>
<path transform="matrix(.50111 0 0 .50111 -16.035 -324.13)" d="m50.52 451.37c-0.08427 0.52024-0.08454 1.0687-0.01953 1.5977 0.26063 2.1203 0.7568 2.7437 1.7188 4.3125-0.04284 0.34378-0.18054 0.65459-0.34375 1-0.3715 0.0668-3.246 0.60525-4.3438 0.71875-0.42575 0.044-0.65289 0.35753-0.8125 0.65625-0.15961 0.29872-0.26861 0.64664-0.375 1.0625-0.21277 0.83173-0.35346 1.8904-0.46875 2.9375-0.23057 2.0941-0.3125 4.1562-0.3125 4.1562-0.01307 0.18623 0.08806 0.37585 0.25 0.46875 2.1112 1.1781 5.5869 1.7093 9.0938 1.7188 1.7761 5e-3 3.5699-0.11878 5.1875-0.40625-0.12037-0.56721-0.24845-1.1232-0.40625-1.625-0.18363-0.584-0.3689-1.0958-0.6875-1.5938s-0.83659-1.0837-1.7188-1.2188c-1.6536-0.25313-3.9406-0.64674-4.75-0.78125l-0.28125-0.625c1.2539-1.5711 1.9288-3.3032 2.1562-5.625 0.15116-1.5434 0.01976-3.2869-1-4.75-0.63735-0.91446-1.6331-1.6082-2.8867-2.0039z" style="color:#000000;fill:#ffffff;text-decoration-line:none;text-indent:0;text-transform:none"/>
<path transform="matrix(.50111 0 0 .50111 -16.035 -324.13)" d="m45.312 451.44c-1.2103 0.40844-2.1837 1.0778-2.8438 1.9688-1.0956 1.4788-1.3306 3.2958-1.125 4.9688 0.32298 2.6276 1.0833 3.7677 2.1562 5.5-0.02665 0.12377-0.10207 0.30311-0.15625 0.4375-0.9418 0.16972-3.8177 0.69025-5 0.8125-1.0108 0.10459-1.4558 0.82339-1.7188 1.3125s-0.41455 0.99107-0.5625 1.5625c-0.1253 0.48394-0.21656 1.0154-0.3125 1.5625 1.5963 0.29328 3.3664 0.43266 5.1562 0.4375 3.5069 0.01 7.0343-0.51069 9.2812-1.7188 0.16194-0.0929 0.26307-0.28252 0.25-0.46875 0 0-0.09287-2.0388-0.375-4.125-0.14105-1.0431-0.33097-2.0946-0.59375-2.9375-0.13139-0.42148-0.27396-0.78799-0.46875-1.0938s-0.47176-0.59452-0.875-0.65625c-1.428-0.21859-3.7992-0.63743-4.0938-0.6875l-0.5-1.0938c1.1351-1.21 1.5899-2.4526 1.7812-4.4062 0.04417-0.45093 0.04974-0.91744 0-1.375z" style="color:#000000;fill-rule:evenodd;fill:#ffffff;text-decoration-line:none;text-indent:0;text-transform:none"/>
<g transform="matrix(1.0474 0 0 1.0379 -.36253 -298.22)" style="stroke:#808080">
<path d="m13.5 205.5s-0.21875-5.0312-1.1567-5.1762-2.6884-0.44688-2.6884-0.44688l-3.3518-0.0238s-2.0911 0.39395-2.8534 0.47349c-0.76225 0.07959-0.94975 5.1733-0.94975 5.1733 2.4102 1.3573 8.413 1.4037 11 0z" style="fill-rule:evenodd;fill:#ffffff;stroke-linecap:round;stroke-linejoin:round;stroke-width:.48061;stroke:#808080"/>
<path d="m9.6549 199.88-0.43818-1.0008c0.79536-0.76615 0.99883-1.4448 1.1239-2.7334 0.12507-1.2886-0.27813-2.6427-2.3406-2.6427-2.0625 0-2.6246 1.3849-2.4594 2.7407 0.16229 1.3325 0.42974 1.577 1.0784 2.6562-0.02986 0.34842-0.13877 0.61682-0.31583 0.95626l-0.30312 0.14678s0.5 1.5 2 1.5 2-1.5 2-1.5z" style="fill-rule:evenodd;fill:#ffffff;stroke-linecap:round;stroke-linejoin:round;stroke-width:.48061;stroke:#808080"/>
</g>
</g>
<g transform="matrix(2.0902 0 0 2.0712 -4.7219 396.08)" style="stroke:#808080">
<path d="m13.377 203.86c-0.14803-1.4824-0.45308-3.447-1.0341-3.5367-0.581-0.0898-2.6884-0.44688-2.6884-0.44688l-3.3518-0.0238s-2.0911 0.39395-2.8534 0.47349c-0.76225 0.07959-0.94975 5.1733-0.94975 5.1733 2.1632 1.2182 7.2205 1.3804 10.105 0.38598z" style="fill-rule:evenodd;fill:#ffffff;stroke-linecap:round;stroke-linejoin:round;stroke-width:.48061;stroke:#808080"/>
<path d="m9.6549 199.88-0.43818-1.0008c0.79536-0.76615 0.99883-1.4448 1.1239-2.7334 0.12507-1.2886-0.27813-2.6427-2.3406-2.6427-2.0625 0-2.6246 1.3849-2.4594 2.7407 0.16229 1.3325 0.42974 1.577 1.0784 2.6562-0.02986 0.34842-0.13877 0.61682-0.31583 0.95626l-0.30312 0.14678s0.5 1.5 2 1.5 2-1.5 2-1.5z" style="fill-rule:evenodd;fill:#ffffff;stroke-linecap:round;stroke-linejoin:round;stroke-width:.48061;stroke:#808080"/>
</g>
<path d="m22.344 811.52-4.125 4.4375-5.9688-3.4062c-0.56393-0.32819-1.3476-0.20784-1.8125 0.25s-0.56955 1.2124-0.25 1.7812l5.5 9.5938c2.2268-0.20572 4.3337-0.58618 6.0938-1.1875 0.13822-0.0426 0.25563-0.14826 0.3125-0.28125l1.625-4.1875c0.03141-0.0789 0.04228-0.16582 0.03125-0.25-0.1559-1.5469-0.39093-3.3406-0.75-4.8125-0.17954-0.73596-0.39023-1.3883-0.65625-1.9062-0.0041-8e-3 0.0042-0.0232 0-0.0312z" style="color:#000000;fill-rule:evenodd;fill:#ffffff;opacity:.99;text-decoration-line:none;text-indent:0;text-transform:none"/>
<path d="m11.5 813.86 8 14 12-24-13 14z" style="fill:#c0c0c0;stroke-linejoin:round;stroke-width:1px;stroke:#808080"/>
<g transform="matrix(2.0902 0 0 2.0712 -.7219 47.084)" style="stroke:#808080">
<path d="m13.5 205.5s-0.21875-5.0312-1.1567-5.1762-2.6884-0.44688-2.6884-0.44688l-3.3518-0.0238s-2.0911 0.39395-2.8534 0.47349c-0.76225 0.07959-0.94975 5.1733-0.94975 5.1733 2.4102 1.3573 8.413 1.4037 11 0z" style="fill-rule:evenodd;fill:#ffffff;stroke-linecap:round;stroke-linejoin:round;stroke-width:.48061;stroke:#808080"/>
<path d="m9.6549 199.88-0.43818-1.0008c0.79536-0.76615 0.99883-1.4448 1.1239-2.7334 0.12507-1.2886-0.27813-2.6427-2.3406-2.6427-2.0625 0-2.6246 1.3849-2.4594 2.7407 0.16229 1.3325 0.42974 1.577 1.0784 2.6562-0.02986 0.34842-0.13877 0.61682-0.31583 0.95626l-0.30312 0.14678s0.5 1.5 2 1.5 2-1.5 2-1.5z" style="fill-rule:evenodd;fill:#ffffff;stroke-linecap:round;stroke-linejoin:round;stroke-width:.48061;stroke:#808080"/>
</g>
<rect transform="rotate(45)" x="373.96" y="351.33" width="16.263" height="16.263" style="color:#000000;fill:#ffffff;stroke-linejoin:round;stroke:#808080"/>
<circle transform="translate(-144 108.36)" cx="160" cy="512" r="6.5" style="color:#000000;fill:#ffffff;opacity:.99;stroke-linecap:round;stroke-linejoin:round;stroke:#808080"/>
<circle transform="translate(-144 140.36)" cx="160" cy="512" r="8.5" style="color:#000000;fill:none;opacity:.99;stroke-linecap:round;stroke-linejoin:round;stroke:#808080"/>
<circle transform="translate(-144 140.36)" cx="160" cy="512" r="5.5" style="color:#000000;fill:#ffffff;opacity:.99;stroke-linecap:round;stroke-linejoin:round;stroke:#808080"/>
<path d="m15.084 577.69c0.96052 2e-5 1.8384 0.16011 2.6647 0.37182 0.82625 0.21175 1.5544 0.53708 2.1689 0.9915 0.61452 0.45446 1.0793 1.0277 1.4253 1.7351 0.34598 0.7075 0.49574 1.5492 0.49576 2.5407-2e-5 0.63004-0.0414 1.2239-0.18591 1.7352-0.14468 0.51126-0.34085 0.97086-0.6197 1.4253-0.27887 0.45446-0.64035 0.88309-1.0535 1.3014-0.41314 0.41832-0.88824 0.85725-1.4253 1.3014-0.36151 0.29952-0.71783 0.60936-0.99151 0.86756-0.27371 0.25822-0.50092 0.4906-0.68166 0.74363-0.18075 0.25305-0.27887 0.52158-0.37182 0.80559-0.093 0.28405-0.18591 0.56807-0.1859 0.92954-1e-5 0.24789 0.0568 0.54741 0.12399 0.80561 0.0672 0.25822 0.13433 0.44411 0.24787 0.61969h-4.028c-0.10329-0.26853-0.19107-0.5319-0.24787-0.86756s-0.0619-0.69198-0.0619-0.99152c-2e-5 -0.47508 0.031-0.90887 0.12399-1.3014 0.0929-0.39246 0.18589-0.76944 0.3718-1.1154 0.1859-0.34598 0.46476-0.67648 0.74363-0.9915 0.27886-0.31501 0.61968-0.61968 0.9915-0.92954 0.39247-0.33049 0.69716-0.6455 0.99152-0.92955 0.29435-0.28399 0.53706-0.52155 0.74363-0.80558 0.20656-0.28402 0.39245-0.62486 0.49574-0.92955 0.1033-0.30465 0.12399-0.61967 0.12399-0.9915 0-0.32016-0.01-0.59386-0.12399-0.86756-0.11364-0.27369-0.28403-0.54739-0.49574-0.74365-0.21174-0.19621-0.50093-0.32014-0.8056-0.43378-0.3047-0.11364-0.6197-0.18588-0.99151-0.18591-0.8056 3e-5 -1.6732 0.16011-2.5407 0.49576-0.86759 0.33569-1.7042 0.86758-2.4788 1.5492v-4.6477c0.79528-0.47507 1.6628-0.87788 2.6027-1.1154 0.93986-0.23754 1.9727-0.3718 2.9745-0.37182zm-0.18591 17.847c0.81592 0 1.5079 0.2582 2.045 0.74361 0.53706 0.47512 0.80559 1.0638 0.80561 1.7971-2e-5 0.74364-0.27888 1.3736-0.80561 1.8591-0.53707 0.48543-1.2187 0.74363-2.045 0.74363-0.82626 0-1.4976-0.24787-2.045-0.74363-0.5474-0.51642-0.8056-1.1568-0.8056-1.8591 0-0.72296 0.2582-1.3117 0.8056-1.7971 0.54739-0.48541 1.2187-0.74361 2.045-0.74361z" style="fill:#ffffff;stroke:#808080"/>
<g transform="matrix(0 -2 -2 0 536.22 700.86)" style="stroke:#808080">
<path d="m8.5 264.86v-9" style="fill:none;stroke-linecap:round;stroke-linejoin:round;stroke-width:.5;stroke:#808080"/>
<path d="m11.5 258.86-3-3-3 3" style="fill:none;stroke-linecap:round;stroke-width:.5px;stroke:#808080"/>
</g>
<g transform="matrix(2.0902 0 0 2.0712 -4.7219 332.08)" style="stroke:#808080">
<path d="m13.5 205.5s-0.21875-5.0312-1.1567-5.1762-2.6884-0.44688-2.6884-0.44688l-3.3518-0.0238s-2.0911 0.39395-2.8534 0.47349c-0.76225 0.07959-0.94975 5.1733-0.94975 5.1733 2.4102 1.3573 8.413 1.4037 11 0z" style="fill-rule:evenodd;fill:#ffffff;stroke-linecap:round;stroke-linejoin:round;stroke-width:.48061;stroke:#808080"/>
<path d="m9.6549 199.88-0.43818-1.0008c0.79536-0.76615 0.99883-1.4448 1.1239-2.7334 0.12507-1.2886-0.27813-2.6427-2.3406-2.6427-2.0625 0-2.6246 1.3849-2.4594 2.7407 0.16229 1.3325 0.42974 1.577 1.0784 2.6562-0.02986 0.34842-0.13877 0.61682-0.31583 0.95626l-0.30312 0.14678s0.5 1.5 2 1.5 2-1.5 2-1.5z" style="fill-rule:evenodd;fill:#ffffff;stroke-linecap:round;stroke-linejoin:round;stroke-width:.48061;stroke:#808080"/>
</g>
<g transform="matrix(2.0902 0 0 2.0712 -4.7219 364.08)" style="stroke:#808080">
<path transform="matrix(.47841 0 0 .48281 -20.705 -69.391)" d="m56.438 557.66s-4.3442 0.80401-5.9375 0.96875c-1.5933 0.16485-2 10.719-2 10.719 5.0379 2.8112 17.593 2.9073 23 0 0 0-0.09927-2.6694-0.46875-5.3438h-5.5312v-5.9688c-0.70065-0.11813-2.0312-0.3125-2.0312-0.3125z" style="fill-rule:evenodd;fill:#ffffff;stroke-linecap:round;stroke-linejoin:round;stroke:#808080"/>
<path d="m9.6549 199.88-0.43818-1.0008c0.79536-0.76615 0.99883-1.4448 1.1239-2.7334 0.12507-1.2886-0.27813-2.6427-2.3406-2.6427-2.0625 0-2.6246 1.3849-2.4594 2.7407 0.16229 1.3325 0.42974 1.577 1.0784 2.6562-0.02986 0.34842-0.13877 0.61682-0.31583 0.95626l-0.30312 0.14678s0.5 1.5 2 1.5 2-1.5 2-1.5z" style="fill-rule:evenodd;fill:#ffffff;stroke-linecap:round;stroke-linejoin:round;stroke-width:.48061;stroke:#808080"/>
</g>
<path d="m15.656 777.58-3.2188 3.2188c-0.55748 0.55566-0.55748 1.5693 0 2.125l3.9375 3.9375-3.9375 3.9375c-0.39488 0.39359-0.50828 1.0348-0.34375 1.5625 4.423-0.0108 8.8233-0.71242 11.625-2.2188 0.17342-0.0842 0.28855-0.2761 0.28125-0.46875 0 0-0.10537-2.6091-0.46875-5.2812-1e-3 -0.0103 1e-3 -0.021 0-0.0312h-6.0312v-6.4688c-0.64377-0.10496-1.7904-0.30322-1.8438-0.3125z" style="color:#000000;fill:#ffffff;text-decoration-line:none;text-indent:0;text-transform:none"/>
<path d="m19.344 746.36c-0.73192 0.0767-1.3477 0.76408-1.3438 1.5v12.031c2.2032-0.36189 4.2024-0.93472 5.7188-1.75 0.17342-0.0842 0.28855-0.2761 0.28125-0.46875 0 0-0.10537-2.6091-0.46875-5.2812-0.18169-1.3361-0.44712-2.6811-0.78125-3.75-0.06294-0.20134-0.14838-0.38191-0.21875-0.5625l-2.1875-1.4688c-0.29033-0.19679-0.65122-0.28701-1-0.25z" style="color:#000000;fill-rule:evenodd;fill:#ffffff;text-decoration-line:none;text-indent:0;text-transform:none"/>
<path d="m19.5 763.86 12-8-12-8z" style="fill:#c0c0c0;stroke-linejoin:round;stroke-width:1px;stroke:#808080"/>
<path d="m17.5 777.86-4 4 5 5-5 5 4 4 5-5 5 5 4-4-5-5 5-5-4-4-5 5z" style="fill:#c0c0c0;stroke-linejoin:round;stroke-width:1px;stroke:#808080"/>
<path d="m5.4984 484.86c0 1.0667 0.93333 2 2 2s2-0.93333 2-2c0-1.0667-0.93333-2-2-2s-2 0.93332-2 2c0 8 4 8 4 16 0-1.0667-0.93333-2-2-2s-2 0.93333-2 2c0 1.0667 0.93333 2 2 2s2-0.93333 2-2c0 1.0667-0.66667 2-2 2h16c1.0667-5.8e-4 2-0.93333 2-2 0-7.3333-3.3333-8-4-14h-14 16c1.0667 0 2-0.93333 2-2 0-1.3333-0.93333-2-2-2h-16m2 8h9.3333m-7.3333 4h9.3333m-8.6667 4h9.3333" style="color:#000000;fill:#ffffff;stroke:#808080;text-decoration-line:none;text-indent:0;text-transform:none"/>
<circle cx="16" cy="844.36" r="11.5" style="color:#000000;fill:none;stroke-dashoffset:1.5;stroke-linecap:round;stroke-linejoin:round;stroke:#808080"/>
<g transform="matrix(1.1894 0 0 1.1894 -3.0305 -99.316)" style="fill:none;stroke-linecap:square;stroke-width:.84076;stroke:#808080">
<path d="m19.363 521-6.7261 6.7261" style="fill:none;stroke-linecap:square;stroke-width:.84076;stroke:#808080"/>
<path d="m12.637 521 6.7261 6.7261" style="fill:none;stroke-linecap:square;stroke-width:.84076;stroke:#808080"/>
</g>
<circle cx="16" cy="844.36" r="9.5001" style="color:#000000;fill:none;stroke-dashoffset:1.5;stroke-linecap:round;stroke-linejoin:round;stroke:#808080"/>
<path d="m23 848.86h-14l7-12.5z" style="fill:#ffffff;paint-order:normal;stroke-linecap:square;stroke-linejoin:round;stroke:#808080"/>
<rect x="4.5" y="544.86" width="23" height="23" ry="2" style="fill:#ffffff;paint-order:normal;stroke-linecap:square;stroke-linejoin:round;stroke:#808080"/>
<rect x="11.5" y="556.86" width="9" height="9" ry=".50002" style="fill:#ffffff;paint-order:normal;stroke-linecap:square;stroke-linejoin:round;stroke:#808080"/>
<rect x="15" y="558.36" width="2" height="6" style="fill:#808080;paint-order:normal"/>
<rect x="13" y="560.36" width="6" height="2" style="fill:#808080;paint-order:normal"/>
</g>
</svg>
