<svg width="16" height="1600" version="1.1" xmlns="http://www.w3.org/2000/svg" xmlns:xlink="http://www.w3.org/1999/xlink" preserveAspectRatio="none">
<defs>
<linearGradient id="linearGradient3869">
<stop style="stop-color:#c0c0c0" offset="0"/>
<stop style="stop-color:#f0f0f0" offset="1"/>
</linearGradient>
<linearGradient id="linearGradient3863">
<stop style="stop-color:#ffffff" offset="0"/>
<stop style="stop-color:#808080" offset="1"/>
</linearGradient>
<linearGradient id="linearGradient9851" x1="37" x2="37" y1="2657" y2="2658.5" gradientTransform="translate(-26 -2496)" gradientUnits="userSpaceOnUse" spreadMethod="reflect" xlink:href="#linearGradient3869"/>
<linearGradient id="linearGradient9849" x1="37" x2="37" y1="2657" y2="2658.5" gradientTransform="translate(-32 -2496)" gradientUnits="userSpaceOnUse" spreadMethod="reflect" xlink:href="#linearGradient3869"/>
<linearGradient id="linearGradient9585" x1="40" x2="40" y1="2662" y2="2660" gradientTransform="translate(-32 -2496)" gradientUnits="userSpaceOnUse" xlink:href="#linearGradient3863"/>
<linearGradient id="linearGradient9851-1" x1="37" x2="37" y1="2657" y2="2658.5" gradientTransform="translate(-26 -2480)" gradientUnits="userSpaceOnUse" spreadMethod="reflect" xlink:href="#linearGradient3869"/>
<linearGradient id="linearGradient9849-9" x1="37" x2="37" y1="2657" y2="2658.5" gradientTransform="translate(-32 -2480)" gradientUnits="userSpaceOnUse" spreadMethod="reflect" xlink:href="#linearGradient3869"/>
<linearGradient id="linearGradient3176" x1="40" x2="40" y1="2662" y2="2660" gradientTransform="translate(-32 -2480)" gradientUnits="userSpaceOnUse" xlink:href="#linearGradient3863"/>
<linearGradient id="linearGradient9351" x1="10.528" x2="10.528" y1="201.35" y2="200.65" gradientTransform="matrix(.70711 -.70711 .70711 .70711 -141.32 96.07)" gradientUnits="userSpaceOnUse" xlink:href="#linearGradient3869"/>
<radialGradient id="radialGradient4281" cx="357.86" cy="450.22" r="245" gradientTransform="matrix(.028571 0 0 .028571 -2.2245 667.14)" gradientUnits="userSpaceOnUse">
<stop style="stop-color:#ffffff" offset="0"/>
<stop style="stop-color:#ffffff;stop-opacity:0" offset="1"/>
</radialGradient>
</defs>
<path d="m4 22h8l-4 4z" style="fill-rule:evenodd;fill:#808080"/>
<path d="m7.6415 33c0.5849 1e-5 1.1195 0.0975 1.6226 0.22642 0.50314 0.12894 0.94653 0.32705 1.3208 0.60377 0.37421 0.27674 0.65722 0.6258 0.86792 1.0566 0.21068 0.43083 0.30188 0.94341 0.30189 1.5472-7e-6 0.38366-0.02516 0.7453-0.11321 1.0566-0.08806 0.31133-0.20755 0.5912-0.37736 0.86792-0.16982 0.27674-0.38995 0.53775-0.64151 0.79245-0.25158 0.25473-0.54089 0.52202-0.86792 0.79246-0.22013 0.18239-0.43711 0.37107-0.60377 0.5283-0.16667 0.15724-0.30504 0.29875-0.4151 0.45283-0.11007 0.15409-0.16982 0.31761-0.22642 0.49056-0.05661 0.17297-0.11321 0.34592-0.11321 0.56604-4e-6 0.15095 0.03459 0.33334 0.07547 0.49057 0.04087 0.15724 0.08176 0.27044 0.15094 0.37736h-2.4528c-0.06289-0.16352-0.11635-0.3239-0.15094-0.5283s-0.03774-0.42138-0.03773-0.60378c-4e-6 -0.2893 0.01886-0.55345 0.07547-0.79245 0.0566-0.23899 0.1132-0.46855 0.22641-0.67925 0.1132-0.21068 0.28302-0.41194 0.45283-0.60377 0.16981-0.19182 0.37736-0.37735 0.60377-0.56604 0.23899-0.20125 0.42452-0.39307 0.60378-0.56604 0.17924-0.17294 0.32704-0.3176 0.45283-0.49056 0.12578-0.17295 0.23899-0.3805 0.30189-0.56604 0.06289-0.18552 0.07547-0.37735 0.07547-0.60377-5e-6 -0.19496-0.0063-0.36163-0.07547-0.5283-0.06919-0.16666-0.17296-0.33333-0.30189-0.45284-0.12893-0.11948-0.30504-0.19495-0.49056-0.26415-0.18554-0.0692-0.37736-0.11319-0.60377-0.11321-0.49057 2e-5 -1.0189 0.0975-1.5472 0.30189-0.5283 0.20442-1.0377 0.52831-1.5094 0.9434v-2.8302c0.48428-0.28929 1.0126-0.53458 1.5849-0.67924 0.57232-0.14465 1.2013-0.22641 1.8113-0.22642zm-0.11321 10.868c0.49685 0 0.91823 0.15723 1.2453 0.45282 0.32704 0.28932 0.49056 0.64781 0.49057 1.0943-7e-6 0.45284-0.16982 0.83648-0.49057 1.1321-0.32705 0.2956-0.74214 0.45283-1.2453 0.45283-0.50315 0-0.91195-0.15094-1.2453-0.45283-0.33334-0.31447-0.49057-0.7044-0.49056-1.1321-3e-6 -0.44024 0.15723-0.79874 0.49056-1.0943 0.33333-0.29559 0.74214-0.45282 1.2453-0.45282z" style="fill:#808080"/>
<path d="m8 50v6" style="fill:none;stroke-linecap:round;stroke-width:2;stroke:#808080"/>
<path d="m11.889 52.111a5.5 5.5 0 0 1 1.1923 5.9938 5.5 5.5 0 0 1-5.0813 3.3952 5.5 5.5 0 0 1-5.0813-3.3952 5.5 5.5 0 0 1 1.1922-5.9938" style="fill:none;stroke-linecap:round;stroke-linejoin:round;stroke-width:2;stroke:#808080"/>
<path d="m4.5 68.5 7 7" style="fill:none;stroke-linecap:square;stroke-width:2;stroke:#808080"/>
<path d="m11.5 68.5-7 7" style="fill:none;stroke-linecap:square;stroke-width:2;stroke:#808080"/>
<path d="m5 88h6" style="fill:none;stroke-linecap:square;stroke-width:2;stroke:#808080"/>
<path d="m8 85v6" style="fill:none;stroke-linecap:square;stroke-width:2;stroke:#808080"/>
<path d="m10 102.04a4 4 0 1 1-8 0 4 4 0 1 1 8 0z" style="fill-opacity:.50196;fill:#ffffff;stroke-linejoin:round;stroke-width:2;stroke:#808080"/>
<path d="m9 105 5 5" style="fill:none;stroke-linecap:round;stroke-width:2;stroke:#808080"/>
<path d="m10 115-4 5 4 5" style="fill:none;stroke-linecap:square;stroke-width:2;stroke:#808080"/>
<path d="m6 131 4 5-4 5" style="fill:none;stroke-linecap:square;stroke-width:2;stroke:#808080"/>
<path d="m14 152.04a6 6 0 1 1-12 0 6 6 0 1 1 12 0z" style="fill:#c0c0c0"/>
<path d="m10 150-4 4" style="fill:none;stroke-linecap:square;stroke-width:2;stroke:#ffffff"/>
<path d="m6 150 4 4" style="fill:none;stroke-linecap:square;stroke-width:2;stroke:#ffffff"/>
<rect x="1.5" y="165" width="13" height="9.5003" style="color:#000000;fill:url(#linearGradient9585)"/>
<rect x="1.5" y="163" width="13" height="2" style="color:#000000;fill-opacity:.12549;fill:#000000"/>
<rect x="1.5" y="162.5" width="13" height="12" style="color:#000000;fill:none;stroke:#808080"/>
<rect x="4" y="161" width="2" height="2.9989" style="color:#000000;fill:url(#linearGradient9849)"/>
<rect x="10" y="161" width="2" height="2.9989" style="color:#000000;fill:url(#linearGradient9851)"/>
<rect x="3" y="167" width="2" height="2" style="color:#000000;fill:#d3d3d3"/>
<rect x="5" y="169" width="2" height="2" style="color:#000000;fill:#d3d3d3"/>
<rect x="7" y="167" width="2" height="2" style="color:#000000;fill:#d3d3d3"/>
<rect x="9" y="169" width="2" height="2" style="color:#000000;fill:#d3d3d3"/>
<rect x="11" y="167" width="2" height="2" style="color:#000000;fill:#d3d3d3"/>
<rect x="11" y="171" width="2" height="2" style="color:#000000;fill:#d3d3d3"/>
<rect x="7" y="171" width="2" height="2" style="color:#000000;fill:#d3d3d3"/>
<rect x="3" y="171" width="2" height="2" style="color:#000000;fill:#d3d3d3"/>
<rect x="5" y="167" width="2" height="2" style="color:#000000;fill:#f0f0f0"/>
<rect x="7" y="169" width="2" height="2" style="color:#000000;fill:#f0f0f0"/>
<rect x="9" y="167" width="2" height="2" style="color:#000000;fill:#f0f0f0"/>
<rect x="11" y="169" width="2" height="2" style="color:#000000;fill:#f0f0f0"/>
<rect x="3" y="169" width="2" height="2" style="color:#000000;fill:#f0f0f0"/>
<rect x="9" y="171" width="2" height="2" style="color:#000000;fill:#f0f0f0"/>
<rect x="5" y="171" width="2" height="2" style="color:#000000;fill:#f0f0f0"/>
<rect x="1.5" y="181" width="13" height="9.5003" style="color:#000000;fill:url(#linearGradient3176)"/>
<rect x="1.5" y="179" width="13" height="2" style="color:#000000;fill-opacity:.12549;fill:#000000"/>
<rect x="1.5" y="178.5" width="13" height="12" style="color:#000000;fill:none;stroke:#808080"/>
<rect x="4" y="177" width="2" height="2.9989" style="color:#000000;fill:url(#linearGradient9849-9)"/>
<rect x="10" y="177" width="2" height="2.9989" style="color:#000000;fill:url(#linearGradient9851-1)"/>
<path d="m11.5 201.5v3h-8v-8h3" style="fill:none;stroke-linecap:square;stroke-width:1px;stroke:#808080"/>
<path d="m9.5 194.5h4v4" style="fill:none;stroke-linecap:square;stroke-width:1px;stroke:#808080"/>
<path d="m13.5 194.5-6 6" style="fill:none;stroke-width:1px;stroke:#808080"/>
<path d="m3.5 213.5v7.5c0 1 0.5 1.5 1.5 1.5h5c1 0 1.5-0.5 1.5-1.5v-7.5" style="fill-rule:evenodd;fill:#ffffff;stroke-linecap:round;stroke-linejoin:round;stroke:#808080"/>
<path d="m2.5 213.5h10v-2h-10z" style="fill-rule:evenodd;fill:#ffffff;stroke-linecap:round;stroke-linejoin:round;stroke-width:1px;stroke:#808080"/>
<path d="m5.5 211.5v-1c0-1.5 4-1.5 4 0v1" style="fill:none;stroke-linejoin:round;stroke-width:1px;stroke:#808080"/>
<path d="m5.5 215.5v5" style="fill:none;stroke-linecap:round;stroke-linejoin:round;stroke-width:1px;stroke:#808080"/>
<path d="m9.5 215.5v5" style="fill:none;stroke-linecap:round;stroke-linejoin:round;stroke-width:1px;stroke:#808080"/>
<path d="m7.5 215.5v5" style="fill:none;stroke-linecap:round;stroke-linejoin:round;stroke-width:1px;stroke:#808080"/>
<path d="m1.5162 237.49 0.98727-2.9873 6.5-6.5c1.5-1.5 3.5 0.49999 2 2l-6.5 6.5z" style="fill:url(#linearGradient9351)"/>
<path d="m4.5005 236.5c0-1-0.99999-2-2-2l-0.98317 2.9914z" style="fill:#ffffff"/>
<path d="m10.006 227.01 0.5-0.5c2-2 4 0 2 2l-0.5 0.5c7e-5 -0.99997-0.99999-2-2-2z" style="fill:#ffffff"/>
<path d="m10.006 227.01c1-1e-5 2 0.99999 2 2" style="fill:none;stroke-width:1px;stroke:#808080"/>
<path d="m3.0055 237.01-1-0.99999-0.49999 1.5z" style="fill:#000000"/>
<path d="m1.5035 237.5 0.99999-3 8.5002-8.5002c1.5-1.5 3.5 0.5 2 2l-8.5002 8.5002z" style="fill:none;stroke-width:1px;stroke:#808080"/>
<path d="m1.5 238.5h12" style="fill:none;stroke-linecap:square;stroke-width:1px;stroke:#808080"/>
<path d="m12.488 248.03c0 2.4803-2.0197 4.5-4.5 4.5s-4.5-2.0197-4.5-4.5 2.0197-4.5 4.5-4.5 4.5 2.0197 4.5 4.5z" style="fill:#ffffff;stroke-linecap:round;stroke-linejoin:round;stroke-width:.99213px;stroke:#808080"/>
<path d="m2.4961 253.52 11.02-11.02" style="fill:none;stroke-linecap:round;stroke-width:.99213px;stroke:#808080"/>
<rect x="1.5" y="257.5" width="13" height="9.0004" style="color:#000000;fill:#ffffff"/>
<path d="m1.5 266.5 6.5-6 6.5 6z" style="fill:#ffffff;stroke-linejoin:round;stroke-width:1px;stroke:#e0e0e0"/>
<path d="m1.5 257.5 6.5 6 6.5-6z" style="fill:#ffffff;stroke-linejoin:round;stroke-width:1px;stroke:#c0c0c0"/>
<rect x="1.5" y="257.5" width="13" height="9.0004" style="color:#000000;fill:none;stroke-linejoin:round;stroke:#808080"/>
<path d="m12.5 270.5h2v-3.5c0-1.5-1-2.5-3-2.5s-3 1-3 2.5v3.5h2v-3c0-0.5 0-1 1-1s1 0.5 1 1z" style="fill:#c0c0c0;stroke-width:1px;stroke:#808080"/>
<rect x="9" y="269" width="1" height="1" style="color:#000000;fill:#ffffff"/>
<rect x="13" y="269" width="1" height="1" style="color:#000000;fill:#ffffff"/>
<path d="m5.6522 274.37-1.3416 0.82075 0.48447 2.2007c-0.28355 0.34569-0.50854 0.73266-0.67081 1.1563l-2.1242 0.67154-0.037267 1.5666 2.1615 0.74602c0.15753 0.39152 0.37121 0.75845 0.63354 1.0818l-0.4472 2.2007 1.3416 0.78338 1.677-1.492c0.22458 0.0382 0.43607 0.0741 0.67081 0.0741 0.22183 0 0.4207-0.0406 0.63354-0.0741l1.7143 1.5294 1.3416-0.82075-0.48447-2.2007c0.28355-0.34569 0.50854-0.73267 0.67081-1.1563l2.124-0.66 0.03727-1.5666-2.1615-0.74602c-0.15753-0.39152-0.3712-0.75845-0.63354-1.0818l0.4472-2.2007-1.3416-0.7834-1.677 1.4921c-0.22458-0.038-0.43607-0.0745-0.67081-0.0745-0.22183 0-0.4207 0.0405-0.63354 0.0741zm2.087 4.1405c0.3677-0.0747 0.81305 0.0416 1.0062 0.18645 0.7246 0.41897 0.97735 1.3264 0.559 2.0516-0.41835 0.72526-1.3251 0.97831-2.0497 0.55958-0.7246-0.41897-0.97735-1.3264-0.559-2.0516 0.23532-0.40799 0.61676-0.6743 1.0435-0.74603z" style="color:#000000;fill:#808080;text-indent:0;text-transform:none"/>
<path d="m9.9882 301.98c-2.9764-5.9882-2.9764-5.9882 0-11.976l-5.9882 5.99 5.9882 5.9882z" style="fill-rule:evenodd;fill:#808080"/>
<path d="m5.9843 317.99c3.0118-5.9882 3.0118-5.9882 0-12.012l6.0236 6.0236-6.0236 5.9882z" style="fill-rule:evenodd;fill:#808080"/>
<path d="m10 332v-8l-4 4z" style="fill-rule:evenodd;fill:#808080"/>
<path d="m6 348v-8l4 4z" style="fill-rule:evenodd;fill:#808080"/>
<rect x="10.5" y="361.5" width="4" height="4" style="fill:#ffffff;stroke-linecap:round;stroke:#808080"/>
<path d="m3 359h1l2e-6 1.999c0 1.001 1 2.001 2 2.001l1-1e-5v-1.5l2.5 2-2.5 2v-1.5h-1.0225c-1.4775 0-2.9775-1.5-2.9775-3.001z" style="fill:#808080"/>
<rect x="1.5" y="354.5" width="4" height="4" style="fill:#e0e0e0;stroke-linecap:round;stroke:#c0c0c0"/>
<rect x="10.5" y="377.5" width="4" height="4" style="fill:#ffffff;stroke-linecap:round;stroke:#808080"/>
<path d="m3 377h1v-4c0-1 1-2 2-2l3.999 0.0225c1.001 0 2.001 1 2.001 2l-1e-5 1h-1.5l2 2.5 2-2.5h-1.5v-1.0225c0-1.4775-1.5-2.9775-3.001-2.9775l-3.999-0.02c-1.5 0-3 1.5-3 3z" style="fill:#808080"/>
<rect x="1.5" y="377.5" width="4" height="4" style="fill:#e0e0e0;stroke-linecap:round;stroke:#c0c0c0"/>
<path d="m7.4793 390.84q1.2716-1.5986 1.9862-2.1073 0.96887-0.70242 2.0467-0.70242 1.2716 0 2.3737 0.92042 1.1142 0.92042 1.1142 2.9672 0 1.4291-0.41177 2.2526-0.41177 0.81143-1.2837 1.308-0.87198 0.49655-1.7924 0.49655-1.0779 0-2.0467-0.69032-0.71454-0.52077-1.9862-2.1194-1.6471 2.071-3.5 2.071-1.2232 0-2.1073-0.92043-0.87198-0.93253-0.87198-2.3132 0-1.3685 0.87198-2.3011 0.88409-0.93253 2.1073-0.93253 1.853 0 3.5 2.071zm0.83565 1.1505q1.0536 1.635 1.9256 2.2405 0.5571 0.39965 1.2474 0.39965 0.92042 0 1.5381-0.6782 0.62976-0.67821 0.62976-1.9135 0-1.2838-0.64188-1.962-0.62976-0.67821-1.5744-0.67821-0.59343 0-1.1142 0.3391-0.70243 0.47233-2.0104 2.2526zm-1.6713 0.0121q-0.96887-1.2111-1.5502-1.5502-0.58132-0.35121-1.1142-0.35121-0.70243 0-1.1748 0.49654-0.46021 0.49655-0.46021 1.3685 0 0.85987 0.48443 1.3806 0.48443 0.50866 1.1748 0.50866 1.2232 0 2.6402-1.853z" style="fill:#808080"/>
<path d="m3.3164 401.32l-0.25 0.43164-1.75 3.0312 3.4648 2 10.219 5.9004v-4.6172l-8.2188-4.7461-3.4648-2zm0.36719 1.3652l2.5977 1.5-1 1.7324-2.5977-1.5 1-1.7324z" style="color-rendering:auto;color:#000000;dominant-baseline:auto;fill:#808080;font-feature-settings:normal;font-variant-alternates:normal;font-variant-caps:normal;font-variant-ligatures:normal;font-variant-numeric:normal;font-variant-position:normal;image-rendering:auto;isolation:auto;mix-blend-mode:normal;shape-padding:0;shape-rendering:auto;solid-color:#000000;text-decoration-color:#000000;text-decoration-line:none;text-decoration-style:solid;text-indent:0;text-orientation:mixed;text-transform:none;white-space:normal"/>
<path d="m4.5004 411.9 1.6795 1.1686-0.59249-1.9584 1.6305-1.236-2.0457-0.0423-0.67179-1.9326-0.67179 1.9326-2.0457 0.0423 1.6305 1.236-0.59249 1.9584z" style="color:#000000;fill:#808080;stroke-width:1.1429"/>
<path d="m10.5 413.17 0.83972 0.58428-0.29624-0.97914 0.8152-0.618-1.0228-0.0212-0.33588-0.96629-0.33588 0.96629-1.0228 0.0212 0.8152 0.618-0.29624 0.97914z" style="color:#000000;fill:#808080;stroke-width:.57143"/>
<path d="m13.5 405.17 0.83972 0.58428-0.29624-0.97914 0.8152-0.618-1.0228-0.0212-0.33588-0.96629-0.33588 0.96629-1.0228 0.0212 0.8152 0.618-0.29624 0.97914z" style="color:#000000;fill:#808080;stroke-width:.57143"/>
<path d="m7.5 414.17 0.83972 0.58428-0.29624-0.97914 0.8152-0.618-1.0228-0.0212-0.33588-0.96629-0.33588 0.96629-1.0228 0.0212 0.8152 0.618-0.29624 0.97914z" style="color:#000000;fill:#808080;stroke-width:.57143"/>
<path d="m10.5 403.17 0.83972 0.58428-0.29624-0.97914 0.8152-0.618-1.0228-0.0212-0.33588-0.96629-0.33588 0.96629-1.0228 0.0212 0.8152 0.618-0.29624 0.97914z" style="color:#000000;fill:#808080;stroke-width:.57143"/>
<path d="m3.5 417c-0.24733 0.0182-0.43965 0.07-0.53125 0.15625l1.7188 1.2188-0.375 1.3125-1.0312 0.59375-1.6875-1.0938c-0.0145 1.1398 0.90574 2.4942 1.9688 2.6562 1.063 0.16206 1.3796 0.0887 1.7812 0.5625 1.239 1.4883 2.5118 2.9489 3.75 4.4375 0.59375 0.67346 0.11389 2.2416 0.9375 3.3438 0.59394 0.79477 2.5711 1.0011 2.9375 0.65625l-1.7188-1.2188 0.40625-1.3125 1-0.59375 1.7188 1.0938c0.0145-1.1398-0.90574-2.4942-1.9688-2.6562-1.063-0.16206-1.3796-0.0887-1.7812-0.5625-1.2851-1.4573-2.5031-2.9738-3.7812-4.4375-0.59375-0.67346-0.0826-2.2416-0.90625-3.3438-0.44546-0.59608-1.6955-0.86704-2.4375-0.8125z" style="fill:#808080"/>
<path d="m1.5 444v-1l2.5-6.5h8l2.5 6.5v1" style="fill:#e0e0e0;stroke-width:1px;stroke:#808080"/>
<path d="m2 447 2.5-7.5h7l2.5 7.5" style="fill:#f0f0f0"/>
<path d="m6.5 432.5h3v4h3l-4.5 5-4.5-5h3z" style="fill:#ffffff;stroke-linejoin:round;stroke-width:1px;stroke:#808080"/>
<path d="m1.5 443.5h3l1 1h5l1-1h3v4h-13z" style="fill:#e0e0e0;stroke-linejoin:round;stroke-width:1px;stroke:#808080"/>
<path d="m8.7237 457.71s-0.16799-3.8637-0.88829-3.9751c-0.72031-0.11128-2.0646-0.34318-2.0646-0.34318l-2.574-0.0183s-1.6059 0.30253-2.1913 0.36362c-0.58533 0.0614-0.72932 3.9703-0.72932 3.9703 1.8509 1.0423 6.4608 1.078 8.4474 0z" style="fill-rule:evenodd;fill:#ffffff"/>
<path d="m3.125 452.89a0.50006 0.50006 0 0 0-0.03125 0.0312s-1.6152 0.29056-2.1251 0.34376c-0.34607 0.0362-0.53236 0.29444-0.62502 0.46876s-0.13408 0.32203-0.1875 0.53126c-0.07127 0.28001-0.10894 0.60002-0.1563 0.94002v2.9376a0.50006 0.50006 0 0 0 0.03125 0.0312c1.078 0.60706 2.7201 0.83917 4.4063 0.84377 1.6863 5e-3 3.3935-0.22637 4.5313-0.84377a0.50006 0.50006 0 0 0 0.25001-0.46876s-0.05154-0.99098-0.1875-2c-0.0678-0.51001-0.1487-1.01-0.28111-1.44-0.0662-0.21-0.1376-0.38001-0.25001-0.56001-0.1124-0.18-0.28941-0.39001-0.59381-0.44001-0.70949-0.1096-2.0626-0.34376-2.0626-0.34376a0.50006 0.50006 0 0 0-0.0625 0l-2.5938-0.03a0.50006 0.50006 0 0 0-0.0625 0zm0.15625 1 2.4063 0.0312h0.0625c0.08175 0.014 1.1855 0.19914 1.9062 0.31251 0.03464 0.0548 0.10539 0.17954 0.15625 0.34376 0.10173 0.32845 0.18595 0.80595 0.25001 1.2812 0.10382 0.77052 0.14208 1.267 0.15625 1.5312-0.88893 0.39404-2.3029 0.62896-3.7501 0.62502-1.4506-4e-3 -2.8624-0.24713-3.6876-0.62502 0.01181-0.26415 0.03821-0.81019 0.125-1.5938 0.05326-0.48078 0.13395-0.91785 0.21876-1.25 0.03646-0.14283 0.06557-0.25018 0.09375-0.31251 0.72481-0.0932 2.0626-0.34376 2.0626-0.34376z" style="color:#000000;fill-rule:evenodd;fill:#808080;text-indent:0;text-transform:none"/>
<path d="m5.7709 453.4-0.3365-0.76856c0.6108-0.58836 0.76705-1.1095 0.8631-2.0991 0.09599-0.99834-0.21426-2.0351-1.7978-2.0351-1.5839 0-2.0156 1.0635-1.8887 2.1047 0.12463 1.0233 0.33002 1.2111 0.82816 2.0398-0.02293 0.26757-0.10657 0.47369-0.24254 0.73436l-0.23284 0.11519s0.38398 1.1519 1.5359 1.1519 1.5359-1.1519 1.5359-1.1519z" style="fill-rule:evenodd;fill:#ffffff;stroke-linecap:round;stroke-linejoin:round;stroke:#808080"/>
<path d="m15.724 457.71s-0.16799-3.8637-0.88829-3.9751c-0.72031-0.11128-2.0646-0.34318-2.0646-0.34318l-2.574-0.0183s-1.6059 0.30253-2.1913 0.36362c-0.58533 0.0614-0.72932 3.9703-0.72932 3.9703 1.8509 1.0423 6.4608 1.078 8.4474 0z" style="fill-rule:evenodd;fill:#ffffff"/>
<path d="m10.156 452.89a0.50006 0.50006 0 0 0-0.0625 0.0312s-1.6152 0.29056-2.1251 0.34376c-0.34607 0.0362-0.50111 0.29444-0.59376 0.46876-0.09266 0.17432-0.16533 0.32203-0.21876 0.53126-0.10683 0.41848-0.16284 0.93273-0.21876 1.4375-0.11183 1.0096-0.15625 2-0.15625 2a0.50006 0.50006 0 0 0 0.25001 0.46876c1.078 0.60706 2.7201 0.83917 4.4063 0.84377 1.6863 5e-3 3.3935-0.22637 4.5313-0.84377a0.50006 0.50006 0 0 0 0.031-0.04v-2.8126c-0.05954-0.37578-0.15074-0.74204-0.25001-1.0625-0.06617-0.21366-0.13758-0.38469-0.25001-0.56251-0.11242-0.17782-0.25819-0.3905-0.56251-0.43751-0.70949-0.1096-2.0939-0.34376-2.0939-0.34376a0.50006 0.50006 0 0 0-0.09375 0l-2.5626-0.0312a0.50006 0.50006 0 0 0-0.03125 0zm0.125 1 2.4063 0.0312h0.0625c0.08174 0.014 1.1855 0.19914 1.9062 0.31251 0.03463 0.0548 0.10539 0.17954 0.15625 0.34376 0.10173 0.32845 0.1547 0.80595 0.21876 1.2812 0.1037 0.76959 0.14202 1.2661 0.15625 1.5312-0.88925 0.39321-2.3046 0.62896-3.7501 0.62502-1.4506-4e-3 -2.8312-0.24713-3.6563-0.62502 0.01181-0.26415 0.03821-0.81019 0.125-1.5938 0.05326-0.48078 0.13395-0.91785 0.21876-1.25 0.03646-0.14283 0.06557-0.25018 0.09375-0.31251 0.72481-0.0932 2.0626-0.34376 2.0626-0.34376z" style="color:#000000;fill-rule:evenodd;fill:#808080;text-indent:0;text-transform:none"/>
<path d="m12.771 453.4-0.3365-0.76856c0.6108-0.58836 0.76705-1.1095 0.8631-2.0991 0.09599-0.99834-0.21426-2.0351-1.7978-2.0351-1.5839 0-2.0156 1.0635-1.8887 2.1047 0.12463 1.0233 0.33002 1.2111 0.82816 2.0398-0.02293 0.26757-0.10657 0.47369-0.24254 0.73436l-0.23284 0.11519s0.38397 1.1519 1.5359 1.1519 1.5359-1.1519 1.5359-1.1519z" style="fill-rule:evenodd;fill:#ffffff;stroke-linecap:round;stroke-linejoin:round;stroke:#808080"/>
<path d="m6.6406 449.19c-0.7957 0.23422-1.4809 0.67921-1.9218 1.2812-0.67791 0.92563-0.77092 1.996-0.65625 2.9375 0.11524 0.94615 0.37178 1.591 0.6875 2.1875-0.65005 0.10779-1.1832 0.18896-1.4688 0.21875-0.91396 0.0954-1.2301 0.69981-1.4062 1.0312-0.17616 0.33144-0.26484 0.6284-0.34375 0.9375-0.07108 0.2784-0.11492 0.61805-0.16797 0.91407 0.91326 0.23301 1.9855 0.33296 3.0742 0.33593 1.2629 3e-3 2.554-0.11232 3.5938-0.4375 0.98035 0.30097 2.1811 0.43415 3.4062 0.4375 1.0883 3e-3 2.1765-0.0857 3.125-0.32031-0.06141-0.30181-0.12906-0.67137-0.21875-0.96094-0.09917-0.32018-0.19382-0.63275-0.40625-0.96875s-0.6149-0.82008-1.375-0.9375c-0.50014-0.0773-0.89031-0.14469-1.4688-0.25 0.38083-0.7136 0.6679-1.4666 0.75-2.3125 0.08239-0.84886 0.01367-1.8822-0.625-2.8125-0.41649-0.60668-1.1411-1.0485-1.9297-1.2812-0.22608 0.46019-0.23941 0.9784-0.17969 1.4688 0.11809 0.96958 0.38048 1.367 0.78125 2.0312-0.0096 0.0648-0.03675 0.15422-0.0625 0.21875-0.30131 0.0575-1.4454 0.29729-1.8906 0.34375-0.0098-2e-3 -0.02121 1e-3 -0.03125 0-0.62245-0.0962-1.5032-0.26724-1.7656-0.3125l-0.125-0.282c0.46966-0.57768 0.72798-1.1916 0.8125-2.0625 0.04325-0.44553 0.0064-0.95549-0.1875-1.4062z" style="color:#000000;fill-rule:evenodd;fill:#ffffff;text-indent:0;text-transform:none"/>
<path d="m13.5 462.5s-0.21875-5.0312-1.1567-5.1762c-0.93796-0.1449-2.6884-0.44688-2.6884-0.44688l-3.3518-0.0238s-2.0911 0.39395-2.8534 0.47349c-0.7622 0.08-0.9497 5.17-0.9497 5.17 2.4102 1.3573 8.413 1.4037 11 0z" style="fill-rule:evenodd;fill:#ffffff;stroke-linecap:round;stroke-linejoin:round;stroke:#808080"/>
<path d="m9.6549 456.88-0.43818-1.0008c0.79536-0.76615 0.99883-1.4448 1.1239-2.7334 0.125-1.3-0.279-2.65-2.341-2.65-2.0625 0-2.6246 1.3849-2.4594 2.7407 0.16229 1.3325 0.42974 1.577 1.0784 2.6562-0.02986 0.34842-0.13877 0.61682-0.31583 0.95626l-0.3032 0.15s0.5 1.5 2 1.5 2-1.5 2-1.5z" style="fill-rule:evenodd;fill:#ffffff;stroke-linecap:round;stroke-linejoin:round;stroke:#808080"/>
<path d="m13.5 477.5s-0.21875-5.0312-1.1567-5.1762c-0.93796-0.1449-2.6884-0.44688-2.6884-0.44688l-3.3518-0.0238s-2.0911 0.39395-2.8534 0.47349c-0.7622 0.08-0.9497 5.174-0.9497 5.174 2.4102 1.3573 8.413 1.4037 11 0z" style="fill-rule:evenodd;fill:#ffffff;stroke-linecap:round;stroke-linejoin:round;stroke:#808080"/>
<path d="m9.6549 471.88-0.43818-1.0008c0.79536-0.76615 0.99883-1.4448 1.1239-2.7334 0.125-1.289-0.279-2.643-2.341-2.643-2.0625 0-2.6246 1.3849-2.4594 2.7407 0.16229 1.3325 0.42974 1.577 1.0784 2.6562-0.02986 0.34842-0.13877 0.61682-0.31583 0.95626l-0.3032 0.147s0.5 1.5 2 1.5 2-1.5 2-1.5z" style="fill-rule:evenodd;fill:#ffffff;stroke-linecap:round;stroke-linejoin:round;stroke:#808080"/>
<path d="m11.5 492.5s-0.21875-5.0312-1.1567-5.1762c-0.93796-0.1449-2.6884-0.44688-2.6884-0.44688l-3.3518-0.0238s-2.0911 0.39395-2.8534 0.47349c-0.7622 0.08-0.9497 5.17-0.9497 5.17 2.4102 1.3573 8.413 1.4037 11 0z" style="fill-rule:evenodd;fill:#ffffff;stroke-linecap:round;stroke-linejoin:round;stroke:#808080"/>
<path d="m7.6549 486.88-0.43818-1.0008c0.79536-0.76615 0.99883-1.4448 1.1239-2.7334 0.125-1.3-0.279-2.65-2.341-2.65-2.0625 0-2.6246 1.3849-2.4594 2.7407 0.16229 1.3325 0.42974 1.577 1.0784 2.6562-0.02986 0.34842-0.13877 0.61682-0.31583 0.95626l-0.3032 0.15s0.5 1.5 2 1.5 2-1.5 2-1.5z" style="fill-rule:evenodd;fill:#ffffff;stroke-linecap:round;stroke-linejoin:round;stroke:#808080"/>
<path d="m8 487.5v6.4375c1.3177-0.13499 2.5511-0.41951 3.5-0.875v-4.6562c-0.03076-0.12061-0.05898-0.26275-0.09375-0.375-0.08386-0.27075-0.17786-0.50579-0.3125-0.71875s-0.356-0.44878-0.6875-0.5c-0.68651-0.10605-1.4968-0.23724-1.9883-0.31641-0.30717 0.28724-0.41787 0.69696-0.41792 1.0039z" style="color:#000000;fill:#ffffff;text-indent:0;text-transform:none"/>
<path d="m9.5 495.5 6-4-6-4z" style="fill:#c0c0c0;stroke-linejoin:round;stroke-width:1px;stroke:#808080"/>
<path d="m10.343 503.32c-0.93796-0.1449-2.6884-0.44688-2.6884-0.44688l-3.3518-0.0238s-2.0911 0.39395-2.8534 0.47349c-0.7619 0.09-0.9494 5.18-0.9494 5.18 1.8364 1.0341 5.7583 1.3073 8.666 0.75786 1.8005-0.85698 2.3122-5.5369 1.1773-5.934z" style="fill-rule:evenodd;fill:#ffffff;stroke-linecap:round;stroke-linejoin:round;stroke:#808080"/>
<path d="m7.6549 502.88-0.43818-1.0008c0.79536-0.76615 0.99883-1.4448 1.1239-2.7334 0.125-1.3-0.279-2.65-2.341-2.65-2.0625 0-2.6246 1.3849-2.4594 2.7407 0.16229 1.3325 0.42974 1.577 1.0784 2.6562-0.02986 0.34842-0.13877 0.61682-0.31583 0.95626l-0.3032 0.15s0.5 1.5 2 1.5 2-1.5 2-1.5z" style="fill-rule:evenodd;fill:#ffffff;stroke-linecap:round;stroke-linejoin:round;stroke:#808080"/>
<path d="m10.375 502.82-1.6562 1.7813-2.4688-1.4063c-0.5692-0.3482-1.3719-0.2531-1.8438 0.2187-0.47181 0.4719-0.5669 1.2746-0.21875 1.8438l2.7266 4.7656c1.8441-0.08 2.5419 0.0154 3.7656-0.64843 0.59469-1.3399 1.103-2.0632 1.1016-3.461-0.0879-0.6539-0.20738-1.3325-0.375-1.875-0.0838-0.2712-0.17795-0.5054-0.3125-0.7187s-0.35548-0.4487-0.6875-0.5h-0.0312z" style="color:#000000;fill-rule:evenodd;fill:#ffffff;text-indent:0;text-transform:none"/>
<path d="m5.5 504.5 4 7 6-12-6.5 7z" style="fill:#c0c0c0;stroke-linejoin:round;stroke-width:1px;stroke:#808080"/>
<path d="m11.5 524.5c-0.60666-3.2983-1.7549-3.7792-3.8451-5.623l-3.3518-0.0238s-2.0911 0.39395-2.8534 0.47349c-0.7622 0.08-0.9497 5.17-0.9497 5.17 2.4102 1.3573 8.413 1.4037 11 0z" style="fill-rule:evenodd;fill:#ffffff;stroke-linecap:round;stroke-linejoin:round;stroke:#808080"/>
<path d="m7.6549 518.88-0.43818-1.0008c0.79536-0.76615 0.99883-1.4448 1.1239-2.7334 0.125-1.3-0.279-2.65-2.341-2.65-2.0625 0-2.6246 1.3849-2.4594 2.7407 0.16229 1.3325 0.42974 1.577 1.0784 2.6562-0.02986 0.34842-0.13877 0.61682-0.31583 0.95626l-0.3032 0.15s0.5 1.5 2 1.5 2-1.5 2-1.5z" style="fill-rule:evenodd;fill:#ffffff;stroke-linecap:round;stroke-linejoin:round;stroke:#808080"/>
<path d="m8.457 517c-0.34009 0.037-0.7792 0.198-1.0195 0.4414l-2 2c-0.55748 0.5557-0.55748 1.5693 0 2.125l1.4375 1.4375-1.4375 1.4375c-0.40185 0.4005-0.51732 1.0486-0.33984 1.582 0.28025 0.012 0.55694 0.0105 0.83984 0.0115 2.1795 0.01 4.3745-0.3134 5.8125-1.0937 0.16192-0.093 0.26305-0.2825 0.25-0.4687 0 0-0.043-1.2547-0.21875-2.5626-1.3533-1.4139-2.0708-2.7603-3.7812-3.5l-0.1875-0.4258c0.27295-0.22091 0.51984-0.64417 0.64453-0.9843z" style="color:#000000;fill-rule:evenodd;fill:#ffffff;text-indent:0;text-transform:none"/>
<path d="m8.5 518.5-2 2 2.5 2.5-2.5 2.5 2 2 2.5-2.5 2.5 2.5 2-2-2.5-2.5 2.5-2.5-2-2-2.5 2.5z" style="fill:#c0c0c0;stroke-linejoin:round;stroke-width:1px;stroke:#808080"/>
<path d="m6.9376 532.82-5.6569 5.6569 1.4142 1.4142c1.0607-1.0607 2.4749 0.35356 1.4142 1.4142l1.4142 1.4142 5.6569-5.6569" style="fill:#ffffff"/>
<path d="m6.584 533.17-5.3033 5.3033 1.4142 1.4142c1.0607-1.0607 2.4749 0.35356 1.4142 1.4142l1.4142 1.4142 5.3033-5.3033" style="fill:none;stroke-linecap:round;stroke-linejoin:round;stroke-width:1px;stroke:#808080"/>
<path d="m7.9983 533.17a0.5 0.5 0 1 1-0.70711 0.70711 0.5 0.5 0 1 1 0.70711-0.70711z" style="color:#000000;fill:#808080"/>
<path d="m9.4125 534.58a0.5 0.5 0 1 1-0.70711 0.70711 0.5 0.5 0 1 1 0.70711-0.70711z" style="color:#000000;fill:#808080"/>
<path d="m10.827 536a0.5 0.5 0 1 1-0.70711 0.70711 0.5 0.5 0 1 1 0.70711-0.70711z" style="color:#000000;fill:#808080"/>
<path d="m6.9376 532.82 3.5356-3.5356 1.4142 1.4142c-1.0607 1.0607 0.35356 2.4749 1.4142 1.4142l1.4142 1.4142-3.5356 3.5356" style="fill:#e0e0e0"/>
<path d="m7.2911 532.46 3.182-3.182 1.4142 1.4142c-1.0607 1.0607 0.35356 2.4749 1.4142 1.4142l1.4142 1.4142-3.182 3.182" style="fill:none;stroke-linecap:round;stroke-linejoin:round;stroke-width:1px;stroke:#808080"/>
<path d="m7.9983 533.17a0.5 0.5 0 1 1-0.70711 0.70711 0.5 0.5 0 1 1 0.70711-0.70711z" style="color:#000000;fill:#808080"/>
<path d="m9.4125 534.58a0.5 0.5 0 1 1-0.70711 0.70711 0.5 0.5 0 1 1 0.70711-0.70711z" style="color:#000000;fill:#808080"/>
<path d="m10.827 536a0.5 0.5 0 1 1-0.70711 0.70711 0.5 0.5 0 1 1 0.70711-0.70711z" style="color:#000000;fill:#808080"/>
<rect x="6.5" y="545.5" width="8" height="8" ry=".5" style="color:#000000;fill-rule:evenodd;fill:#f5f5f5;stroke-linejoin:round;stroke:#d2d2d2"/>
<rect x="4.5" y="547.5" width="8" height="8" ry=".5" style="color:#000000;fill-rule:evenodd;fill:#e5e5e5;stroke-linejoin:round;stroke:#b2b2b2"/>
<path d="m3 549.02c-0.54535 0-1 0.45465-1 1v7c0 0.54535 0.45465 1 1 1h7c0.54535 0 1-0.45465 1-1v-5l-1 1.5v3.5h-7v-7h4l1-1z" style="color:#000000;fill:#808080;stroke-width:.5;text-indent:0;text-transform:none"/>
<path d="m10 557h-7v-7h7z" style="fill:#ffffff"/>
<path d="m4 552.5 1.25-1.25 1.75 1.75 3.5-4v1.5l-3.5 5z" style="fill:#808080"/>
<rect x="4.5" y="560.5" width="8" height="8" ry=".5" style="color:#000000;fill-rule:evenodd;fill:#f5f5f5;stroke-linejoin:round;stroke:#d2d2d2"/>
<rect x="2.5" y="562.5" width="8" height="8" ry=".5" style="color:#000000;fill-rule:evenodd;fill:#e5e5e5;stroke-linejoin:round;stroke:#b2b2b2"/>
<rect x=".5" y="564.5" width="8" height="8" ry=".5" style="color:#000000;fill-rule:evenodd;fill:#ffffff;stroke-linejoin:round;stroke:#808080"/>
<path d="m13 565.09c-0.21069 0.074-0.40219 0.19412-0.56055 0.35157l-1.4395 1.4394-1.3809-1.3809h-2.2383l-1.9414 1.9414c-0.58555 0.58579-0.58555 1.5353 0 2.1211l1.4395 1.4394-1.4395 1.4395c-0.1572 0.15779-0.2773 0.3486-0.35156 0.55859h7.9121z" style="color-rendering:auto;color:#000000;dominant-baseline:auto;fill:#ffffff;font-feature-settings:normal;font-variant-alternates:normal;font-variant-caps:normal;font-variant-ligatures:normal;font-variant-numeric:normal;font-variant-position:normal;image-rendering:auto;isolation:auto;mix-blend-mode:normal;shape-padding:0;shape-rendering:auto;solid-color:#000000;text-decoration-color:#000000;text-decoration-line:none;text-decoration-style:solid;text-indent:0;text-orientation:mixed;text-transform:none;white-space:normal"/>
<path d="m8.5 566.5-2 2 2.5 2.5-2.5 2.5 2 2 2.5-2.5 2.5 2.5 2-2-2.5-2.5 2.5-2.5-2-2-2.5 2.5z" style="fill:#c0c0c0;stroke-linejoin:round;stroke-width:1px;stroke:#808080"/>
<path d="m15 589.5c0 0.16016-0.5 0.5-1 0.5h-12.5c-0.36719 0-0.5-0.23047-0.5-0.5v-6c0-2 1.001-2.4454 2.5-2.5h3.5l0.5-1.5c0-0.5 4-0.5 4 0l0.5 1.5c2 0 3 0 3 2z" style="fill:#808080"/>
<path d="m13 585.5a3.5 3.5 0 1 1-7 0 3.5 3.5 0 1 1 7 0z" style="color:#000000;fill:none;stroke-width:1.5;stroke:#e0e0e0"/>
<path d="m11 597-6 6" style="fill:none;stroke-linecap:round;stroke-width:2;stroke:#808080"/>
<path d="m5 597 6 6" style="fill:none;stroke-linecap:round;stroke-width:2;stroke:#808080"/>
<path d="m9 621.04a1 1 0 1 1-2 0 1 1 0 1 1 2 0z" style="color:#000000;fill-rule:evenodd;fill:#808080"/>
<path d="m13 621.04a1 1 0 1 1-2 0 1 1 0 1 1 2 0z" style="color:#000000;fill-rule:evenodd;fill:#808080"/>
<path d="m5 621.04a1 1 0 1 1-2 0 1 1 0 1 1 2 0z" style="color:#000000;fill-rule:evenodd;fill:#808080"/>
<path d="m8.0118 627.02c0.38976 0 0.77953 0.0709 1.1339 0.14173 0.35433 0.1063 0.67323 0.24803 0.95669 0.4252 0.24803 0.2126 0.46063 0.46063 0.60236 0.77953 0.14173 0.28346 0.2126 0.6378 0.2126 1.0984 0 0.24803 0 0.49606-0.07087 0.74409-0.07087 0.2126-0.14173 0.4252-0.28346 0.60236-0.1063 0.2125-0.2835 0.3897-0.4606 0.5668-0.1772 0.1772-0.3544 0.3544-0.6024 0.567-0.1417 0.1063-0.3189 0.248-0.4252 0.3543-0.1063 0.1417-0.2126 0.2126-0.2835 0.3189-0.1063 0.1417-0.1417 0.248-0.1771 0.3543-0.0355 0.1418-0.0709 0.2481-0.0709 0.4252 0 0.1063 0 0.2126 0.035433 0.3189 0.035433 0.14173 0.070866 0.2126 0.1063 0.28346h-1.7362c-0.0354-0.1063-0.0708-0.2126-0.1063-0.3898-0.0354-0.1417-0.0354-0.2834-0.0354-0.4252 0-0.17717 0.035433-0.38976 0.070866-0.56693 0.0354-0.1417 0.0708-0.3189 0.1417-0.4606 0.1063-0.1418 0.2126-0.2835 0.3543-0.4252 0.1063-0.1418 0.248-0.2835 0.4252-0.4252 0.1417-0.1417 0.2835-0.248 0.4252-0.3898 0.1063-0.1063 0.2126-0.2126 0.3189-0.3543 0.0709-0.1063 0.1772-0.248 0.2126-0.3898 0.035433-0.14173 0.035433-0.28346 0.035433-0.4252 0-0.14173 0-0.24803-0.035433-0.38976-0.0709-0.1062-0.1417-0.2125-0.2126-0.3188-0.1063-0.0709-0.2126-0.1418-0.3543-0.1772-0.1418-0.0354-0.2835-0.0709-0.4252-0.0709-0.35433 0-0.74409 0.0709-1.0984 0.2126-0.3898 0.1418-0.7441 0.3544-1.063 0.6733v-2.0197c0.3189-0.2126 0.7086-0.3898 1.0984-0.4961 0.4252-0.1063 0.8504-0.1417 1.311-0.1417zm-0.1063 7.6888c0.35433 0 0.67323 0.14173 0.88583 0.35433 0.24803 0.17716 0.35433 0.4252 0.35433 0.74409 0 0.35433-0.1063 0.60236-0.35433 0.81496-0.2126 0.2126-0.5315 0.3189-0.88583 0.3189s-0.6378-0.1063-0.88583-0.3189c-0.2126-0.2126-0.3189-0.49606-0.3189-0.81496 0-0.28346 0.1063-0.56693 0.3189-0.74409 0.24803-0.2126 0.5315-0.35433 0.88583-0.35433z" style="fill:#808080"/>
<rect x=".5" y="624.51" width="15" height="15" ry="1.5" style="color:#000000;fill:none;stroke-linecap:square;stroke:#808080"/>
<path d="m3 641.5h10c1 0 1.5 0.5 1.5 1.5v7c0 1-0.5 1.5-1.5 1.5h-0.5v3l-3-3h-6.5c-1 0-1.5-0.5-1.5-1.5v-7c0-1 0.5-1.5 1.5-1.5z" style="color:#000000;fill:#ffffff;stroke-linejoin:round;stroke:#808080"/>
<path d="m4.5 644.5h7" style="fill:none;stroke-linecap:square;stroke-width:1px;stroke:#808080"/>
<path d="m4.5 646.5h7" style="fill:none;stroke-linecap:square;stroke-width:1px;stroke:#808080"/>
<path d="m4.5 648.5h7" style="fill:none;stroke-linecap:square;stroke-width:1px;stroke:#808080"/>
<path d="m4.5 668.5h2v-3h3v3h2v-5h1.5l-5-5-5 5h1.5z" style="fill:#808080;stroke:#404040"/>
<path d="m6.1882 673.24a6.9999 6.9999 0 0 1 1.8117-0.23852v6.9999z" style="color:#000000;fill-rule:evenodd;fill:#ff0000;stroke-width:.028571"/>
<path d="m4.5 673.94a6.9999 6.9999 0 0 1 1.6882-0.6993l1.8117 6.7613z" style="color:#000000;fill-rule:evenodd;fill:#ff4200;stroke-width:.028571"/>
<path d="m3.0503 675.05a6.9999 6.9999 0 0 1 1.4497-1.1124l3.4999 6.0622z" style="color:#000000;fill-rule:evenodd;fill:#ff7e00;stroke-width:.028571"/>
<path d="m1.9377 676.5a6.9999 6.9999 0 0 1 1.1124-1.4497l4.9496 4.9496z" style="color:#000000;fill-rule:evenodd;fill:#ffc000;stroke-width:.028571"/>
<path d="m1.2386 678.19a6.9999 6.9999 0 0 1 0.6993-1.6882l6.0622 3.4999z" style="color:#000000;fill-rule:evenodd;fill:#fcff00;stroke-width:.028571"/>
<path d="m1 680a6.9999 6.9999 0 0 1 0.23852-1.8117l6.7613 1.8117z" style="color:#000000;fill-rule:evenodd;fill:#c0ff00;stroke-width:.028571"/>
<path d="m1.2386 681.81a6.9999 6.9999 0 0 1-0.23852-1.8117h6.9999z" style="color:#000000;fill-rule:evenodd;fill:#7eff00;stroke-width:.028571"/>
<path d="m1.9377 683.5a6.9999 6.9999 0 0 1-0.6993-1.6882l6.7613-1.8117z" style="color:#000000;fill-rule:evenodd;fill:#3cff00;stroke-width:.028571"/>
<path d="m3.0503 684.95a6.9999 6.9999 0 0 1-1.1124-1.4497l6.0622-3.4999z" style="color:#000000;fill-rule:evenodd;fill:#00ff00;stroke-width:.028571"/>
<path d="m4.5 686.07a6.9999 6.9999 0 0 1-1.4497-1.1126l4.9496-4.9496z" style="color:#000000;fill-rule:evenodd;fill:#00ff42;stroke-width:.028571"/>
<path d="m6.1882 686.76a6.9999 6.9999 0 0 1-1.6882-0.6993l3.4999-6.0622z" style="color:#000000;fill-rule:evenodd;fill:#00ff84;stroke-width:.028571"/>
<path d="m7.9999 687a6.9999 6.9999 0 0 1-1.8117-0.23852l1.8117-6.7613z" style="color:#000000;fill-rule:evenodd;fill:#00ffc0;stroke-width:.028571"/>
<path d="m9.8116 686.76a6.9999 6.9999 0 0 1-1.8117 0.23852v-6.9999z" style="color:#000000;fill-rule:evenodd;fill:#00fcff;stroke-width:.028571"/>
<path d="m11.5 686.07a6.9999 6.9999 0 0 1-1.6882 0.6993l-1.8117-6.7616z" style="color:#000000;fill-rule:evenodd;fill:#00baff;stroke-width:.028571"/>
<path d="m12.95 684.95a6.9999 6.9999 0 0 1-1.4497 1.1124l-3.4999-6.0622z" style="color:#000000;fill-rule:evenodd;fill:#007eff;stroke-width:.028571"/>
<path d="m14.062 683.5a6.9999 6.9999 0 0 1-1.1124 1.4497l-4.9496-4.9496z" style="color:#000000;fill-rule:evenodd;fill:#003cff;stroke-width:.028571"/>
<path d="m14.761 681.81a6.9999 6.9999 0 0 1-0.6993 1.6882l-6.0622-3.4999z" style="color:#000000;fill-rule:evenodd;fill:#0600ff;stroke-width:.028571"/>
<path d="m15 680a6.9999 6.9999 0 0 1-0.23857 1.8117l-6.7613-1.8117z" style="color:#000000;fill-rule:evenodd;fill:#4200ff;stroke-width:.028571"/>
<path d="m14.761 678.19a6.9999 6.9999 0 0 1 0.23852 1.8117h-6.9999z" style="color:#000000;fill-rule:evenodd;fill:#8400ff;stroke-width:.028571"/>
<path d="m14.062 676.5a6.9999 6.9999 0 0 1 0.6993 1.6882l-6.7613 1.8117z" style="color:#000000;fill-rule:evenodd;fill:#c600ff;stroke-width:.028571"/>
<path d="m12.95 675.05a6.9999 6.9999 0 0 1 1.1124 1.4497l-6.0622 3.4999z" style="color:#000000;fill-rule:evenodd;fill:#ff00fc;stroke-width:.028571"/>
<path d="m11.5 673.94a6.9999 6.9999 0 0 1 1.4497 1.1124l-4.9496 4.9496z" style="color:#000000;fill-rule:evenodd;fill:#ff00ba;stroke-width:.028571"/>
<path d="m9.8116 673.24a6.9999 6.9999 0 0 1 1.6882 0.6993l-3.4999 6.0619z" style="color:#000000;fill-rule:evenodd;fill:#ff0078;stroke-width:.028571"/>
<path d="m7.9999 673a6.9999 6.9999 0 0 1 1.8117 0.23852l-1.8117 6.7613z" style="color:#000000;fill-rule:evenodd;fill:#ff003c;stroke-width:.028571"/>
<path d="m15 680a6.9999 6.9999 0 1 1-14 0 6.9999 6.9999 0 1 1 14 0z" style="color:#000000;fill-rule:evenodd;fill:url(#radialGradient4281);stroke-width:.028571"/>
<path d="m4 691v10" style="fill:none;stroke-linecap:square;stroke-width:2;stroke:#808080"/>
<path d="m12 691-4 5 4 5" style="fill:none;stroke-linecap:square;stroke-width:2;stroke:#808080"/>
<path d="m12 707v10" style="fill:none;stroke-linecap:square;stroke-width:2;stroke:#808080"/>
<path d="m4 707 4 5-4 5" style="fill:none;stroke-linecap:square;stroke-width:2;stroke:#808080"/>
<path d="m0.5 733.5h15v-9h-7c0-1.5-0.5-2-2-2h-4c-1.5 0-2 0.5-2 2z" style="fill-rule:evenodd;fill:#ffffff;stroke-linejoin:round;stroke-width:1px;stroke:#c0c0c0"/>
<path d="m6.5 724.5h-4" style="fill:#ffffff;stroke-linecap:round;stroke-width:1px;stroke:#c0c0c0"/>
<path d="m2.5 741.5h13v5h-13c-1.108 0-2-0.892-2-2v-1c0-1.108 0.892-2 2-2z" style="fill:#ffffff;stroke-linecap:round;stroke-linejoin:round;stroke:#c0c0c0"/>
<path d="m3.5 744a0.5 0.5 0 1 1-1 0 0.5 0.5 0 1 1 1 0z" style="fill:#ffffff;stroke-linecap:round;stroke-linejoin:round;stroke:#c0c0c0"/>
<path d="m15.5 759.5-1 2-1-1-1 1-1-1-1 1h-1.1562l-0.84375-1-1 1h-1c-0.5 1-1.5 2-3.5 2-1 0-2.5-1-2.5-2v-3c0-1 1.5-2 2.5-2 2 0 3 1 3.5 2h8l1 1z" style="fill-rule:evenodd;fill:#ffffff;stroke-linecap:round;stroke-linejoin:round;stroke-width:1px;stroke:#c0c0c0"/>
<path d="m3.5 760a0.5 0.5 0 1 1-1 0 0.5 0.5 0 1 1 1 0z" style="fill:#ffffff;stroke-linecap:square;stroke-linejoin:round;stroke:#c0c0c0"/>
<rect x=".5" y="772.5" width="8" height="7" rx="3.5" ry="3" style="color:#000000;fill-rule:evenodd;fill:#ffffff;stroke-linecap:square;stroke:#c0c0c0"/>
<rect x="3.5" y="775.5" width="2" height="1" rx=".5" ry=".5" style="color:#000000;fill-rule:evenodd;fill:#ffffff;stroke-linecap:square;stroke:#c0c0c0"/>
<rect x="7.5" y="772.5" width="8" height="7" rx="3.5" ry="3" style="color:#000000;fill-rule:evenodd;fill:#ffffff;stroke-linecap:square;stroke:#c0c0c0"/>
<rect x="10.5" y="775.5" width="2" height="1" rx=".5" ry=".5" style="color:#000000;fill-rule:evenodd;fill:#ffffff;stroke-linecap:square;stroke:#c0c0c0"/>
<rect x="4.5" y="774.5" width="7" height="3" rx="1.5" ry="1.4688" style="color:#000000;fill-rule:evenodd;fill:#ffffff;stroke-linecap:square;stroke:#c0c0c0"/>
<path d="m15.5 787.5-1 2-1-1-1 1-1-1-1 1h-1.1562l-0.84375-1-1 1h-1c-0.5 1-1.5 2-3.5 2-1 0-2.5-1-2.5-2v-3c0-1 1.5-2 2.5-2 2 0 3 1 3.5 2h8l1 1z" style="fill-rule:evenodd;fill:#ffffff;stroke-linecap:round;stroke-linejoin:round;stroke-width:1px;stroke:#c0c0c0"/>
<path d="m3.5 788a0.5 0.5 0 1 1-1 0 0.5 0.5 0 1 1 1 0z" style="fill:#ffffff;stroke-linecap:square;stroke-linejoin:round;stroke:#c0c0c0"/>
<rect x=".5" y="792.5" width="8" height="7" rx="3.5" ry="3" style="color:#000000;fill-rule:evenodd;fill:#ffffff;stroke-linecap:square;stroke:#c0c0c0"/>
<rect x="3.5" y="795.5" width="2" height="1" rx=".5" ry=".5" style="color:#000000;fill-rule:evenodd;fill:#ffffff;stroke-linecap:square;stroke:#c0c0c0"/>
<rect x="7.5" y="792.5" width="8" height="7" rx="3.5" ry="3" style="color:#000000;fill-rule:evenodd;fill:#ffffff;stroke-linecap:square;stroke:#c0c0c0"/>
<rect x="10.5" y="795.5" width="2" height="1" rx=".5" ry=".5" style="color:#000000;fill-rule:evenodd;fill:#ffffff;stroke-linecap:square;stroke:#c0c0c0"/>
<rect x="4.5" y="794.5" width="7" height="3" rx="1.5" ry="1.4688" style="color:#000000;fill-rule:evenodd;fill:#ffffff;stroke-linecap:square;stroke:#c0c0c0"/>
<path d="m8.5 812.5v-8" style="fill:none;stroke-linecap:round;stroke-linejoin:round;stroke:#808080"/>
<path d="m11.5 806.5-3-3-3 3" style="fill:none;stroke-linecap:round;stroke-width:1px;stroke:#808080"/>
<path d="m8.5 819.5v8" style="fill:none;stroke-linecap:round;stroke-linejoin:round;stroke:#808080"/>
<path d="m5.5 825.5 3 3 3-3" style="fill:none;stroke-linecap:round;stroke-width:1px;stroke:#808080"/>
<path d="m12.5 839.5h-8" style="fill:none;stroke-linecap:round;stroke-linejoin:round;stroke:#808080"/>
<path d="m6.5 836.5-3 3 3 3" style="fill:none;stroke-linecap:round;stroke-width:1px;stroke:#808080"/>
<path d="m3.5 855.5h8" style="fill:none;stroke-linecap:round;stroke-linejoin:round;stroke:#808080"/>
<path d="m9.5 852.5 3 3-3 3" style="fill:none;stroke-linecap:round;stroke-width:1px;stroke:#808080"/>
<path d="m13.5 871.5h-8" style="fill:none;stroke-linecap:round;stroke-linejoin:round;stroke:#808080"/>
<path d="m7.5 868.5-3 3 3 3" style="fill:none;stroke-linecap:round;stroke-width:1px;stroke:#808080"/>
<path d="m4.5 868.5-3 3 3 3" style="fill:none;stroke-linecap:round;stroke-width:1px;stroke:#808080"/>
<path d="m2.5 887.5h8" style="fill:none;stroke-linecap:round;stroke-linejoin:round;stroke:#808080"/>
<path d="m8.5 884.5 3 3-3 3" style="fill:none;stroke-linecap:round;stroke-width:1px;stroke:#808080"/>
<path d="m11.5 884.5 3 3-3 3" style="fill:none;stroke-linecap:round;stroke-width:1px;stroke:#808080"/>
<rect x="3.5" y="899.5" width="9" height="8.9999" style="color:#000000;fill-rule:evenodd;fill:#ffffff;stroke-linecap:round;stroke:#808080"/>
<path d="m5.5 906.5 5-5" style="fill:none;stroke-width:1px;stroke:#808080"/>
<path d="m5.5 901.5 5 5" style="fill:none;stroke-width:1px;stroke:#808080"/>
<rect x="5.5" y="913.5" width="9" height="8.9999" style="color:#000000;fill-rule:evenodd;fill:#ffffff;stroke-linecap:round;stroke:#808080"/>
<rect x="2.5" y="916.5" width="9" height="8.9999" style="color:#000000;fill-rule:evenodd;fill:#ffffff;stroke-linecap:round;stroke:#808080"/>
<path d="m4.5 923.5 5-5" style="fill:none;stroke-width:1px;stroke:#808080"/>
<path d="m4.5 918.5 5 5" style="fill:none;stroke-width:1px;stroke:#808080"/>
<path d="m5.5 915.5h7v7" style="fill:none;stroke-linecap:square;stroke-width:1px;stroke:#ffffff"/>
<path d="m8.5 941.5v-8" style="fill:none;stroke-linecap:round;stroke-linejoin:round;stroke:#808080"/>
<path d="m5.5 935.5 3-3 3 3" style="fill:none;stroke-linecap:round;stroke-width:1px;stroke:#808080"/>
<path d="m5.5 932.5 3-3 3 3" style="fill:none;stroke-linecap:round;stroke-width:1px;stroke:#808080"/>
<path d="m8.5 946.5v8" style="fill:none;stroke-linecap:round;stroke-linejoin:round;stroke:#808080"/>
<path d="m5.5 952.5 3 3 3-3" style="fill:none;stroke-linecap:round;stroke-width:1px;stroke:#808080"/>
<path d="m5.5 955.5 3 3 3-3" style="fill:none;stroke-linecap:round;stroke-width:1px;stroke:#808080"/>
<path d="m8 960.5c-4.1246 0-7.5 3.3754-7.5 7.5s3.3754 7.5 7.5 7.5 7.5-3.3754 7.5-7.5-3.3754-7.5-7.5-7.5z" style="fill:none;stroke:#808080"/>
<rect x="7" y="967" width="2" height="6" ry="0" style="color:#000000;fill:#808080"/>
<rect x="7" y="963" width="2" height="2" style="color:#000000;fill:#808080"/>
<rect y="976" width="4" height="4" style="fill:#808080"/>
<rect x="12" y="976" width="4" height="4" style="fill:#808080"/>
<rect x="6" y="976" width="4" height="4" style="fill:#808080"/>
<rect y="982" width="4" height="4" style="fill:#808080"/>
<rect x="12" y="982" width="4" height="4" style="fill:#808080"/>
<rect x="6" y="982" width="4" height="4" style="fill:#808080"/>
<rect y="988" width="4" height="4" style="fill:#808080"/>
<rect x="12" y="988" width="4" height="4" style="fill:#808080"/>
<rect x="6" y="988" width="4" height="4" style="fill:#808080"/>
<path d="m14 1005h-12" style="fill:none;stroke-linecap:square;stroke-width:2;stroke:#808080"/>
<path d="m14 1e3h-12" style="fill:none;stroke-linecap:square;stroke-width:2;stroke:#808080"/>
<path d="m14 995h-12" style="fill:none;stroke-linecap:square;stroke-width:2;stroke:#808080"/>
<rect x="2.5" y="1010.5" width="11" height="11" ry="2" style="color:#000000;fill:#f8f8f8;stroke-linecap:square;stroke-linejoin:round;stroke:#808080"/>
<path d="m6 1031h4v-2l3 3-3 3v-2h-4v2l-3-3 3-3z" style="fill:#808080"/>
<path d="m0 1026.5h0.5c1.108 0 2 0.892 2 2v7c0 1.108-0.892 2-2 2h-0.5" style="fill:#f8f8f8;stroke-linejoin:round;stroke:#808080"/>
<path d="m16 1026.5h-0.5c-1.108 0-2 0.892-2 2v7c0 1.108 0.892 2 2 2h0.5" style="fill:#f8f8f8;stroke-linejoin:round;stroke:#808080"/>
<path d="m0 1042.5h13.5c1.108 0 2 0.892 2 2v7c0 1.108-0.892 2-2 2h-13.5" style="fill:#f8f8f8;stroke-linejoin:round;stroke:#808080"/>
<path d="m6 1047h6l-3 3z" style="fill-rule:evenodd;fill:#808080"/>
<rect x=".5" y="1057.5" width="15" height="13" style="color:#000000;fill:none;stroke-dasharray:1, 1;stroke-dashoffset:1.5;stroke:#808080"/>
<path d="m2.5 1059.5h7" style="fill:none;stroke-linecap:square;stroke-width:1px;stroke:#808080"/>
<rect y="1075.5" width="16" height="9" style="color:#000000;fill:#f8f8f8"/>
<path d="m0.5 1075.5h15" style="fill:none;stroke-linecap:square;stroke-width:1px;stroke:#c0c0c0"/>
<path d="m0.5 1084.5h15" style="fill:none;stroke-linecap:square;stroke-width:1px;stroke:#c0c0c0"/>
<path d="m12 1083v-6l3 3z" style="fill-rule:evenodd;fill:#808080"/>
<rect y="1091.5" width="16" height="9" style="color:#000000;fill:#f8f8f8"/>
<path d="m0.5 1091.5h15" style="fill:none;stroke-linecap:square;stroke-width:1px;stroke:#c0c0c0"/>
<path d="m0.5 1100.5h15" style="fill:none;stroke-linecap:square;stroke-width:1px;stroke:#c0c0c0"/>
<path d="m3 1105.5h10c1 0 1.5 0.5 1.5 1.5v7c0 1-0.5 1.5-1.5 1.5h-0.5v3l-3-3h-6.5c-1 0-1.5-0.5-1.5-1.5v-7c0-1 0.5-1.5 1.5-1.5z" style="color:#000000;fill:#ffffff;stroke-linejoin:round;stroke-width:3;stroke:#ffffff"/>
<path d="m3 1105.5h10c1 0 1.5 0.5 1.5 1.5v7c0 1-0.5 1.5-1.5 1.5h-0.5v3l-3-3h-6.5c-1 0-1.5-0.5-1.5-1.5v-7c0-1 0.5-1.5 1.5-1.5z" style="color:#000000;fill:#ffffff;stroke-linejoin:round;stroke:#808080"/>
<path d="m4.5 1108.5h7" style="fill:none;stroke-linecap:square;stroke-width:1px;stroke:#808080"/>
<path d="m4.5 1110.5h7" style="fill:none;stroke-linecap:square;stroke-width:1px;stroke:#808080"/>
<path d="m4.5 1112.5h7" style="fill:none;stroke-linecap:square;stroke-width:1px;stroke:#808080"/>
<path d="m8.7188 1120c-0.48952 0-1.0214 0.2267-1.375 0.5625-0.41851 0.3359-0.63271 0.9048-0.73181 1.2812-0.099103 0.3764-0.135 0.9589-0.33069 1.25-0.20341 0.293-1.4249 1.9052-1.5625 1.9062h-2.7188c-0.52232 0-0.99536 0.4777-1 1v7c0.00464 0.5223 0.47768 0.9954 1 1h3.2188c0.10147-1e-3 0.63835 0.2139 0.75 0.25 0.59669 0.2145 1.2329 0.3808 1.7812 0.5313 0.54504 0.1311 1.1243 0.2187 1.7188 0.2187h1c0.95134 0 1.8317-0.3101 2.4688-0.9062 0.64922-0.6076 0.97566-1.5113 0.96875-2.4375 0.21706-0.452 0.46874-0.9045 0.46875-1.4062-2e-6 -0.018 0.0074-0.1782 0-0.3438 0.13232-0.3732 0.28124-0.7503 0.28125-1.125-8e-6 -0.1564-0.03611-0.3261-0.0625-0.5 0.18344-0.4262 0.37499-0.859 0.375-1.3125-1.6e-5 -0.7844-0.23943-1.5131-0.875-2.0938s-1.4534-0.8649-2.25-0.875c0.28631-0.816 0.05478-1.8018-0.25-2.4375s-0.71686-0.96-1.25-1.2188c-0.50884-0.2469-1.0635-0.3437-1.625-0.3437z" style="fill:#ffffff"/>
<path d="m3.8474 1131.8c0.099119-0.099 0.14868-0.216 0.14868-0.3514-2e-6 -0.1354-0.049491-0.2527-0.14847-0.3516-0.09898-0.099-0.21619-0.1485-0.35162-0.1485-0.13544 0-0.25257 0.05-0.35141 0.1485-0.098837 0.099-0.14826 0.2162-0.14825 0.3516-1e-6 0.1354 0.049417 0.2526 0.14825 0.3514 0.098835 0.099 0.21597 0.1483 0.35141 0.1483s0.25257-0.049 0.35141-0.1483zm9.1291-4.8514c-1.1e-5 -0.2658-0.10155-0.4989-0.30463-0.6994-0.2031-0.2005-0.4348-0.3008-0.69513-0.3008h-2.7502c-7.3e-6 -0.3022 0.12503-0.7176 0.37512-1.2463 0.25007-0.5286 0.37511-0.9465 0.37512-1.2535-8e-6 -0.5104-0.083392-0.888-0.25015-1.1328-0.16678-0.2448-0.5001-0.3672-0.99997-0.3672-0.13559 0.1353-0.23456 0.3566-0.29694 0.6639-0.062384 0.3074-0.14178 0.6342-0.23819 0.9806-0.096421 0.3463-0.25144 0.6314-0.46506 0.8553-0.11451 0.1199-0.31503 0.3569-0.60156 0.711-0.020798 0.026-0.080683 0.1044-0.17966 0.2345-0.098984 0.1302-0.18101 0.2369-0.24609 0.3202-0.065089 0.083-0.15488 0.194-0.26938 0.332-0.11451 0.138-0.21868 0.2526-0.31253 0.3437-0.093856 0.091-0.19412 0.1836-0.30078 0.2773-0.10667 0.094-0.21085 0.1641-0.31253 0.2111-0.10169 0.047-0.19412 0.071-0.27728 0.071h-0.2258v5l0.22662-2e-4c0.067786-1e-4 0.14982 0.01 0.24609 0.024 0.096269 0.016 0.18215 0.033 0.25763 0.051 0.075476 0.018 0.17445 0.047 0.29694 0.086 0.12247 0.039 0.21362 0.069 0.27344 0.09 0.05981 0.021 0.15224 0.054 0.27728 0.098s0.20066 0.072 0.22687 0.082c1.0989 0.3802 1.9894 0.5703 2.6716 0.5703h0.9455c1 0 1.5001-0.4349 1.5001-1.3048-1e-5 -0.1353-0.01311-0.2811-0.03931-0.4375 0.15636-0.083 0.28012-0.2198 0.37128-0.4099 0.09114-0.1901 0.13671-0.3815 0.13672-0.5742-1e-5 -0.1927-0.04687-0.3724-0.14056-0.539 0.27599-0.2606 0.41399-0.5705 0.414-0.9297-1.1e-5 -0.1304-0.02607-0.2751-0.07819-0.4339-0.05213-0.1587-0.11722-0.2824-0.19525-0.371 0.16662 0 0.3059-0.1275 0.41785-0.367 0.11193-0.2396 0.1679-0.4505 0.16791-0.6328zm1.0002-0.01c-1.2e-5 0.4637-0.12762 0.8883-0.38281 1.2736 0.0467 0.1718 0.07006 0.3515 0.07007 0.5392-1.1e-5 0.401-0.09885 0.776-0.29651 1.1249 0.01537 0.1094 0.02306 0.2213 0.02307 0.3358-1.2e-5 0.5261-0.15624 0.9896-0.46869 1.3907 0.0054 0.724-0.21591 1.2957-0.66394 1.715-0.44805 0.4193-1.0392 0.6289-1.7735 0.6289h-1.0079c-0.49988 0-0.99335-0.059-1.4804-0.1758-0.48707-0.1172-1.0509-0.2879-1.6915-0.5121-0.6038-0.2-0.9631-0.31-1.0776-0.31h-3.2266v-7l3.1172 1e-4c0.18742-0.125 0.54417-0.5286 1.0703-1.2108 0.3022-0.3907 0.58091-0.7241 0.83612-1.0002 0.12475-0.1301 0.21711-0.3528 0.27707-0.668 0.059951-0.3151 0.13942-0.6445 0.2384-0.9882 0.098973-0.3436 0.2604-0.6248 0.48428-0.8436 0.20308-0.1928 0.43749-0.2892 0.70325-0.2892 0.43749 0 0.8307 0.085 1.1796 0.254 0.34891 0.1693 0.61451 0.4337 0.79681 0.793 0.18228 0.3593 0.27343 0.8437 0.27344 1.4533-9e-6 0.4842-0.12505 0.984-0.37512 1.4996h1.3753c0.54145 0 1.0101 0.1979 1.4061 0.5938 0.3959 0.3959 0.59386 0.8621 0.59387 1.3984z" style="fill:#808080"/>
<path d="m8.7188 1152c-0.48952 0-1.0214-0.2267-1.375-0.5625-0.41851-0.3359-0.63271-0.9048-0.73181-1.2812-0.099103-0.3764-0.135-0.9589-0.33069-1.25-0.20341-0.293-1.4249-1.9052-1.5625-1.9062h-2.7188c-0.52232 0-0.99536-0.4777-1-1v-7c0.00464-0.5223 0.47768-0.9954 1-1h3.2188c0.10147 1e-3 0.63835-0.2139 0.75-0.25 0.59669-0.2145 1.2329-0.3808 1.7812-0.5312 0.54504-0.1312 1.1243-0.2188 1.7188-0.2188h1c0.95134 0 1.8317 0.3101 2.4688 0.9063 0.64922 0.6075 0.97566 1.5112 0.96875 2.4375 0.21706 0.4519 0.46874 0.9044 0.46875 1.4062-2e-6 0.018 0.0074 0.1781 0 0.3437 0.13232 0.3732 0.28124 0.7503 0.28125 1.125-8e-6 0.1564-0.03611 0.3261-0.0625 0.5 0.18344 0.4262 0.37499 0.859 0.375 1.3125-1.6e-5 0.7844-0.23943 1.5131-0.875 2.0938s-1.4534 0.8649-2.25 0.875c0.28631 0.816 0.05478 1.8018-0.25 2.4375s-0.71686 0.96-1.25 1.2188c-0.50884 0.2469-1.0635 0.3437-1.625 0.3437z" style="fill:#ffffff"/>
<path d="m3.8474 1144.2c0.099119 0.099 0.14868 0.216 0.14868 0.3514-2e-6 0.1354-0.049491 0.2527-0.14847 0.3516-0.09898 0.099-0.21619 0.1485-0.35162 0.1485-0.13544 0-0.25257-0.05-0.35141-0.1485-0.098837-0.099-0.14826-0.2162-0.14825-0.3516-1e-6 -0.1354 0.049417-0.2526 0.14825-0.3514 0.098835-0.099 0.21597-0.1482 0.35141-0.1482s0.25257 0.049 0.35141 0.1482zm9.1291 0.8514c-1.1e-5 0.2657-0.10155 0.4989-0.30463 0.6994-0.2031 0.2005-0.4348 0.3008-0.69513 0.3008h-2.7502c-7.3e-6 0.3022 0.12503 0.7176 0.37512 1.2463 0.25007 0.5286 0.37511 0.9465 0.37512 1.2535-8e-6 0.5104-0.083392 0.888-0.25015 1.1328-0.16678 0.2448-0.5001 0.3672-0.99997 0.3672-0.13559-0.1353-0.23456-0.3566-0.29694-0.664-0.062384-0.3073-0.14178-0.6341-0.23819-0.9805-0.096421-0.3463-0.25144-0.6315-0.46506-0.8553-0.11451-0.12-0.31503-0.3569-0.60156-0.711-0.020798-0.026-0.080683-0.1044-0.17966-0.2345-0.098984-0.1302-0.18101-0.2369-0.24609-0.3202-0.065089-0.083-0.15488-0.194-0.26938-0.332-0.11451-0.138-0.21868-0.2526-0.31253-0.3437-0.093856-0.091-0.19412-0.1836-0.30078-0.2773-0.10667-0.094-0.21085-0.1641-0.31253-0.2111-0.10169-0.047-0.19412-0.071-0.27728-0.071h-0.2258v-5l0.22662 2e-4c0.067786 1e-4 0.14982-0.01 0.24609-0.024 0.096269-0.016 0.18215-0.033 0.25763-0.051 0.075476-0.018 0.17445-0.047 0.29694-0.086 0.12247-0.039 0.21362-0.069 0.27344-0.09 0.05981-0.021 0.15224-0.054 0.27728-0.098s0.20066-0.072 0.22687-0.082c1.0989-0.3802 1.9894-0.5704 2.6716-0.5704h0.9455c1 0 1.5001 0.435 1.5001 1.3048-1e-5 0.1353-0.01311 0.2812-0.03931 0.4375 0.15636 0.083 0.28012 0.2199 0.37128 0.41 0.09114 0.1901 0.13671 0.3815 0.13672 0.5742-1e-5 0.1927-0.04687 0.3724-0.14056 0.539 0.27599 0.2606 0.41399 0.5705 0.414 0.9297-1.1e-5 0.1304-0.02607 0.275-0.07819 0.4338-0.05213 0.1588-0.11722 0.2825-0.19525 0.3711 0.16662 0 0.3059 0.1275 0.41785 0.367 0.11193 0.2395 0.1679 0.4505 0.16791 0.6327zm1.0002 0.01c-1.2e-5 -0.4637-0.12762-0.8883-0.38281-1.2736 0.0467-0.1718 0.07006-0.3515 0.07007-0.5392-1.1e-5 -0.4011-0.09885-0.776-0.29651-1.1249 0.01537-0.1094 0.02306-0.2213 0.02307-0.3358-1.2e-5 -0.5261-0.15624-0.9897-0.46869-1.3907 0.0054-0.7241-0.21591-1.2957-0.66394-1.715-0.44805-0.4193-1.0392-0.6289-1.7735-0.6289h-1.0079c-0.49988 0-0.99335 0.059-1.4804 0.1758-0.48707 0.1172-1.0509 0.2879-1.6915 0.512-0.60413 0.2083-0.96344 0.3124-1.0779 0.3124h-3.2263v7l3.1172-1e-4c0.18742 0.125 0.54417 0.5286 1.0703 1.2108 0.3022 0.3907 0.58091 0.7241 0.83612 1.0002 0.12475 0.1301 0.21711 0.3528 0.27707 0.668 0.059951 0.3151 0.13942 0.6445 0.2384 0.9882 0.098973 0.3436 0.2604 0.6248 0.48428 0.8436 0.20308 0.1928 0.43749 0.2892 0.70325 0.2892 0.43749 0 0.8307-0.085 1.1796-0.254 0.34891-0.1693 0.61451-0.4337 0.79681-0.793 0.18228-0.3593 0.27343-0.8437 0.27344-1.4533-9e-6 -0.4842-0.12505-0.984-0.37512-1.4995h1.3753c0.54145-1e-4 1.0101-0.198 1.4061-0.5939 0.3959-0.3959 0.59386-0.8621 0.59387-1.3984z" style="fill:#808080"/>
<path d="m8 1154 1.4501 4.5041 4.7318-0.013-3.8356 2.771 1.4743 4.4962-3.82-2.8-3.8206 2.7916 1.4743-4.4962-3.8356-2.771 4.7318 0.013z" style="fill:none;stroke-linecap:round;stroke-linejoin:round;stroke:#808080"/>
<path d="m8 1170 1.4501 4.5041 4.7318-0.013-3.8356 2.771 1.4743 4.4962-3.82-2.8-3.8206 2.7916 1.4743-4.4962-3.8356-2.771 4.7318 0.013z" style="fill:#808080;stroke-linecap:round;stroke-linejoin:round;stroke:#808080"/>
<path d="m6.5 1185.5-3 3 3 3" style="fill:none;stroke-linecap:round;stroke-linejoin:round;stroke:#808080"/>
<path d="m4 1196.5h4.5c2.2091 0 4-1.7909 4-4s-1.7909-4-4-4h-4.5" style="fill:none;stroke-linecap:round;stroke-linejoin:round;stroke:#808080"/>
<rect x="2.5" y="1202.5" width="8" height="8" rx="0" ry="0" style="fill:#ffffff;paint-order:fill markers stroke;stroke-linejoin:round;stroke:#808080"/>
<rect x="4.5" y="1204.5" width="8" height="8" rx="0" ry="0" style="fill:#ffffff;paint-order:fill markers stroke;stroke-linejoin:round;stroke:#808080"/>
<path d="m8.5 1206.5v4" style="fill:none;stroke-linecap:square;stroke-width:1px;stroke:#808080"/>
<path d="m10.5 1208.5h-4" style="fill:none;stroke-linecap:square;stroke-width:1px;stroke:#808080"/>
<circle id="path1408" cx="8" cy="1224" r="1.7621688" style="fill:#808080;paint-order:normal"/>
<use id="use1418" transform="translate(-3.0136109e-8,-5.0000389)" width="100%" height="100%" style="fill:#808080" xlink:href="#path1408"/>
<use transform="translate(-3.0136109e-8,9.9999611)" width="100%" height="100%" style="fill:#808080" xlink:href="#use1418"/>
<path d="m1.5 1234.5h12l-5 5v7l-2-1v-6z" style="fill-rule:evenodd;fill:#808080;stroke-linejoin:round;stroke:#808080"/>
<path d="m6.5 1289.5 0.99 0.99c-0.66667 0.6667-1.3333 1.3333-2 2 0.66667 0.6667 1.3333 1.3333 2 2l-0.99 0.99c-0.66667-0.6667-1.3333-1.3333-2-2-0.66667 0.6667-1.3333 1.3333-2 2l-0.99-0.99c0.66667-0.6667 1.3333-1.3333 2-2-0.66667-0.6667-1.3333-1.3333-2-2l0.99-0.99c0.66667 0.6667 1.3333 1.3333 2 2 0.66667-0.6667 1.3333-1.3333 2-2zm1.5-8.26c2.4741-0.096 4.4393 2.6522 3.5485 4.9624-0.37112 0.5267-0.51726 0.9342 0.03946 1.2856 1.007 1.0238 2.0501 2.0163 3.0343 3.0599 0.40424 0.5656-0.26764 1.3861-0.90188 1.1013-0.47426-0.2785-0.79938-0.7567-1.2104-1.1193-0.80667-0.8067-1.6133-1.6133-2.42-2.42-2.0052 1.4524-5.1649 0.2562-5.7054-2.16-0.67342-2.2912 1.2266-4.768 3.6154-4.71zm0 1.5c-1.4844-0.058-2.6636 1.5913-2.1292 2.9774 0.43386 1.4598 2.4541 2.0221 3.5787 0.9935 1.1725-0.9122 1.0121-2.933-0.28961-3.6489-0.34792-0.21-0.75358-0.3226-1.1599-0.322z" style="fill:#808080"/>
<path d="m8 1282.8c1.4844-0.058 2.6636 1.5913 2.1292 2.9774-0.43386 1.4598-2.4541 2.0221-3.5787 0.9935-1.1725-0.9122-1.0121-2.933 0.28961-3.6489 0.34792-0.21 0.75358-0.3226 1.1599-0.322z" style="fill-opacity:.5;fill:#ffffff"/>
<path d="m5 1298.5v8h2.5l-3.5 3.5-3.5-3.5h2.5v-8zm7 9v2h-3v-2zm1-4v2h-5v-2zm1-4v2h-7v-2z" style="fill-opacity:.5;fill:#000000;fill-rule:evenodd"/>
  <path d="m1 1323v3h4v-5h1v-4h-3zm14 0v3h-4v-5h-1v-4h3zm-12-9v2h3v-2zm7 0v2h3v-2zm-3 7h2v-4h-2z" fill="#808080"/>
  <path d="m8.5 1343a7 7 0 1 0 0-14 7 7 0 0 0 0 14zm0-11.2 3.35 3.35a0.5 0.5 0 0 1-0.63 0.76l-0.07-0.06-2.15-2.14v5.79a0.50202 0.50202 0 0 1-1 0.09v-5.89l-2.15 2.16a0.5 0.5 0 0 1-0.63 0.06l-0.07-0.06a0.5 0.5 0 0 1-0.06-0.63l0.06-0.07 3.35-3.37z" fill="#808080" fill-rule="evenodd"/>
  <path d="m8.5 1359a7 7 0 1 0 0-14 7 7 0 0 0 0 14zm0-2.8-3.35-3.34a0.5 0.5 0 0 1 0.63-0.76l0.07 0.06 2.15 2.13v-5.79a0.50202 0.50202 0 0 1 1-0.09v5.89l2.15-2.15a0.5 0.5 0 0 1 0.63-0.06l0.07 0.06c0.18 0.17 0.2 0.44 0.06 0.63l-0.06 0.07-3.35 3.36z" fill="#808080" fill-rule="evenodd"/>
  <path d="m5.65 1369.6 0.7 0.7-3.64 3.65h2.29v1h-4v-4h1v2.3zm9.35-8.65v4h-1v-2.3l-3.65 3.65-0.7-0.7 3.64-3.65h-2.29v-1z" fill="#808080"/>
  <rect x="-7.1526e-7" y="1360" width=".041398" height=".0003456" style="fill-rule:evenodd;fill:#0000ff"/>
  <path d="m7 1385v4h-1v-2.3l-3.65 3.65-0.7-0.7 3.64-3.65h-2.29v-1zm6.65-7.35 0.7 0.7-3.64 3.65h2.29v1h-4v-4h1v2.3z" fill="#808080"/>
  <path d="m15 1273v2h-4v3h-2v-5zm-8 0v5h-2v-3h-4v-2zm4-7v3h4v2h-6v-5zm-4 0v5h-6v-2h4v-3z" fill="#808080"/>
  <path d="m2 1257v3h4v2h-6v-5zm14 0v5h-6v-2h4v-3zm-10-7v2h-4v3h-2v-5zm10 0v5h-2v-3h-4v-2z" fill="#808080"/>
</svg>
