<svg width="288" height="40" viewBox="0 0 288 40" xmlns="http://www.w3.org/2000/svg">
<path d="m215.41797 7.9980469-0.09375 2.8203121h0.37305l0.03125-2.349609 0.86132 2.308594h0.38477l0.85547-2.3046878 0.0293 2.3457028h0.38476l-0.08984-2.8203121h-0.5l-0.86133 2.3203121-0.86524-2.3203121h-0.50976zm68 0-0.09375 2.8203121h0.37305l0.03125-2.349609 0.86132 2.308594h0.38477l0.85547-2.3046878 0.0293 2.3457028h0.38476l-0.08984-2.8203121h-0.5l-0.86133 2.3203121-0.86524-2.3203121h-0.50976zm-258.769532 0.0019531v0.359375h0.986328v2.460937h0.376953v-2.4589839-0.0019531h0.986328v-0.359375h-2.349609zm2.816406 0-0.095703 2.820312h0.375l0.03125-2.3496089 0.861328 2.3066409h0.382812l0.857422-2.3027346 0.029297 2.3457026h0.384766l-0.089844-2.820312h-0.501953l-0.859375 2.318359-0.865235-2.318359h-0.509765zm185.136716 0v0.359375h0.98828v2.460937h0.375v-2.460937h0.98633v-0.359375h-2.34961zm68 0v0.359375h0.98828v2.460937h0.375v-2.460937h0.98633v-0.359375h-2.34961zm-271.9218725 2.007812-4.5 7.802735 4.5 7.794922h9.0078125l4.5-7.794922-4.5-7.802735h-9.0078125zm79.5644535 0.8125c-5.148 1e-6 -8.765625 3.959016-8.765625 8.791016v0.050781c9.94e-4 4.881068 3.691198 8.742188 8.644531 8.742188 3.182 0 5.125437-1.165719 6.898437-3.011719l-1.917968-1.943359c-1.457 1.36-2.793813 2.1875-4.882813 2.1875-3.254 0-5.609375-2.696438-5.609375-6.023438v-0.048828c0-3.328 2.379375-6 5.609375-6 1.943 0 3.399766 0.851281 4.759766 2.113281l1.919922-2.208984c-1.627-1.554-3.52225-2.648438-6.65625-2.648438zm17.585939 0c-5.222 1e-6 -8.912111 4.007016-8.912111 8.791016v0.050781c1e-3 4.784116 3.642001 8.742188 8.863281 8.742188 5.222 0 8.91211-4.007016 8.91211-8.791016v-0.048828c0-4.784-3.64228-8.744141-8.86328-8.744141zm27.7832 0c-5.149 1e-6 -8.76758 3.959016-8.76758 8.791016v0.050781c1e-3 4.881068 3.69315 8.742188 8.64649 8.742188 3.182 0 5.12544-1.165719 6.89843-3.011719l-1.91992-1.943359c-1.457 1.36-2.79286 2.1875-4.88086 2.1875-3.255 0-5.60937-2.696438-5.60937-6.023438v-0.048828c0-3.328 2.37937-6 5.60937-6 1.942 0 3.39977 0.851281 4.75977 2.113281l1.91797-2.208984c-1.627-1.554-3.5213-2.648438-6.6543-2.648438zm32.13086 0c-5.221 0-8.91211 4.007969-8.91211 8.792969v0.046875c0 4.785 3.64324 8.744141 8.86524 8.744141 5.221 0 8.91211-4.007016 8.91211-8.791016v-0.048828c0-4.784-3.64324-8.744141-8.86524-8.744141zm92.02539 0.289063a6.2432368 6.2432368 0 0 0-0.625 0.003906h-7.23633v17h7.55274c3.71558 0 6.16797-1.724432 6.16797-4.638672v-0.048828c0-2.33123-1.62684-3.496112-3.64258-4.103515a4.1029261 4.1029261 0 0 0 2.69531-3.933594v-0.048828a3.775748 3.775748 0 0 0-1.0918-2.720703 6.2432368 6.2432368 0 0 0-3.82031-1.509766zm-219.724608 0.001953v2.771484h5.392578v14.230469h3.009766v-14.230469h5.392578v-2.771484h-13.794922zm17.123047 0v17h2.986328v-17h-2.986328zm7.527343 0v0.001953 17h7.869141c3.789 0 6.291016-1.628062 6.291016-4.664062v-0.046875c0-2.308-1.384953-3.448907-3.376953-4.128906 1.263-0.656 2.429687-1.749063 2.429687-3.789063v-0.048828c0-1.141-0.387625-2.065359-1.140625-2.818359-0.972-0.971-2.502312-1.50586-4.445312-1.50586h-7.626954zm80.826168 0 0.00196 0.001953v17h11.92383v-2.720703h-8.9375v-14.28125h-2.98829zm34.44141 0v9.789063c0 4.93 2.81533 7.480468 7.23633 7.480468 4.444 0 7.31055-2.550953 7.31055-7.626953v-9.642578h-2.98829v9.789063c0 3.132-1.62643 4.710937-4.27343 4.710937-2.672 0-4.29883-1.675031-4.29883-4.832031v-9.667969h-2.98633zm18.65039 0.001953v17h6.33984c5.343 0 9.03321-3.716 9.03321-8.5v-0.048828c0-4.784-3.69021-8.451172-9.03321-8.451172h-6.33984zm37.9961 0v17h12.41015v-1.748047h-10.49219v-5.949218h9.27735v-1.75h-9.27735v-5.802735h10.3711v-1.75h-12.28906zm30.33007 0 6.26563 8.330078-6.50781 8.669922h2.20898l5.44141-7.333984 5.43945 7.333984h2.2832l-6.50976-8.669922 6.26562-8.330078h-2.23437l-5.19532 6.994141-5.19921-6.994141h-2.25782zm-13.13672 1.72461h5.17188c2.4288 0 3.76562 1.09368 3.76562 2.769531v0.048828c0 1.990915-1.6029 3.035156-3.91015 3.035156h-5.02735v-5.853515zm-146.02148 0.726562c3.376 0 5.7793 2.744875 5.7793 6.046875v0.050781c-9.4e-4 3.302091-2.3571 5.97461-5.73243 5.97461-3.375 0-5.77929-2.720438-5.77929-6.023438v-0.048828c0-3.304 2.35642-6 5.73242-6zm59.91602 0c3.375 0 5.77929 2.745828 5.77929 6.048828v0.046875c0 3.303-2.35642 5.976563-5.73242 5.976563s-5.7793-2.720438-5.7793-6.023438v-0.048828c0-3.304 2.35643-6 5.73243-6zm-100.062504 0.195313h4.298828c1.919 0 2.988281 0.825109 2.988281 2.162109v0.048828c0 1.554-1.288031 2.306641-3.207031 2.306641h-4.080078v-4.517578zm133.966794 0.074218h3.35156c3.57 0 5.90235 2.452297 5.90235 5.779297v0.048828c0 3.328-2.33235 5.732422-5.90235 5.732422h-3.35156v-11.560547zm-176.374998 5.503907-2.792968 4.839843 2.792968 4.835938h5.585938l2.791016-4.835938-2.791016-4.839843h-5.585938zm228.576168 1.052734h5.36719c2.96304 0 4.51758 1.068223 4.51758 2.914063v0.048828c0 1.894172-1.60379 3.037109-4.17773 3.037109h-5.70704v-6zm-186.167964 0.412109h4.736328c2.355 0 3.498047 0.850204 3.498047 2.283204v0.048828c0 1.53-1.239297 2.332031-3.279297 2.332031h-4.955078v-4.664063zm-64.3046879 1.371094-1.3300781 2.304688 1.328125 2.302734h2.6601562l1.3300782-2.302734-1.3300782-2.304688h-2.6582031z" style="fill-rule:evenodd;fill:#ffffff"/>
</svg>
