<svg width="26" height="26" version="1.1" xmlns="http://www.w3.org/2000/svg">
<g style="display:none">
<rect width="26" height="26" style="fill:#808080;stroke-width:0"/>
</g>
<g transform="translate(0,10)">
<path d="m23 16 1e-6 -1.25c-0.64862-1.5611-1.1984-4.1868-2.6145-4.468l-4.3766-0.86931-0.79669-1.8196c1.4461-1.3931 1.8161-3.9905 2.0435-6.3336 0.2274-2.343-0.50569-5.2595-4.2557-5.2595-3.75 0-4.7719 2.9725-4.4717 5.4377 0.29508 2.4227 0.78135 4.231 1.9607 6.1932-0.0543 0.63353-0.2523 1.1216-0.57424 1.7386l-4.6198 1.0313c-1.738 0.38798-1.8327 3.0168-2.295 4.3492l-1e-6 1.25" style="fill-opacity:.50196;fill:#ffffff;stroke-width:2;stroke:#ffffff"/>
</g>
</svg>
