<svg width="26" height="26" version="1.1" xmlns="http://www.w3.org/2000/svg">
<g>
<rect width="26" height="26" style="fill:#c0c0c0;stroke-width:0"/>
</g>
<g transform="translate(0,10)">
<path d="m23 16 1e-6 -1.25c-0.64862-1.5611-1.1984-4.1868-2.6145-4.468l-4.3766-0.86931-0.79669-1.8196c1.4461-1.3931 1.8161-3.9905 2.0435-6.3336 0.2274-2.343-0.50569-5.2595-4.2557-5.2595-3.75 0-4.7719 2.9725-4.4717 5.4377 0.29508 2.4227 0.78135 4.231 1.9607 6.1932-0.0543 0.63353-0.2523 1.1216-0.57424 1.7386l-4.6198 1.0313c-1.738 0.38798-1.8327 3.0168-2.295 4.3492l-1e-6 1.25" style="fill:#ffffff"/>
<path d="m13.026-2.3429c0.39033 6.7e-6 0.74709 0.065066 1.0829 0.1511 0.33577 0.086047 0.63167 0.21826 0.8814 0.40292 0.24973 0.18468 0.4386 0.41763 0.57921 0.70512 0.1406 0.28751 0.20146 0.62958 0.20146 1.0325-5e-6 0.25603-0.01679 0.49737-0.07555 0.70513-0.058768 0.20777-0.13851 0.39454-0.25183 0.5792-0.11333 0.18468-0.26023 0.35887-0.42811 0.52884-0.16789 0.16999-0.36096 0.34837-0.57921 0.52885-0.1469 0.12172-0.29171 0.24763-0.40293 0.35256-0.11123 0.10493-0.20356 0.19937-0.27701 0.30219-0.07345 0.10283-0.11333 0.21196-0.1511 0.32737-0.03777 0.11543-0.07555 0.23085-0.07555 0.37775-3e-6 0.10074 0.02308 0.22245 0.05036 0.32738 0.02728 0.10493 0.05456 0.18048 0.10073 0.25183h-1.6369c-0.04197-0.10912-0.07765-0.21615-0.10073-0.35256-0.02308-0.13641-0.02518-0.28121-0.02518-0.40293-3e-6 -0.19306 0.0126-0.36934 0.05036-0.52884 0.03777-0.15949 0.07555-0.31269 0.1511-0.4533 0.07555-0.1406 0.18887-0.27491 0.3022-0.40292 0.11332-0.12801 0.25183-0.25182 0.40293-0.37775 0.15949-0.1343 0.28331-0.26231 0.40293-0.37775 0.11962-0.11541 0.21825-0.21195 0.3022-0.32737 0.08394-0.11542 0.15949-0.25393 0.20146-0.37775 0.04197-0.12381 0.05036-0.25182 0.05036-0.40292-4e-6 -0.13011-0.0042-0.24133-0.05036-0.35256-0.04617-0.11122-0.11542-0.22245-0.20146-0.3022-0.08605-0.079735-0.20357-0.1301-0.32738-0.17628-0.12382-0.04618-0.25183-0.075537-0.40293-0.07555-0.32738 1.335e-5 -0.67994 0.065066-1.0325 0.20147-0.35256 0.13642-0.69253 0.35257-1.0073 0.62958v-1.8887c0.32318-0.19306 0.67574-0.35675 1.0577-0.45329 0.38196-0.096532 0.80167-0.15109 1.2088-0.1511zm-0.07555 7.2527c0.33157 0 0.61278 0.10493 0.83104 0.30219 0.21825 0.19308 0.32737 0.43231 0.32738 0.7303-5e-6 0.3022-0.11333 0.55822-0.32738 0.75549-0.21826 0.19727-0.49527 0.30219-0.83104 0.30219-0.33577 0-0.60859-0.10073-0.83104-0.30219-0.22245-0.20986-0.32738-0.47008-0.32738-0.75549-2e-6 -0.29379 0.10493-0.53304 0.32738-0.7303 0.22245-0.19726 0.49526-0.30219 0.83104-0.30219z" style="fill:#808080"/>
</g>
</svg>
