<svg id="SVGRoot" width="16px" height="16px" version="1.1" viewBox="0 0 16 16" xmlns="http://www.w3.org/2000/svg">
<g>
<path d="m2 1v14c0 0.5 0.5 1 1 1h10c0.5 0 1-0.5 1-1v-10.5c0-0.5 0-1-0.5-1.5l-2.5-2.5c-0.5-0.5-0.5-0.5-1.5-0.5h-6.5c-0.5 0-1 0.5-1 1zm8 0 3 3h-3zm-7 0h6v3c0 0.5 0.5 1 1 1h3v10h-10z" style="fill:#808080;"/>
<path d="m11.3 11.2c0.802 0.431 0.699-1.9-0.207-1.81-3.68 0.376-3.8 0.594-6.95 2.54-0.774 0.479 1.3 1.56 1.67 0.726 1.51-3.37 1.39-3.59 1.27-7.29-0.0281-0.91-2 0.345-1.46 1.08 2.17 3 2.42 3 5.67 4.74z" style="fill:none;stroke:#808080"/>
</g>
</svg>
