<svg id="SVGRoot" width="18" height="18" version="1.1" viewBox="0 0 18 18" xmlns="http://www.w3.org/2000/svg">
<path d="m9 0c-4.97 0-9 4.03-9 9 0 4.97 4.03 9 9 9 4.97 0 9-4.03 9-9 0-4.97-4.03-9-9-9zm0 3c2.77 0 5 2.23 5 5 0 1.42-0.746 2.33-1.44 3.09-0.698 0.761-1.35 1.41-1.57 2.51l-0.0801 0.402h-3.82l-0.0801-0.402c-0.22-1.1-0.869-1.75-1.57-2.51-0.698-0.761-1.44-1.67-1.44-3.09 0-2.77 2.23-5 5-5zm0 1c-0.554 0-1 0.446-1 1v4c0 0.554 0.446 1 1 1s1-0.446 1-1v-4c0-0.554-0.446-1-1-1zm0 7c-0.554 0-1 0.446-1 1s0.446 1 1 1 1-0.446 1-1-0.446-1-1-1zm-2 4h4v1s-0.5 1-2 1-2-1-2-1z" style="fill:#a0a0a0"/>
</svg>
