<svg xmlns="http://www.w3.org/2000/svg" width="320" height="60"><defs/><path fill="silver" fill-rule="nonzero" d="M117.643 9.04c4.291 0 8.867 1.141 12.112 2.994l.559.335-1.728 4.927c-3.52-2.304-6.784-3.392-10.943-3.392-8.705 0-14.529 6.016-14.529 15.936s5.888 16.256 14.657 16.256c4.062 0 8.067-1.55 10.87-3.564l.457-.34.895 5.44c-3.263 2.049-7.872 3.328-12.35 3.328-11.713 0-20.034-8.127-20.034-20.864 0-12.736 8.385-21.057 20.034-21.057zm46.079 3.103c5.32 3.486 8.6 9.628 8.6 17.546 0 11.95-8.306 21.09-20.066 21.09-4.543 0-8.58-1.24-11.825-3.493 9.603-9.234 17.12-19.972 23.29-35.143zM43.408 10v5.12H29.392V50h-5.376V15.12H10V10h33.408zm11.775 0v40h-5.376V10h5.376zm22.705 0c9.665 0 13.952 4.352 13.952 10.624 0 4.096-2.368 7.104-6.848 8.769 5.313 1.343 8.127 4.8 8.127 9.28 0 6.642-4.356 11.137-14.21 11.321l-.637.006H64.64V10h13.249zm143.042 0v4.112h-24.384V27.76h21.815v4.112h-21.815v13.991h24.67v4.112h-29.18V10h28.894zm24.102 0c4.567 0 8.166 1.313 10.45 3.54 1.546 1.6 2.446 3.547 2.559 5.89l.012.62c0 5.198-3.2 7.882-6.34 9.253 4.593 1.383 8.327 3.998 8.556 9.145l.01.62c0 6.703-5.52 10.73-13.94 10.902l-.566.005h-17.759V10h17.018zm23.645 0l12.22 16.447L293.116 10h5.254L283.64 29.588l15.304 20.387h-5.369l-12.79-17.245-12.794 17.245h-5.195l15.304-20.387L263.365 10h5.312zm-23.589 21.815h-12.62V45.92h13.42c5.875 0 9.599-2.527 9.813-6.748l.01-.504c0-4.215-3.45-6.708-10.033-6.847l-.59-.006zm-167.136.65H70.08v12.544h8.704c5.952 0 8.897-2.113 8.897-6.273 0-4.473-3.859-6.171-9.236-6.268l-.493-.004zm83.468-21.601c.64.299 1.257.633 1.85.998-5.606 12.275-15.616 24.704-26.424 32.135a18.914 18.914 0 01-2.725-4.4c12.57-6.785 22.07-18.709 27.3-28.733zm-9.164-1.943c3.177 0 6.105.603 8.689 1.729-5.42 9.273-16.106 20.082-28.136 24.985a25.616 25.616 0 01-.617-5.69c0-11.95 8.307-21.024 20.064-21.024zm92.375 5.134H232.47v13.763h11.82c5.26 0 8.965-2.31 9.184-6.72l.01-.533c0-3.817-2.947-6.348-8.324-6.503l-.528-.007zm-166.296.937H70.08v12.544h7.424c5.76 0 8.896-2.56 8.896-6.464 0-3.715-2.637-5.933-7.564-6.073l-.5-.007zm99.152-9.4a5.148 5.148 0 015.155 4.843l.01.352c0 2.82-2.286 5.196-5.165 5.196a5.148 5.148 0 01-5.156-4.842l-.01-.354c0-2.82 2.285-5.195 5.166-5.195zm130.15-.002a5.148 5.148 0 015.154 4.843l.01.352c0 2.82-2.285 5.195-5.165 5.195a5.148 5.148 0 01-5.155-4.841l-.01-.354c0-2.82 2.285-5.195 5.165-5.195zm-130.15.567c-2.476 0-4.406 1.936-4.563 4.317l-.01.344c0 2.522 1.96 4.6 4.573 4.6 2.475 0 4.405-1.935 4.562-4.318l.01-.342c0-2.524-1.96-4.601-4.572-4.601zm130.15-.003c-2.477 0-4.407 1.936-4.563 4.318l-.01.343c0 2.523 1.96 4.601 4.572 4.601 2.476 0 4.406-1.935 4.562-4.318l.01-.342c0-2.524-1.96-4.602-4.572-4.602zM177.841 8.056c1.159 0 2.02.564 2.02 1.662 0 .776-.41 1.286-1.011 1.532l-.208.073 1.396 1.988h-1.216l-1.247-1.81h-1.1v1.81h-1.009V8.056h2.375zm130.15-.002c1.158 0 2.019.564 2.019 1.662 0 .775-.409 1.286-1.01 1.532l-.208.072 1.396 1.989h-1.216l-1.247-1.811h-1.1v1.811h-1.01V8.054h2.376zm-130.238.894h-1.277v1.72h1.277c.683 0 1.07-.355 1.07-.86 0-.501-.306-.791-.853-.85l-.217-.01zm130.15-.003h-1.278v1.721h1.278c.682 0 1.069-.355 1.069-.86 0-.502-.305-.792-.853-.85l-.216-.01z"/></svg>