<?xml version="1.0" encoding="UTF-8" standalone="no"?>
<!-- Created with Inkscape (http://www.inkscape.org/) -->

<svg
   xmlns:dc="http://purl.org/dc/elements/1.1/"
   xmlns:cc="http://creativecommons.org/ns#"
   xmlns:rdf="http://www.w3.org/1999/02/22-rdf-syntax-ns#"
   xmlns:svg="http://www.w3.org/2000/svg"
   xmlns="http://www.w3.org/2000/svg"
   xmlns:xlink="http://www.w3.org/1999/xlink"
   xmlns:sodipodi="http://sodipodi.sourceforge.net/DTD/sodipodi-0.dtd"
   xmlns:inkscape="http://www.inkscape.org/namespaces/inkscape"
   width="120"
   height="80"
   id="svg2"
   version="1.1"
   inkscape:version="0.48.4 r9939"
   sodipodi:docname="myMenuIconSprite.svg"
   inkscape:export-filename="D:\Work\EBX_HEAD\_ebx-tools\webapps\ebx-manager\www\common\images\onHeader\myMenuIconSprite.png"
   inkscape:export-xdpi="90"
   inkscape:export-ydpi="90">
  <defs
     id="defs4">
    <linearGradient
       id="linearGradient7209">
      <stop
         style="stop-color:#808080;stop-opacity:0"
         offset="0"
         id="stop7211" />
      <stop
         style="stop-color:#e0e0e0;stop-opacity:1;"
         offset="1"
         id="stop7213" />
    </linearGradient>
    <linearGradient
       id="linearGradient4425">
      <stop
         id="stop4427"
         offset="0"
         style="stop-color:#808080;stop-opacity:1;" />
      <stop
         id="stop4429"
         offset="1"
         style="stop-color:#e0e0e0;stop-opacity:1;" />
    </linearGradient>
    <linearGradient
       id="linearGradient8576">
      <stop
         style="stop-color:#808080;stop-opacity:0"
         offset="0"
         id="stop8578" />
      <stop
         style="stop-color:#e0e0e0;stop-opacity:1;"
         offset="1"
         id="stop8580" />
    </linearGradient>
    <linearGradient
       inkscape:collect="always"
       xlink:href="#linearGradient7209-6"
       id="linearGradient4583-7"
       gradientUnits="userSpaceOnUse"
       x1="10.2157"
       y1="194.83334"
       x2="17.426804"
       y2="186.83336"
       gradientTransform="translate(6.0092464,-0.33333238)" />
    <linearGradient
       id="linearGradient7209-6">
      <stop
         style="stop-color:#c0c0c0;stop-opacity:0;"
         offset="0"
         id="stop7211-1" />
      <stop
         style="stop-color:#e0e0e0;stop-opacity:1;"
         offset="1"
         id="stop7213-4" />
    </linearGradient>
    <linearGradient
       inkscape:collect="always"
       xlink:href="#linearGradient4425-3"
       id="linearGradient4585-2"
       gradientUnits="userSpaceOnUse"
       gradientTransform="translate(7.2110997,1.5000409)"
       x1="4.8601542"
       y1="195.00002"
       x2="13.167546"
       y2="195.00002" />
    <linearGradient
       id="linearGradient4425-3">
      <stop
         id="stop4427-2"
         offset="0"
         style="stop-color:#c0c0c0;stop-opacity:1;" />
      <stop
         id="stop4429-2"
         offset="1"
         style="stop-color:#e0e0e0;stop-opacity:1;" />
    </linearGradient>
    <linearGradient
       inkscape:collect="always"
       xlink:href="#linearGradient7209-6"
       id="linearGradient5363-1"
       gradientUnits="userSpaceOnUse"
       x1="10.2157"
       y1="194.83334"
       x2="17.426804"
       y2="186.83336"
       gradientTransform="translate(-7.2111075,11)" />
    <linearGradient
       id="linearGradient8684">
      <stop
         style="stop-color:#808080;stop-opacity:0"
         offset="0"
         id="stop8686" />
      <stop
         style="stop-color:#e0e0e0;stop-opacity:1;"
         offset="1"
         id="stop8688" />
    </linearGradient>
    <linearGradient
       id="linearGradient6760">
      <stop
         id="stop6762"
         offset="0"
         style="stop-color:#808080;stop-opacity:1;" />
      <stop
         id="stop6764"
         offset="1"
         style="stop-color:#e0e0e0;stop-opacity:1;" />
    </linearGradient>
    <linearGradient
       inkscape:collect="always"
       xlink:href="#linearGradient7209-6"
       id="linearGradient4080"
       gradientUnits="userSpaceOnUse"
       gradientTransform="translate(52.881297,808.02894)"
       x1="10.2157"
       y1="194.83334"
       x2="17.426804"
       y2="186.83336" />
    <linearGradient
       inkscape:collect="always"
       xlink:href="#linearGradient4425-3"
       id="linearGradient4083"
       gradientUnits="userSpaceOnUse"
       gradientTransform="translate(67.303504,798.52898)"
       x1="4.8601542"
       y1="195.00002"
       x2="13.167546"
       y2="195.00002" />
    <linearGradient
       inkscape:collect="always"
       xlink:href="#linearGradient6760"
       id="linearGradient4204"
       gradientUnits="userSpaceOnUse"
       x1="14.5"
       y1="200"
       x2="13.03125"
       y2="198.46875" />
  </defs>
  <sodipodi:namedview
     id="base"
     pagecolor="#ffffff"
     bordercolor="#666666"
     borderopacity="1.0"
     inkscape:pageopacity="0.0"
     inkscape:pageshadow="2"
     inkscape:zoom="8"
     inkscape:cx="54.843603"
     inkscape:cy="37.210813"
     inkscape:document-units="px"
     inkscape:current-layer="layer1"
     showgrid="true"
     inkscape:window-width="1440"
     inkscape:window-height="848"
     inkscape:window-x="1912"
     inkscape:window-y="626"
     inkscape:window-maximized="1"
     inkscape:snap-bbox="true"
     inkscape:snap-global="true">
    <inkscape:grid
       type="xygrid"
       id="grid2985"
       empspacing="10"
       visible="true"
       enabled="true"
       snapvisiblegridlinesonly="true"
       dotted="false"
       spacingx="1px"
       spacingy="1px" />
    <inkscape:grid
       type="xygrid"
       id="grid2987"
       empspacing="1"
       visible="true"
       enabled="true"
       snapvisiblegridlinesonly="true"
       spacingx="40px"
       spacingy="40px"
       color="#800000"
       opacity="1"
       empcolor="#800000"
       empopacity="1"
       dotted="false" />
    <inkscape:grid
       type="xygrid"
       id="grid3195"
       empspacing="1"
       visible="true"
       enabled="true"
       snapvisiblegridlinesonly="true"
       originy="0.5px"
       originx="0.5px"
       empcolor="#ff0000"
       empopacity="0.0627451"
       color="#ff0000"
       opacity="0"
       dotted="true" />
  </sodipodi:namedview>
  <metadata
     id="metadata7">
    <rdf:RDF>
      <cc:Work
         rdf:about="">
        <dc:format>image/svg+xml</dc:format>
        <dc:type
           rdf:resource="http://purl.org/dc/dcmitype/StillImage" />
        <dc:title></dc:title>
      </cc:Work>
    </rdf:RDF>
  </metadata>
  <g
     inkscape:label="Calque 1"
     inkscape:groupmode="layer"
     id="layer1"
     transform="translate(0,-972.3622)">
    <path
       style="color:#000000;fill:#000000;fill-opacity:1;fill-rule:evenodd;stroke:none;stroke-width:2;marker:none;visibility:visible;display:inline;overflow:visible;enable-background:accumulate"
       d="M 0 40 L 0 80 L 40 80 L 40 40 L 0 40 z M 20 51 C 24.958718 51 29 55.0413 29 60 C 29 64.9587 24.958718 69 20 69 C 15.041282 69 11 64.9587 11 60 C 11 55.0413 15.041282 51 20 51 z M 20 53 C 16.122162 53 13 56.1222 13 60 C 13 63.8778 16.122162 67 20 67 C 23.877838 67 27 63.8778 27 60 C 27 56.1222 23.877838 53 20 53 z M 17 56 C 17.552285 56 18 56.4477 18 57 C 18 57.5523 17.552285 58 17 58 C 16.447715 58 16 57.5523 16 57 C 16 56.4477 16.447715 56 17 56 z M 23 56 C 23.552285 56 24 56.4477 24 57 C 24 57.5523 23.552285 58 23 58 C 22.447715 58 22 57.5523 22 57 C 22 56.4477 22.447715 56 23 56 z M 15.96875 60.03125 A 1.0001 1.0001 0 0 1 17.09375 60.78125 C 17.371566 61.81805 18.181925 62.62835 19.21875 62.90625 C 20.830589 63.33805 22.474359 62.39305 22.90625 60.78125 A 1.0004882 1.0004882 0 1 1 24.84375 61.28125 C 24.132107 63.93705 21.374639 65.55535 18.71875 64.84375 C 16.994838 64.38175 15.618171 63.00515 15.15625 61.28125 A 1.0001 1.0001 0 0 1 15.96875 60.03125 z "
       transform="translate(0,972.3622)"
       id="rect4047-1" />
    <use
       height="512"
       width="256"
       transform="translate(53,800.3622)"
       id="use4581"
       xlink:href="#use7753"
       y="0"
       x="0" />
    <use
       x="0"
       y="0"
       xlink:href="#use7753"
       id="use4562"
       transform="translate(47,796.3622)"
       width="256"
       height="512" />
    <g
       id="g4049"
       style="stroke:#000000;stroke-opacity:1"
       transform="translate(-40,-40)">
      <path
         sodipodi:type="arc"
         style="color:#000000;fill:none;stroke:#000000;stroke-width:2;stroke-opacity:1;marker:none;visibility:visible;display:inline;overflow:visible;enable-background:accumulate"
         id="path3994"
         sodipodi:cx="60"
         sodipodi:cy="20"
         sodipodi:rx="8"
         sodipodi:ry="8"
         d="m 68,20 c 0,4.418278 -3.581722,8 -8,8 -4.418278,0 -8,-3.581722 -8,-8 0,-4.418278 3.581722,-8 8,-8 4.418278,0 8,3.581722 8,8 z"
         transform="translate(0,1012.3622)" />
      <path
         sodipodi:type="arc"
         style="color:#000000;fill:#000000;fill-opacity:1;fill-rule:nonzero;stroke:none;stroke-width:3;marker:none;visibility:visible;display:inline;overflow:visible;enable-background:accumulate"
         id="path3058"
         sodipodi:cx="18"
         sodipodi:cy="17"
         sodipodi:rx="1"
         sodipodi:ry="1"
         d="m 19,17 c 0,0.552285 -0.447715,1 -1,1 -0.552285,0 -1,-0.447715 -1,-1 0,-0.552285 0.447715,-1 1,-1 0.552285,0 1,0.447715 1,1 z"
         transform="translate(39,1012.3622)" />
      <path
         transform="translate(45,1012.3622)"
         sodipodi:type="arc"
         style="color:#000000;fill:#000000;fill-opacity:1;fill-rule:nonzero;stroke:none;stroke-width:3;marker:none;visibility:visible;display:inline;overflow:visible;enable-background:accumulate"
         id="path3058-1"
         sodipodi:cx="18"
         sodipodi:cy="17"
         sodipodi:rx="1"
         sodipodi:ry="1"
         d="m 19,17 c 0,0.552285 -0.447715,1 -1,1 -0.552285,0 -1,-0.447715 -1,-1 0,-0.552285 0.447715,-1 1,-1 0.552285,0 1,0.447715 1,1 z" />
      <path
         transform="translate(0,1012.3622)"
         d="m 63.863703,21.035276 c -0.571767,2.133865 -2.765115,3.400195 -4.898979,2.828427 -1.380368,-0.369868 -2.458559,-1.448059 -2.828427,-2.828427"
         sodipodi:ry="4"
         sodipodi:rx="4"
         sodipodi:cy="20"
         sodipodi:cx="60"
         id="path3929"
         style="color:#000000;fill:none;stroke:#000000;stroke-width:2;stroke-linecap:round;stroke-linejoin:round;stroke-opacity:1;marker:none;visibility:visible;display:inline;overflow:visible;enable-background:accumulate"
         sodipodi:type="arc"
         sodipodi:start="0.26179939"
         sodipodi:end="2.8797933"
         sodipodi:open="true" />
    </g>
    <g
       id="g4060"
       transform="matrix(0.70710678,-0.70710678,0.70710678,0.70710678,-693.90914,485.08361)"
       style="fill:#ffffff;fill-opacity:1;stroke:#ffffff;stroke-opacity:1" />
    <g
       style="fill:#ffffff;fill-opacity:1"
       id="g4070" />
    <g
       style="stroke:#ffffff;stroke-opacity:1"
       id="g4076" />
    <g
       style="stroke:#808080;stroke-width:1.52901244;stroke-miterlimit:4;stroke-opacity:1;stroke-dasharray:none"
       id="g4098"
       transform="matrix(1.3080338,0,0,1.3080338,334.55254,804.53024)" />
    <g
       id="g4112"
       style="fill:#ffffff;fill-opacity:1"
       transform="translate(-50,0)" />
    <g
       style="fill:#ffffff;fill-opacity:1"
       id="g4118"
       transform="translate(80,0)" />
    <g
       style="fill:#ffffff;fill-opacity:1"
       id="g4124"
       transform="translate(-10,0)" />
    <path
       id="path3988"
       d="m 40,1012.3622 0,40 40,0 0,-40 -40,0 z m 20,11 c 4.958718,0 9,4.0413 9,9 0,4.9587 -4.041282,9 -9,9 -4.958718,0 -9,-4.0413 -9,-9 0,-4.9587 4.041282,-9 9,-9 z m 0,2 c -3.877838,0 -7,3.1222 -7,7 0,3.8778 3.122162,7 7,7 3.877838,0 7,-3.1222 7,-7 0,-3.8778 -3.122162,-7 -7,-7 z m -3,3 c 0.552285,0 1,0.4477 1,1 0,0.5523 -0.447715,1 -1,1 -0.552285,0 -1,-0.4477 -1,-1 0,-0.5523 0.447715,-1 1,-1 z m 6,0 c 0.552285,0 1,0.4477 1,1 0,0.5523 -0.447715,1 -1,1 -0.552285,0 -1,-0.4477 -1,-1 0,-0.5523 0.447715,-1 1,-1 z m -7.03125,4.0313 a 1.0001,1.0001 0 0 1 1.125,0.75 c 0.277816,1.0368 1.088175,1.8471 2.125,2.125 1.611839,0.4318 3.255609,-0.5132 3.6875,-2.125 a 1.0004882,1.0004882 0 1 1 1.9375,0.5 c -0.711643,2.6558 -3.469111,4.2741 -6.125,3.5625 -1.723912,-0.462 -3.100579,-1.8386 -3.5625,-3.5625 a 1.0001,1.0001 0 0 1 0.8125,-1.25 z"
       style="color:#000000;fill:#808080;fill-opacity:1;fill-rule:evenodd;stroke:none;stroke-width:2;marker:none;visibility:visible;display:inline;overflow:visible;enable-background:accumulate"
       inkscape:connector-curvature="0" />
    <g
       transform="translate(0,-40)"
       style="stroke:#000000;stroke-opacity:1"
       id="g3990">
      <path
         transform="translate(0,1012.3622)"
         d="m 68,20 c 0,4.418278 -3.581722,8 -8,8 -4.418278,0 -8,-3.581722 -8,-8 0,-4.418278 3.581722,-8 8,-8 4.418278,0 8,3.581722 8,8 z"
         sodipodi:ry="8"
         sodipodi:rx="8"
         sodipodi:cy="20"
         sodipodi:cx="60"
         id="path3992"
         style="color:#000000;fill:none;stroke:#808080;stroke-width:2;stroke-opacity:1;marker:none;visibility:visible;display:inline;overflow:visible;enable-background:accumulate"
         sodipodi:type="arc" />
      <path
         transform="translate(39,1012.3622)"
         d="m 19,17 c 0,0.552285 -0.447715,1 -1,1 -0.552285,0 -1,-0.447715 -1,-1 0,-0.552285 0.447715,-1 1,-1 0.552285,0 1,0.447715 1,1 z"
         sodipodi:ry="1"
         sodipodi:rx="1"
         sodipodi:cy="17"
         sodipodi:cx="18"
         id="path3995"
         style="color:#000000;fill:#808080;fill-opacity:1;fill-rule:nonzero;stroke:none;stroke-width:3;marker:none;visibility:visible;display:inline;overflow:visible;enable-background:accumulate"
         sodipodi:type="arc" />
      <path
         d="m 19,17 c 0,0.552285 -0.447715,1 -1,1 -0.552285,0 -1,-0.447715 -1,-1 0,-0.552285 0.447715,-1 1,-1 0.552285,0 1,0.447715 1,1 z"
         sodipodi:ry="1"
         sodipodi:rx="1"
         sodipodi:cy="17"
         sodipodi:cx="18"
         id="path3997"
         style="color:#000000;fill:#808080;fill-opacity:1;fill-rule:nonzero;stroke:none;stroke-width:3;marker:none;visibility:visible;display:inline;overflow:visible;enable-background:accumulate"
         sodipodi:type="arc"
         transform="translate(45,1012.3622)" />
      <path
         sodipodi:open="true"
         sodipodi:end="2.8797933"
         sodipodi:start="0.26179939"
         sodipodi:type="arc"
         style="color:#000000;fill:none;stroke:#808080;stroke-width:2;stroke-linecap:round;stroke-linejoin:round;stroke-opacity:1;marker:none;visibility:visible;display:inline;overflow:visible;enable-background:accumulate"
         id="path3999"
         sodipodi:cx="60"
         sodipodi:cy="20"
         sodipodi:rx="4"
         sodipodi:ry="4"
         d="m 63.863703,21.035276 c -0.571767,2.133865 -2.765115,3.400195 -4.898979,2.828427 -1.380368,-0.369868 -2.458559,-1.448059 -2.828427,-2.828427"
         transform="translate(0,1012.3622)" />
    </g>
    <path
       inkscape:connector-curvature="0"
       style="color:#000000;fill:#ffffff;fill-opacity:1;fill-rule:evenodd;stroke:none;stroke-width:2;marker:none;visibility:visible;display:inline;overflow:visible;enable-background:accumulate"
       d="m 80,1012.3622 0,40 40,0 0,-40 -40,0 z m 20,11 c 4.95872,0 9,4.0413 9,9 0,4.9587 -4.04128,9 -9,9 -4.958718,0 -9,-4.0413 -9,-9 0,-4.9587 4.041282,-9 9,-9 z m 0,2 c -3.877838,0 -7,3.1222 -7,7 0,3.8778 3.122162,7 7,7 3.87784,0 7,-3.1222 7,-7 0,-3.8778 -3.12216,-7 -7,-7 z m -3,3 c 0.552285,0 1,0.4477 1,1 0,0.5523 -0.447715,1 -1,1 -0.552285,0 -1,-0.4477 -1,-1 0,-0.5523 0.447715,-1 1,-1 z m 6,0 c 0.55228,0 1,0.4477 1,1 0,0.5523 -0.44772,1 -1,1 -0.55228,0 -1,-0.4477 -1,-1 0,-0.5523 0.44772,-1 1,-1 z m -7.03125,4.0313 a 1.0001,1.0001 0 0 1 1.125,0.75 c 0.277816,1.0368 1.088175,1.8471 2.125,2.125 1.61184,0.4318 3.25561,-0.5132 3.6875,-2.125 a 1.0004882,1.0004882 0 1 1 1.9375,0.5 c -0.71164,2.6558 -3.46911,4.2741 -6.125,3.5625 -1.723912,-0.462 -3.100579,-1.8386 -3.5625,-3.5625 a 1.0001,1.0001 0 0 1 0.8125,-1.25 z"
       id="path4001" />
    <g
       id="g4003"
       style="stroke:#000000;stroke-opacity:1"
       transform="translate(40,-40)">
      <path
         sodipodi:type="arc"
         style="color:#000000;fill:none;stroke:#ffffff;stroke-width:2;stroke-opacity:1;marker:none;visibility:visible;display:inline;overflow:visible;enable-background:accumulate"
         id="path4005"
         sodipodi:cx="60"
         sodipodi:cy="20"
         sodipodi:rx="8"
         sodipodi:ry="8"
         d="m 68,20 c 0,4.418278 -3.581722,8 -8,8 -4.418278,0 -8,-3.581722 -8,-8 0,-4.418278 3.581722,-8 8,-8 4.418278,0 8,3.581722 8,8 z"
         transform="translate(0,1012.3622)" />
      <path
         sodipodi:type="arc"
         style="color:#000000;fill:#ffffff;fill-opacity:1;fill-rule:nonzero;stroke:none;stroke-width:3;marker:none;visibility:visible;display:inline;overflow:visible;enable-background:accumulate"
         id="path4007"
         sodipodi:cx="18"
         sodipodi:cy="17"
         sodipodi:rx="1"
         sodipodi:ry="1"
         d="m 19,17 c 0,0.552285 -0.447715,1 -1,1 -0.552285,0 -1,-0.447715 -1,-1 0,-0.552285 0.447715,-1 1,-1 0.552285,0 1,0.447715 1,1 z"
         transform="translate(39,1012.3622)" />
      <path
         transform="translate(45,1012.3622)"
         sodipodi:type="arc"
         style="color:#000000;fill:#ffffff;fill-opacity:1;fill-rule:nonzero;stroke:none;stroke-width:3;marker:none;visibility:visible;display:inline;overflow:visible;enable-background:accumulate"
         id="path4009"
         sodipodi:cx="18"
         sodipodi:cy="17"
         sodipodi:rx="1"
         sodipodi:ry="1"
         d="m 19,17 c 0,0.552285 -0.447715,1 -1,1 -0.552285,0 -1,-0.447715 -1,-1 0,-0.552285 0.447715,-1 1,-1 0.552285,0 1,0.447715 1,1 z" />
      <path
         transform="translate(0,1012.3622)"
         d="m 63.863703,21.035276 c -0.571767,2.133865 -2.765115,3.400195 -4.898979,2.828427 -1.380368,-0.369868 -2.458559,-1.448059 -2.828427,-2.828427"
         sodipodi:ry="4"
         sodipodi:rx="4"
         sodipodi:cy="20"
         sodipodi:cx="60"
         id="path4011"
         style="color:#000000;fill:none;stroke:#ffffff;stroke-width:2;stroke-linecap:round;stroke-linejoin:round;stroke-opacity:1;marker:none;visibility:visible;display:inline;overflow:visible;enable-background:accumulate"
         sodipodi:type="arc"
         sodipodi:start="0.26179939"
         sodipodi:end="2.8797933"
         sodipodi:open="true" />
    </g>
  </g>
</svg>
