<svg id="SVGRoot" width="18" height="18" version="1.1" viewBox="0 0 18 18" xmlns="http://www.w3.org/2000/svg">
<path d="m9 0a9 9 0 0 0-9 9 9 9 0 0 0 9 9 9 9 0 0 0 9-9 9 9 0 0 0-9-9zm-2.5 2c0.277 0 0.5 0.223 0.5 0.5v1c0 0.277-0.223 0.5-0.5 0.5s-0.5-0.223-0.5-0.5v-1c0-0.277 0.223-0.5 0.5-0.5zm2.5 0c0.277 0 0.5 0.223 0.5 0.5v1c0 0.277-0.223 0.5-0.5 0.5s-0.5-0.223-0.5-0.5v-1c0-0.277 0.223-0.5 0.5-0.5zm2.5 0c0.277 0 0.5 0.223 0.5 0.5v1c0 0.277-0.223 0.5-0.5 0.5s-0.5-0.223-0.5-0.5v-1c0-0.277 0.223-0.5 0.5-0.5zm-6.5 1.09v0.406c0 0.822 0.678 1.5 1.5 1.5h5c0.822 0 1.5-0.678 1.5-1.5v-0.406c0.579 0.209 1 0.76 1 1.41v9c0 0.822-0.678 1.5-1.5 1.5h-7c-0.822 0-1.5-0.678-1.5-1.5v-9c0-0.647 0.421-1.2 1-1.41zm1 2.91v1h6v-1h-6zm0 2v1h6v-1h-6zm0 2v1h6v-1h-6zm0 2v1h6v-1h-6z" style="fill:#a0a0a0;"/>
</svg>
