<svg xmlns="http://www.w3.org/2000/svg" width="16" height="16"><defs/><g fill="none" fill-rule="evenodd"><path fill="#FFF" d="M2.5 3.5h10v2h-1v8l-1 1h-6l-1-1v-8h-1z"/><path fill="#000" fill-rule="nonzero" d="M9.992 2.352L10 2.5V3h2.5a.5.5 0 01.492.41L13 3.5v2a.5.5 0 01-.41.492L12.5 6H12v7c0 1.218-.66 1.933-1.83 1.996L10 15H5c-1.218 0-1.933-.66-1.996-1.83L3 13V6h-.5a.5.5 0 01-.492-.41L2 5.5v-2a.5.5 0 01.41-.492L2.5 3H5v-.5C5 .384 9.77.335 9.992 2.352zM11 6H4v7c0 .676.24.961.861.996L5 14h5c.676 0 .961-.24.996-.861L11 13V6zM5.5 7a.5.5 0 01.492.41L6 7.5v5a.5.5 0 01-.992.09L5 12.5v-5a.5.5 0 01.5-.5zm4 0a.5.5 0 01.492.41L10 7.5v5a.5.5 0 01-.992.09L9 12.5v-5a.5.5 0 01.5-.5zm-2 0a.5.5 0 01.492.41L8 7.5v5a.5.5 0 01-.992.09L7 12.5v-5a.5.5 0 01.5-.5zM12 4H3v1h9V4zM6.012 2.41L6 2.5V3h3v-.5c0-.802-2.782-.832-2.988-.09z"/></g></svg>