<?xml version="1.0" encoding="UTF-8"?>
<svg width="16px" height="16px" viewBox="0 0 16 16" version="1.1" xmlns="http://www.w3.org/2000/svg" xmlns:xlink="http://www.w3.org/1999/xlink">
    <!-- Generator: Sketch 53.2 (72643) - https://sketchapp.com -->
    <title>Artboard</title>
    <desc>Created with Sketch.</desc>
    <g id="Artboard" stroke="none" stroke-width="1" fill="none" fill-rule="evenodd">
        <g id="Group-8">
            <path d="M16,8 C16,10.8581247 14.4752087,13.4991409 12,14.9282032 C9.5247914,16.3572656 6.4752086,16.3572656 3.99999997,14.9282032 C1.52479133,13.4991409 -4.25893771e-08,10.8581247 0,8 C-4.25893774e-08,5.14187529 1.52479133,2.50085914 3.99999997,1.07179677 C6.4752086,-0.357265591 9.5247914,-0.357265591 12,1.07179677 C14.4752087,2.50085914 16,5.14187529 16,8 L16,8 Z" id="Shape" fill="#A0A0A0" fill-rule="nonzero"></path>
            <path d="M8.88754952,8.08754263 C8.88756733,8.08905453 8.88757624,8.09056907 8.88757624,8.09208625 C8.88757624,8.09353189 8.88756812,8.09497513 8.88755189,8.09641597 L12.8834675,11.7775652 C12.9612035,11.8544363 13,11.942916 13,12.042721 C13,12.1428092 12.9612035,12.2312888 12.8834675,12.3081599 L12.3002323,12.8846225 C12.2224962,12.9616352 12.133021,13 12.032093,13 C11.9310218,13 11.8415466,12.9616352 11.7638105,12.8846225 L7.86087865,9.24291989 L4.23633265,12.7693866 C4.15859658,12.8462578 4.06912138,12.8846225 3.96805018,12.8846225 C3.86697898,12.8846225 3.77750378,12.8463993 3.69976771,12.7693866 L3.11667567,12.1929241 C3.03879645,12.1160529 3,12.0275733 3,11.9274851 C3,11.8276801 3.03879645,11.7392004 3.11667567,11.6623293 L6.79531472,8.09663955 C6.79529693,8.09512432 6.79528796,8.09360661 6.79528796,8.09208625 C6.79528796,8.09048866 6.79529787,8.088894 6.79531769,8.08730227 L3.11667567,4.33857294 C3.03879645,4.26170182 3,4.17336374 3,4.07327556 C3,3.97318739 3.03879645,3.88484931 3.11667567,3.80797819 L3.69976771,3.23123246 C3.77750378,3.15436134 3.86697898,3.115855 3.96805018,3.115855 C4.06912138,3.115855 4.15859658,3.15436134 4.23633265,3.23123246 L7.86140564,6.90471641 L11.7638105,3.11537746 C11.8415466,3.03850634 11.9310218,3 12.032093,3 C12.133021,3 12.2224962,3.03850634 12.3002323,3.11537746 L12.8834675,3.69212319 C12.9612035,3.76885274 13,3.85733239 13,3.95727899 C13,4.0572256 12.9612035,4.14570525 12.8834675,4.22257637 L8.88754952,8.08754263 Z" id="Combined-Shape" fill="#FFFFFF"></path>
        </g>
    </g>
</svg>