<svg width="87" height="24" data-name="Layer 1" version="1.1" viewBox="0 0 87 24" xmlns="http://www.w3.org/2000/svg">
<defs>
<style>.cls-1 {
        fill: #3a8dde;
      }
      .cls-2 {
        fill: #a2a9ad;
      }</style>
</defs>
<g transform="matrix(1.134199,0,0,1.134199,-11.350206,-11.024912)" style="stroke-width:.88168007">
<g transform="translate(0,2.1674468e-4)" style="stroke-width:.88168007">
<path class="cls-1" d="m18.54873 14.62247v15.37638h-2.36973v-15.37638h-6.179v-2.25721h14.72768v2.25721z" style="fill:#3a8dde;stroke-width:.88168007"/>
<path class="cls-1" d="m27.54847 29.99885v-17.63359h2.37017v17.63359z" style="fill:#3a8dde;stroke-width:.88168007"/>
<path class="cls-1" d="m46.64261 25.00559c0 2.99024-2.003 4.99326-6.54528 4.99326h-6.00992v-17.63359h5.84046c4.26067 0 6.15073 1.9183 6.15073 4.68345 0 1.80576-1.04407 3.13182-3.01886 3.86567 2.34193 0.59224 3.58287 2.11603 3.58287 4.09121zm-6.51744-10.43959h-3.63937v5.5298h3.27266c2.53919 0 3.92175-1.12837 3.92175-2.84941 0-1.69281-1.24094-2.68039-3.55504-2.68039zm-0.169 7.70231h-3.47037v5.53025h3.83706c2.62392 0 3.92218-0.93154 3.92218-2.7651-4e-5 -2.03171-1.80577-2.76518-4.28889-2.76518z" style="fill:#3a8dde;stroke-width:.88168007"/>
<path class="cls-1" d="m62.2778 15.58142a8.269 8.269 0 0 0-4.8242-1.49512c-3.83749 0-6.40491 2.65215-6.40491 7.02538 0 4.37276 2.59569 7.16614 6.46137 7.16614a8.50836 8.50836 0 0 0 4.99326-1.721l0.3949 2.39839a10.65667 10.65667 0 0 1-5.44462 1.4669c-5.16354 0-8.83158-3.58288-8.83158-9.19786 0-5.61456 3.69626-9.28259 8.83158-9.28259a11.10651 11.10651 0 0 1 5.58589 1.46771z" style="fill:#3a8dde;stroke-width:.88168007"/>
</g>
<g transform="translate(0 .0658245)" style="stroke-width:.88168007">
<path class="cls-1" d="m77.5682 13.186a8.13519 8.13519 0 0 0-0.81561-0.44009 31.10369 31.10369 0 0 1-12.03466 12.66645 8.339 8.339 0 0 0 1.20127 1.94021 36.43762 36.43762 0 0 0 11.649-14.16657z" style="fill:#3a8dde;stroke-width:.88168007"/>
<path class="cls-1" d="m76.54308 12.65148a9.55073 9.55073 0 0 0-3.83029-0.76213c-5.18335 0-8.84547 4.0006-8.84547 9.26869a11.29356 11.29356 0 0 0 0.27227 2.508 27.76262 27.76262 0 0 0 12.40349-11.01456z" style="fill:#3a8dde;stroke-width:.88168007"/>
<path class="cls-1" d="m77.76718 13.30989a42.91487 42.91487 0 0 1-10.26765 15.4927 9.03354 9.03354 0 0 0 5.21326 1.53941c5.18414 0 8.84548-4.02884 8.84548-9.29688a8.866 8.866 0 0 0-3.79109-7.73523z" style="fill:#3a8dde;stroke-width:.88168007"/>
</g>
<path class="cls-1" d="m81.55827 12.72563v-0.01346a2.2770088 2.2770088 0 1 1 4.554-0.01265v0.01265a2.2770099 2.2770099 0 1 1-4.554 0.01346zm4.29269-0.01346v-0.01265a2.01579 2.01579 0 1 0-4.03138 0.01265v0.01346a2.01579 2.01579 0 1 0 4.03138-0.01346zm-2.90591-1.20386h1.047c0.51083 0 0.89024 0.2487 0.89024 0.7326a0.69831 0.69831 0 0 1-0.537 0.70731l0.61541 0.87673h-0.53617l-0.54963-0.79834h-0.48477v0.79839h-0.4451zm1.00825 1.15159c0.301 0 0.47125-0.15682 0.47125-0.37936 0-0.24871-0.17028-0.37936-0.47125-0.37936h-0.56315v0.75872z" style="fill:#3a8dde;stroke-width:.88168007"/>
</g>
</svg>
