<?xml version="1.0" encoding="UTF-8" standalone="no"?>
<svg
   xmlns:dc="http://purl.org/dc/elements/1.1/"
   xmlns:cc="http://creativecommons.org/ns#"
   xmlns:rdf="http://www.w3.org/1999/02/22-rdf-syntax-ns#"
   xmlns:svg="http://www.w3.org/2000/svg"
   xmlns="http://www.w3.org/2000/svg"
   viewBox="0 0 117.6 122.66667"
   height="122.66667"
   width="117.6"
   xml:space="preserve"
   id="svg2"
   version="1.1"><metadata
     id="metadata8"><rdf:RDF><cc:Work
         rdf:about=""><dc:format>image/svg+xml</dc:format><dc:type
           rdf:resource="http://purl.org/dc/dcmitype/StillImage" /></cc:Work></rdf:RDF></metadata><defs
     id="defs6" /><g
     transform="matrix(1.3333333,0,0,-1.3333333,0,122.66667)"
     id="g10"><g
       transform="scale(0.1)"
       id="g12"><path
         id="path14"
         style="fill:#5a8fd2;fill-opacity:1;fill-rule:nonzero;stroke:none"
         d="m 820.09,806.688 h 4.004 v 26.269 h 10.566 v 3.863 h -25.117 v -3.863 h 10.547 v -26.269" /><path
         id="path16"
         style="fill:#5a8fd2;fill-opacity:1;fill-rule:nonzero;stroke:none"
         d="m 842.941,831.809 9.211,-24.68 h 4.102 l 9.148,24.629 0.293,-25.07 h 4.141 l -0.957,30.132 h -5.359 l -9.211,-24.777 -9.239,24.777 h -5.457 l -1.008,-30.132 h 3.997 l 0.339,25.121" /><path
         id="path18"
         style="fill:#5a8fd2;fill-opacity:1;fill-rule:nonzero;stroke:none"
         d="m 683.09,855.348 c -13.078,8.019 -26.613,15.355 -40.695,21.941 C 527.484,656.953 318.68,394.863 42.4102,245.77 58.3359,210.027 78.4727,177.695 102.301,149.031 339.84,312.371 559.848,585.531 683.09,855.348" /><path
         id="path20"
         style="fill:#5a8fd2;fill-opacity:1;fill-rule:nonzero;stroke:none"
         d="M 631.977,881.977 C 575.129,906.723 510.805,919.969 440.965,919.969 182.582,919.969 0.00390625,720.527 0.00390625,457.887 0.00390625,413.586 4.70313,371.816 13.5781,332.832 277.945,440.586 512.863,678.16 631.977,881.977" /><path
         id="path22"
         style="fill:#5a8fd2;fill-opacity:1;fill-rule:nonzero;stroke:none"
         d="M 693,849.172 C 557.375,515.707 392.145,279.695 181.109,76.7383 252.395,27.2344 341.121,0 440.965,0 699.477,0 882.016,200.84 882.016,463.508 882.016,637.555 809.934,772.527 693,849.172" /></g></g></svg>