<svg id="SVGRoot" width="16px" height="16px" version="1.1" viewBox="0 0 16 16" xmlns="http://www.w3.org/2000/svg">
<g>
<path d="m0.5 2c0 0.8 0.7 1.5 1.5 1.5s1.5-0.7 1.5-1.5-0.7-1.5-1.5-1.5-1.5 0.7-1.5 1.5c0 6 3 6 3 12 0-0.8-0.7-1.5-1.5-1.5s-1.5 0.7-1.5 1.5 0.7 1.5 1.5 1.5 1.5-0.7 1.5-1.5c0 0.8-0.5 1.5-1.5 1.5h12c0.8-4.35e-4 1.5-0.7 1.5-1.5 0-5.5-2.5-6-3-10.5h-10.5 12c0.8 0 1.5-0.7 1.5-1.5 0-1-0.7-1.5-1.5-1.5h-12m2 6h7m-6 3h7m-6 3h7" style="fill-rule:evenodd;fill:#ffffff;stroke-width:1px;stroke:#000000"/>
</g>
</svg>
