<svg width="10" height="200" version="1.1" xmlns="http://www.w3.org/2000/svg">
<defs>
<clipPath id="clipPath6939">
<rect transform="matrix(-.70711 .70711 .70711 .70711 0 0)" x="-5.3536" y="1.7175" width="10" height="10" style="color:#000000;fill:#00cb00"/>
</clipPath>
</defs>
<g transform="translate(0,-1400)" style="display:none">
<rect y="1410" width="10" height="190" style="color:#000000;display:inline;fill-opacity:.50196;fill-rule:evenodd;fill:#000000"/>
</g>
<g transform="translate(0 -852.36)">
<path d="m5.2321 862.4c0.41518 1e-5 0.79464 0.0692 1.1518 0.16071 0.35714 0.0915 0.67187 0.23216 0.9375 0.42858 0.26562 0.19643 0.46651 0.4442 0.61607 0.75 0.14955 0.30581 0.21428 0.66965 0.21429 1.0982-5e-6 0.27233-0.017863 0.52903-0.080357 0.75-0.062507 0.22099-0.14733 0.41965-0.26786 0.61607-0.12054 0.19644-0.27679 0.3817-0.45536 0.5625-0.17858 0.18081-0.38393 0.37054-0.61607 0.5625-0.15625 0.12947-0.31027 0.2634-0.42857 0.375-0.11831 0.11161-0.21652 0.21206-0.29464 0.32143-0.078129 0.10938-0.12054 0.22545-0.16072 0.34821-0.040181 0.12278-0.08036 0.24554-0.080357 0.40179-3e-6 0.10715 0.024551 0.23661 0.053572 0.34821 0.029014 0.11162 0.058032 0.19197 0.10714 0.26786h-1.7411c-0.044644-0.11607-0.082591-0.22991-0.10714-0.375-0.024555-0.14508-0.026787-0.2991-0.026785-0.42857-2e-6 -0.20535 0.013391-0.39285 0.053571-0.5625 0.040176-0.16964 0.080355-0.33258 0.16071-0.48214 0.080356-0.14955 0.20089-0.29241 0.32143-0.42857 0.12053-0.13616 0.26785-0.26786 0.42857-0.40179 0.16964-0.14285 0.30134-0.27901 0.42857-0.40179 0.12723-0.12276 0.23214-0.22543 0.32143-0.34821 0.089283-0.12276 0.16964-0.27008 0.21429-0.40179 0.044639-0.13168 0.053568-0.26785 0.053571-0.42857-4e-6 -0.13838-0.00447-0.25669-0.053571-0.375-0.049111-0.11829-0.12277-0.2366-0.21429-0.32143-0.09152-0.0848-0.21652-0.13838-0.34821-0.1875-0.1317-0.0491-0.26786-0.0803-0.42857-0.0804-0.34822 1e-5 -0.72322 0.0692-1.0982 0.21428-0.375 0.14515-0.73661 0.37506-1.0714 0.6697v-2.0089c0.34375-0.20535 0.71875-0.37946 1.125-0.48215 0.40625-0.10266 0.85268-0.1607 1.2857-0.16071zm-0.080357 7.7143c0.35268 0 0.65178 0.1116 0.88393 0.32142 0.23214 0.20536 0.34821 0.45983 0.34822 0.77679-5e-6 0.32143-0.12054 0.59375-0.34822 0.80357-0.23215 0.20982-0.52679 0.32143-0.88393 0.32143-0.35714 0-0.64732-0.10714-0.88393-0.32143-0.23661-0.22321-0.34822-0.5-0.34821-0.80357-2e-6 -0.3125 0.1116-0.56696 0.34821-0.77679 0.2366-0.20982 0.52678-0.32142 0.88393-0.32142z" style="fill:#ffffff"/>
<g transform="matrix(-.70711 .70711 .70711 .70711 5.3536 870.64)" clip-path="url(#clipPath6939)">
<path transform="matrix(-1,0,0,1,10,-182)" d="m1.3438 184a0.50005 0.50005 0 0 0-0.34375 0.5v1h1v-0.5h6v0.5h1v-1a0.50005 0.50005 0 0 0-0.5-0.5h-7a0.50005 0.50005 0 0 0-0.09375 0 0.50005 0.50005 0 0 0-0.0625 0zm-0.34375 3.5v1a0.50005 0.50005 0 0 0 0.5 0.5h7a0.50005 0.50005 0 0 0 0.5-0.5v-1h-1v0.5h-6v-0.5z" style="color:#000000;fill:#ffffff;text-decoration-line:none;text-indent:0;text-transform:none"/>
<path d="m14 4.5h-7" style="fill:none;stroke-linecap:round;stroke-width:1px;stroke:#ffffff"/>
<path d="m3 4.5h-7" style="fill:none;stroke-linecap:round;stroke-width:1px;stroke:#ffffff"/>
</g>
<path d="m4.5 890.86 4-3.5-4-3.5z" style="fill-opacity:.50196;fill:#ffffff;stroke-linejoin:round;stroke:#ffffff"/>
<path d="m4.5 900.86 4-3.5-4-3.5z" style="fill:none;stroke-linejoin:round;stroke:#ffffff"/>
<path d="m1.5 905.86 3.5 4 3.5-4z" style="fill:none;stroke-linejoin:round;stroke:#ffffff"/>
<path d="m1.5 915.86 3.5 4 3.5-4z" style="fill-opacity:.50196;fill:#ffffff;stroke-linejoin:round;stroke:#ffffff"/>
<path d="m8.5 928.86-3.5-4-3.5 4z" style="fill:#ffffff;stroke-linejoin:round;stroke:#fefefe"/>
<path d="m8.5 934.86-3.5 4-3.5-4z" style="fill:#ffffff;stroke-linejoin:round;stroke:#fefefe"/>
<path d="m6.5 950.86-4-3.5 4-3.5z" style="fill:#ffffff;stroke-linejoin:round;stroke:#ffffff"/>
<path d="m3.5 960.86 4-3.5-4-3.5z" style="fill:#ffffff;stroke-linejoin:round;stroke:#ffffff"/>
<path d="m4.5 965.36h1l4 4h-2l-2.5-2.5-2.5 2.5h-2z" style="fill:#ffffff"/>
<path d="m4.5 979.36h1l4-4h-2l-2.5 2.5-2.5-2.5h-2z" style="fill:#ffffff"/>
<path d="m5.5 994.86-2 2.5 2 2.5" style="fill:none;stroke-linecap:square;stroke-width:2;stroke:#ffffff"/>
<path d="m4.5 1004.9 2 2.5-2 2.5" style="fill:none;stroke-linecap:square;stroke-width:2;stroke:#ffffff"/>
<g transform="translate(0,-70)" style="stroke:#ffffff">
<path d="m2.5 1084.9 2 2.5-2 2.5" style="fill:none;stroke-linecap:square;stroke-width:2;stroke:#ffffff"/>
<path d="m8 1084.4v6" style="fill:none;stroke-linecap:square;stroke-width:2;stroke:#ffffff"/>
</g>
<g transform="translate(0 982.36)" style="stroke:#ffffff">
<path d="m7.5 2.5-2 2.5 2 2.5" style="fill:none;stroke-linecap:square;stroke-width:2;stroke:#ffffff"/>
<path d="m2 2v6" style="fill:none;stroke-linecap:square;stroke-width:2;stroke:#ffffff"/>
</g>
<path d="m7 1031.4v-8l-4 4z" style="fill-rule:evenodd;fill:#ffffff"/>
<path d="m3 1041.4v-8l4 4z" style="fill-rule:evenodd;fill:#ffffff"/>
<path d="m1.5 1043.9h7l-3 3v4.5l-1-0.5v-4z" style="fill-rule:evenodd;fill:#ffffff;stroke-linejoin:round;stroke:#ffffff"/>
</g>
</svg>
