<svg width="80" height="80" version="1.1" xmlns="http://www.w3.org/2000/svg">
<g style="display:none">
<rect width="80" height="80" style="fill:#808080"/>
</g>
<g transform="translate(0,64)">
<path d="m70 16 3e-6 -5.75c-1.9459-4.6832-3.5951-12.56-7.8434-13.404l-13.13-2.6079-2.3901-5.4588c4.3383-4.1794 5.4482-11.972 6.1304-19.001 0.6822-7.0291-1.5171-15.778-12.767-15.778-11.25 0-14.316 8.9175-13.415 16.313 0.88523 7.268 2.344 12.693 5.882 18.58-0.1629 1.9006-0.75691 3.3647-1.7227 5.2159l-13.859 3.0939c-5.214 1.164-5.4981 9.0505-6.885 13.048l-3e-6 5.75" style="fill-opacity:.50196;fill:#ffffff;stroke-width:4;stroke:#ffffff"/>
</g>
</svg>
