<svg width="16" height="16" version="1.1" xmlns="http://www.w3.org/2000/svg">
<g transform="translate(0 -1036.4)">
<path d="m15.5 1039.9-1 2-1-1-1 1-1-1-1 1h-1.1562l-0.84375-1-1 1h-1c-0.5 1-1.5 2-3.5 2-1 0-2.5-1-2.5-2v-3c0-1 1.5-2 2.5-2 2 0 3 1 3.5 2h8l1 1z" style="fill-rule:evenodd;fill:#ffffff;stroke-linecap:round;stroke-linejoin:round;stroke-width:1px;stroke:#808080"/>
<path transform="translate(-5 291.36)" d="m8.5 749a0.5 0.5 0 1 1-1 0 0.5 0.5 0 1 1 1 0z" style="fill:#ffffff;stroke-linecap:square;stroke-linejoin:round;stroke:#808080"/>
<rect x="2" y="1046.4" width="5" height="4" rx="2" ry="1.5" style="fill:none;stroke-linecap:round;stroke-linejoin:round;stroke-width:4;stroke:#808080"/>
<rect x="2" y="1046.4" width="5" height="4" rx="2" ry="1.5" style="fill:none;stroke-linecap:round;stroke-linejoin:round;stroke-width:2;stroke:#ffffff"/>
<rect x="9" y="1046.4" width="5" height="4" rx="2" ry="1.5" style="fill:none;stroke-linecap:round;stroke-linejoin:round;stroke-width:4;stroke:#808080"/>
<rect x="9" y="1046.4" width="5" height="4" rx="2" ry="1.5" style="fill:none;stroke-linecap:round;stroke-linejoin:round;stroke-width:2;stroke:#ffffff"/>
<path d="m6 1048.4h4" style="fill:none;stroke-linecap:round;stroke-linejoin:round;stroke-width:4;stroke:#808080"/>
<path d="m6 1048.4h4" style="fill:none;stroke-linecap:round;stroke-linejoin:round;stroke-width:2;stroke:#ffffff"/>
</g>
</svg>
