<svg width="120" height="80" version="1.1" xmlns="http://www.w3.org/2000/svg" xmlns:xlink="http://www.w3.org/1999/xlink">
<g transform="translate(0 -972.36)">
<path transform="translate(0 972.36)" d="m0 40v40h40v-40h-40zm19.594 10.938s3.5756 4.6712 4.0625 3.1875c0.59026-1.7953 1.8348-3.7624 3.9375-1.5625 0 0 1.7515 1.608 0.6875 2.625-1.064 1.017-2.1738 0.7439-2.4688 1.6875-0.29232 0.9447 3.5 2.625 3.5 2.625s-1.5992 4.1642-3.2812 3.4688c-1.6822-0.6962-0.21582-2.6632-2.5938-2.7188-1.0292 0.01-2.5632 0.9165-2.5938 2.375 0.29132 2.1137 1.5274 1.3254 2.6562 2.2812 1.1315 0.9529-2.8125 4.1562-2.8125 4.1562s-1.7978-2.8232-3.625-3.0625c-1.8277-0.2416-0.39555 1.7906-1.9062 2.375-1.508 0.599-4.0467-1.1431-3.3438-3.1875 0.70439-2.0495 2.522-0.5036 2.375-2-0.14558-1.5144-3.5-2.875-3.5-2.875s2.0272-4.1189 3.7812-3.625c1.7548 0.4938 0.091644 2.2328 1.7812 2.6562 1.6888 0.4237 3.8746-0.9074 2.9688-2.875s-1.5721-0.3399-2.5-1.3125c-0.92943-0.9723 2.875-4.2188 2.875-4.2188z" style="color:#000000;fill-rule:evenodd;fill:#000000"/>
<use transform="translate(53 800.36)" width="256" height="512" xlink:href="#use7753"/>
<use transform="translate(47 796.36)" width="256" height="512" xlink:href="#use7753"/>
<path transform="translate(0 972.36)" d="m40 40v40h40v-40h-40zm19.594 10.938s3.5756 4.6712 4.0625 3.1875c0.59026-1.7953 1.8348-3.7624 3.9375-1.5625 0 0 1.7515 1.608 0.6875 2.625-1.064 1.017-2.1738 0.7439-2.4688 1.6875-0.29232 0.9447 3.5 2.625 3.5 2.625s-1.5992 4.1642-3.2812 3.4688c-1.6822-0.6962-0.21582-2.6632-2.5938-2.7188-1.0292 0.01-2.5632 0.9165-2.5938 2.375 0.29132 2.1137 1.5274 1.3254 2.6562 2.2812 1.1315 0.9529-2.8125 4.1562-2.8125 4.1562s-1.7978-2.8232-3.625-3.0625c-1.8277-0.2416-0.39555 1.7906-1.9062 2.375-1.508 0.599-4.0467-1.1431-3.3438-3.1875 0.70439-2.0495 2.522-0.5036 2.375-2-0.14558-1.5144-3.5-2.875-3.5-2.875s2.0272-4.1189 3.7812-3.625c1.7548 0.4938 0.091644 2.2328 1.7812 2.6562 1.6888 0.4237 3.8746-0.9074 2.9688-2.875s-1.5721-0.3399-2.5-1.3125c-0.92943-0.9723 2.875-4.2188 2.875-4.2188z" style="color:#000000;fill-rule:evenodd;fill:#808080"/>
<path transform="translate(0 972.36)" d="m80 40v40h40v-40h-40zm19.594 10.938s3.5756 4.6712 4.0625 3.1875c0.59027-1.7953 1.8348-3.7624 3.9375-1.5625 0 0 1.7515 1.608 0.6875 2.625s-2.1738 0.7439-2.4688 1.6875c-0.29233 0.9447 3.5 2.625 3.5 2.625s-1.5992 4.1642-3.2812 3.4688c-1.6822-0.6962-0.21582-2.6632-2.5938-2.7188-1.0292 0.01-2.5632 0.9165-2.5938 2.375 0.29132 2.1137 1.5274 1.3254 2.6562 2.2812 1.1315 0.9529-2.8125 4.1562-2.8125 4.1562s-1.7978-2.8232-3.625-3.0625c-1.8277-0.2416-0.39555 1.7906-1.9062 2.375-1.508 0.599-4.0467-1.1431-3.3438-3.1875 0.70439-2.0495 2.522-0.5036 2.375-2-0.14558-1.5144-3.5-2.875-3.5-2.875s2.0272-4.1189 3.7812-3.625c1.7548 0.4938 0.091644 2.2328 1.7812 2.6562 1.6888 0.4237 3.8746-0.9074 2.9688-2.875-0.90589-1.9676-1.5721-0.3399-2.5-1.3125-0.92943-0.9723 2.875-4.2188 2.875-4.2188z" style="color:#000000;fill-rule:evenodd;fill:#ffffff"/>
<path id="jigsaw" d="m10.672 992.68s2.0437-4.1193 3.7977-3.6254c1.7548 0.49377 0.08413 2.2214 1.7737 2.6449 1.6888 0.42368 3.8707-0.90728 2.9648-2.8749-0.90589-1.9676-1.5553-0.3302-2.4832-1.3028-0.92943-0.97232 2.8818-4.2128 2.8818-4.2128s3.5612 4.6573 4.0481 3.1736c0.59026-1.7952 1.8516-3.76 3.9543-1.56 0 0 1.751 1.603 0.68696 2.6201-1.064 1.017-2.1917 0.76453-2.4867 1.7081-0.29232 0.94473 3.5184 2.6179 3.5184 2.6179s-1.6141 4.1526-3.2961 3.4571c-1.6822-0.69625-0.21298-2.6535-2.5909-2.709-1.0292 0.01-2.5808 0.91414-2.6113 2.3726 0.29132 2.1138 1.5328 1.3309 2.6616 2.2867 1.1315 0.95293-2.809 4.144-2.809 4.144s-1.793-2.8078-3.6202-3.0471c-1.8277-0.24163-0.38017 1.7887-1.8909 2.3731-1.508 0.599-4.071-1.1563-3.368-3.2007 0.70439-2.0495 2.5268-0.50946 2.3798-2.0059-0.14558-1.5143-3.5107-2.8595-3.5107-2.8595z" style="fill:#000000"/>
<path d="m50.672 992.68s2.0437-4.1193 3.7977-3.6254c1.7548 0.49377 0.08413 2.2214 1.7737 2.6449 1.6888 0.42368 3.8707-0.90728 2.9648-2.8749-0.90589-1.9676-1.5553-0.3302-2.4832-1.3028-0.92943-0.97232 2.8818-4.2128 2.8818-4.2128s3.5612 4.6573 4.0481 3.1736c0.59026-1.7952 1.8516-3.76 3.9543-1.56 0 0 1.751 1.603 0.68696 2.6201-1.064 1.017-2.1917 0.76453-2.4867 1.7081-0.29232 0.94473 3.5184 2.6179 3.5184 2.6179s-1.6141 4.1526-3.2961 3.4571c-1.6822-0.69625-0.21298-2.6535-2.5909-2.709-1.0292 0.01-2.5808 0.91414-2.6113 2.3726 0.29132 2.1138 1.5328 1.3309 2.6616 2.2867 1.1315 0.95293-2.809 4.144-2.809 4.144s-1.793-2.8078-3.6202-3.0471c-1.8277-0.24163-0.38017 1.7887-1.8909 2.3731-1.508 0.599-4.071-1.1563-3.368-3.2007 0.70439-2.0495 2.5268-0.50946 2.3798-2.0059-0.14558-1.5143-3.5107-2.8595-3.5107-2.8595z" style="fill:#808080"/>
<path d="m90.672 992.68s2.0437-4.1193 3.7977-3.6254c1.7548 0.49377 0.08413 2.2214 1.7737 2.6449 1.6888 0.42368 3.8707-0.90728 2.9648-2.8749-0.90589-1.9676-1.5553-0.3302-2.4832-1.3028-0.92943-0.97232 2.8818-4.2128 2.8818-4.2128s3.5612 4.6573 4.0481 3.1736c0.59027-1.7952 1.8516-3.76 3.9543-1.56 0 0 1.751 1.603 0.68697 2.6201s-2.1918 0.76453-2.4867 1.7081c-0.29233 0.94473 3.5184 2.6179 3.5184 2.6179s-1.614 4.1526-3.2961 3.4571c-1.6822-0.69625-0.21298-2.6535-2.5909-2.709-1.0292 0.01-2.5808 0.91414-2.6113 2.3726 0.29132 2.1138 1.5328 1.3309 2.6616 2.2867 1.1315 0.95293-2.809 4.144-2.809 4.144s-1.793-2.8078-3.6202-3.0471c-1.8277-0.24163-0.38017 1.7887-1.8909 2.3731-1.508 0.599-4.071-1.1563-3.368-3.2007 0.70439-2.0495 2.5268-0.50946 2.3798-2.0059-0.14558-1.5143-3.5107-2.8595-3.5107-2.8595z" style="fill:#ffffff"/>
</g>
</svg>
