<?xml version="1.0" encoding="UTF-8"?>
<svg width="7px" height="12px" viewBox="0 0 7 12" version="1.1" xmlns="http://www.w3.org/2000/svg" xmlns:xlink="http://www.w3.org/1999/xlink">
    <!-- Generator: Sketch 61.2 (89653) - https://sketch.com -->
    <title>Icon / Arrow-right</title>
    <desc>Created with Sketch.</desc>
    <g id="DMDV-Design-System" stroke="none" stroke-width="1" fill="none" fill-rule="evenodd">
        <g id="DMDV-/-Design-system" transform="translate(-471.000000, -1499.000000)" fill="#606060">
            <g id="Icon-/-Arrow-right" transform="translate(471.000000, 1499.000000)">
                <path d="M6.88550318,5.76032424 L0.278578407,0.0567543004 C0.202308256,-0.0102159522 0.13678554,-0.0178995081 0.0820713239,0.033608774 C0.027357108,0.0851170561 8.8817842e-16,0.177888879 8.8817842e-16,0.311829384 L8.8817842e-16,11.6880453 C8.8817842e-16,11.8220807 0.027357108,11.9148525 0.0820713239,11.9663608 C0.13678554,12.0178691 0.202308256,12.0102804 0.278578407,11.9432153 L6.88550318,6.23964533 C6.96183439,6.17258022 7,6.09251946 7,5.99993736 C7,5.90716553 6.96183439,5.82729449 6.88550318,5.76032424 L6.88550318,5.76032424 Z" id="Shape" transform="translate(3.500000, 6.000000) scale(-1, 1) rotate(-180.000000) translate(-3.500000, -6.000000) "></path>
            </g>
        </g>
    </g>
</svg>