<?xml version="1.0" encoding="UTF-8"?>
<svg width="11px" height="14px" viewBox="0 0 11 14" version="1.1" xmlns="http://www.w3.org/2000/svg" xmlns:xlink="http://www.w3.org/1999/xlink">
    <!-- Generator: sketchtool 57.1 (101010) - https://sketch.com -->
    <title>C04BF554-CC6B-4019-BF86-9F789258D18F</title>
    <desc>Created with sketchtool.</desc>
    <g id="DMDV-Design-System" stroke="none" stroke-width="1" fill="none" fill-rule="evenodd">
        <g id="DMDV-/-Design-system" transform="translate(-921.000000, -1496.000000)" fill="#606060">
            <g id="Icon-/-Bin" transform="translate(921.000000, 1496.000000)">
                <path d="M3.44,1 L0,1 L0,2 L1,2 L1,12 C1,13 1,14 2.0625,14 L8.9375,14 C10,14 10,13 10,12 L10,2 L11,2 L11,1 L7.56,1 L7.5625,0 L3.4375,0 L3.44,1 Z M9,2 L9,13 L2,13 L2,2 L9,2 Z M3.5,11 L4.5,11 L4.5,4 L3.5,4 L3.5,11 Z M6.5,4 L6.5,11 L7.5,11 L7.5,4 L6.5,4 Z" id="Shape"></path>
            </g>
        </g>
    </g>
</svg>