<?xml version="1.0" encoding="UTF-8"?>
<svg width="40px" height="40px" viewBox="0 0 40 40" version="1.1" xmlns="http://www.w3.org/2000/svg" xmlns:xlink="http://www.w3.org/1999/xlink">
    <!-- Generator: Sketch 61.2 (89653) - https://sketch.com -->
    <title>drag and drop</title>
    <desc>Created with Sketch.</desc>
    <g id="Page-1" stroke="none" stroke-width="1" fill="none" fill-rule="evenodd">
        <g id="drag-and-drop" fill="#606060" fill-rule="nonzero">
            <path d="M24,11 C24.5125554,11 24.9354671,11.3862318 24.993268,11.8833699 L24.998,11.96 L27.3656234,14.3699806 C27.5641828,14.5722598 27.7523203,14.7823221 27.929759,14.9994884 L35.8333594,15 C38.0604048,15 39.8862749,16.7583838 39.9948886,18.9590706 L40,19.1666406 L40,35.8333594 C40,38.0604048 38.2416162,39.8862749 36.0408582,39.9948886 L35.8332813,40 L19.1666406,40 C16.9395952,40 15.1137251,38.2416162 15.0051114,36.0408582 L15,35.8332813 L15,29.1666406 C15,29.1263512 15.0028635,29.086727 15.0083981,29.0479606 C14.0848809,28.2783918 13.4938396,27.1079157 13.4937522,25.8002074 L13.4937522,25.8002074 L13.4946281,24.8691556 C13.3807098,24.9341668 13.2527992,24.9774273 13.1165653,24.9932677 L13,25 L12,25 C11.4480172,25 11,24.5520555 11,24.0000469 C11,23.4874674 11.3863006,23.0645359 11.8834347,23.0067323 L12,23 L13,23 C13.1798872,23 13.3487327,23.0475745 13.4946281,23.1308211 L13.4937522,22.7880711 L12.7543038,22.0354899 C12.2673991,21.5415912 12,20.8813796 12,20.1808499 C12,19.4803201 12.2673991,18.8217622 12.7543038,18.3262099 C13.1570274,17.9162551 13.6703934,17.6592261 14.2266239,17.5819757 C14.1771055,16.8512073 14.4263221,16.1036658 14.974351,15.5459036 C15.5471392,14.9630212 16.3691439,14.690873 17.1564857,14.8034019 C17.2505706,14.3061958 17.4850091,13.8307238 17.8629734,13.4460467 C18.5562304,12.7404771 19.6324036,12.5036073 20.5320128,12.8227673 C20.6525591,12.4363577 20.8637858,12.0718397 21.164223,11.7660666 C21.8265819,11.091944 22.7642848,10.8627317 23.6138862,11.0784299 C23.73198,11.0276891 23.8627774,11 24,11 Z M29.0134386,16.6661899 C29.6584073,17.9436991 30,19.3676634 30,20.8443687 C30,25.8925772 25.9642539,30 21.0041394,30 L21.0041394,30 L17.6204108,30 C17.29213,30 16.9726509,29.9607359 16.6662709,29.8865817 L16.6666406,35.8333594 C16.6666406,37.1565844 17.7003446,38.2432174 19.0025251,38.3280309 L19.1666406,38.3333594 L35.8333594,38.3333594 C37.1565844,38.3333594 38.2432174,37.2996554 38.3280309,35.9974749 L38.3333594,35.8333594 L38.3333594,19.1667188 C38.3333594,17.8434938 37.2996554,16.7568608 35.9974749,16.6720473 L35.8333594,16.6667188 L29.0134386,16.6661899 Z M23.000228,12.6795272 C22.7585481,12.675801 22.5156724,12.7677385 22.3312314,12.9554553 C22.1562923,13.1318477 22.0588804,13.3687175 22.0588804,13.6207066 C22.0588804,13.8726958 22.1546675,14.1095655 22.3296066,14.2859579 C22.4913923,14.4506171 22.5722465,14.6655953 22.5722465,14.8806523 C22.5722465,15.0957092 22.4913149,15.3106875 22.3312314,15.4753466 C22.0093621,15.8029325 21.4860923,15.8029325 21.164223,15.4753466 L21.164223,15.4753466 L20.3388913,14.6353566 C19.9890131,14.2791857 19.3799373,14.2791857 19.0299818,14.6353566 C18.6684978,15.0032607 18.6684978,15.5996088 19.0299818,15.9675129 L19.0299818,15.9675129 L19.8553136,16.8075029 C20.0154745,16.9705084 20.0963287,17.1854866 20.0963287,17.4005436 C20.0963287,17.6156005 20.0153971,17.8305788 19.8553136,17.9952379 C19.5334442,18.3228238 19.0101745,18.3228238 18.6883052,17.9952379 L18.6883052,17.9952379 L17.4503462,16.7352923 C17.1004681,16.3791214 16.4913923,16.3791214 16.1414368,16.7352923 C15.7799528,17.1031964 15.7799528,17.6995444 16.1414368,18.0674485 L16.1414368,18.0674485 L18.2047275,20.1673842 C18.3648884,20.3303897 18.4457426,20.5453679 18.4457426,20.7604249 C18.4457426,20.9754818 18.364811,21.1904601 18.2047275,21.3551192 C17.8828581,21.6827051 17.3595884,21.6827051 17.0377191,21.3551192 L17.0377191,21.3551192 L15.230299,19.5155986 C14.8804209,19.1594277 14.2713451,19.1594277 13.9213896,19.5155986 C13.7463732,19.6936446 13.6506635,19.9305144 13.6506635,20.1808499 C13.6506635,20.4311853 13.7464505,20.6697088 13.9213896,20.8461012 L13.9213896,20.8461012 L18.2047275,25.2055131 C18.3648884,25.3701722 18.4457426,25.5851505 18.4457426,25.8002074 C18.4457426,26.0152644 18.364811,26.2302426 18.2047275,26.3949018 C17.8828581,26.7224876 17.3595884,26.7224876 17.0377191,26.3949018 L17.0377191,26.3949018 L15.144493,24.4680512 L15.144493,25.8002074 C15.144493,27.1895337 16.255329,28.3200987 17.6204108,28.3200987 L17.6204108,28.3200987 L21.0041394,28.3200987 C25.054741,28.3200987 28.3493365,24.9669109 28.3493365,20.8444475 C28.3493365,19.2506398 27.8619549,17.7318128 26.959464,16.4659607 C26.8671765,16.3884157 26.7931487,16.2911513 26.742463,16.1809596 C26.5751752,15.9642485 26.3930116,15.7572184 26.198615,15.5593692 L26.198615,15.5593692 L24.5223236,13.8527559 C24.3702751,13.9461381 24.1913869,14 24,14 C23.4874446,14 23.0645329,13.6136873 23.006732,13.1165377 L23,12.9999688 L23.000228,12.6795272 Z M8.2983594,23.3333594 C8.7583594,23.3333594 9.1317187,23.7066406 9.1317187,24.1666406 C9.1317187,24.591256 8.8135901,24.9420474 8.4028447,24.9935028 L8.2983594,25 L6.6133594,25 C6.1533594,25 5.78,24.6267187 5.78,24.1667188 C5.78,23.7421034 6.0981287,23.3913119 6.508874,23.3398566 L6.6133594,23.3333594 L8.2983594,23.3333594 Z M2.4067187,22.6067187 C2.7067188,22.905 3.08,23.1233594 3.4833594,23.2383594 C3.9266406,23.3633594 4.1833594,23.825 4.0567188,24.2684375 C3.9533594,24.6350781 3.6183594,24.8734375 3.2567187,24.8734375 C3.1817188,24.8734375 3.105,24.8634375 3.0283594,24.8417969 C2.3533594,24.6500781 1.7317187,24.2867969 1.2317187,23.7884375 C0.905,23.4650781 0.9033594,22.9367187 1.2283594,22.6100781 C1.5533594,22.2850781 2.0817188,22.2817187 2.4067187,22.6067187 Z M0.8332812,17.5766406 C1.2578966,17.5766406 1.6086881,17.8947693 1.6601434,18.3055147 L1.6666406,18.41 L1.6666406,20.095 C1.6666406,20.555 1.2933594,20.9283594 0.8333594,20.9283594 C0.408744,20.9283594 0.0579526,20.6102307 0.0064972,20.1994853 L0,20.095 L0,18.41 C0,17.95 0.3732812,17.5766406 0.8332812,17.5766406 Z M0.8333594,12.5216406 C1.2579748,12.5216406 1.6087662,12.8397693 1.6602216,13.2505147 L1.6667188,13.355 L1.6667188,15.04 C1.6667188,15.5 1.2933594,15.8733594 0.8333594,15.8733594 C0.408744,15.8733594 0.0579526,15.5552307 0.0064972,15.1444853 L0,15.04 L0,13.355 C0,12.895 0.3733594,12.5216406 0.8333594,12.5216406 Z M0.8333594,7.4682813 C1.2579748,7.4682813 1.6087662,7.7864099 1.6602216,8.1971553 L1.6667188,8.3016406 L1.6667188,9.9866406 C1.6667188,10.4466406 1.2933594,10.82 0.8333594,10.82 C0.408744,10.82 0.0579526,10.5018713 0.0064972,10.091126 L0,9.9866406 L0,8.3016406 C0,7.8416406 0.3733594,7.4682813 0.8333594,7.4682813 Z M24.1666406,5.75 C24.591256,5.75 24.9420474,6.0666642 24.9935028,6.4785361 L25,6.5833594 L25,8.2683594 C25,8.7283594 24.6266406,9.1017188 24.1666406,9.1017188 C23.7420252,9.1017188 23.3912338,8.7835901 23.3397784,8.3728447 L23.3332813,8.2683594 L23.3332813,6.5833594 C23.3332813,6.1233594 23.7066406,5.75 24.1666406,5.75 Z M1.1850781,2.4582813 C1.6284375,2.5832813 1.8850781,3.0432813 1.7600781,3.4866406 C1.7137891,3.6516406 1.6844189,3.8213428 1.672627,3.9936047 L1.6667188,4.1666406 L1.6667188,4.9316406 C1.6667188,5.3916406 1.2933594,5.765 0.8333594,5.765 C0.408744,5.765 0.0579526,5.4468713 0.0064972,5.036126 L0,4.9316406 L0,4.1666406 C0,3.7833594 0.0533594,3.4016406 0.1567188,3.0332813 C0.2817188,2.5882813 0.7450781,2.3266406 1.1850781,2.4582813 Z M23.7632813,1.2032812 C24.265,1.7 24.635,2.3182813 24.8316406,2.9916406 C24.9616406,3.4333594 24.7066406,3.895 24.265,4.025 C24.1866406,4.05 24.1082813,4.06 24.0316406,4.06 C23.67,4.06 23.3383594,3.8233594 23.2315625,3.4599219 C23.1149219,3.0582813 22.8915625,2.6882813 22.5915625,2.3882813 C22.2649219,2.0649219 22.2615625,1.5365625 22.5849219,1.2099219 C22.9082813,0.8816406 23.4366406,0.8799219 23.7632813,1.2032812 Z M4.9016406,0 C5.3616406,0 5.735,0.3732813 5.735,0.8332812 C5.735,1.2578966 5.4182692,1.6086881 5.0064486,1.6601434 L4.9016406,1.6666406 L4.1666406,1.6666406 C3.9266406,1.6666406 3.6916406,1.7 3.465,1.7666406 C3.3866406,1.79 3.3083594,1.8 3.23,1.8 C2.87,1.8 2.5366406,1.565 2.43,1.2016406 C2.3016406,0.76 2.555,0.2966406 2.9966406,0.1666406 C3.2993281,0.0786406 3.6116156,0.0247906 3.9283431,0.0067706 L4.1666406,0 L4.9016406,0 Z M20.065,0 C20.525,0 20.8983594,0.3733594 20.8983594,0.8333594 C20.8983594,1.2579748 20.5802307,1.6087662 20.1694853,1.6602216 L20.065,1.6667188 L18.38,1.6667188 C17.92,1.6667188 17.5466406,1.2933594 17.5466406,0.8333594 C17.5466406,0.408744 17.8647693,0.0579526 18.2755147,0.0064972 L18.38,0 L20.065,0 Z M15.0116406,0 C15.4716406,0 15.845,0.3733594 15.845,0.8333594 C15.845,1.2579748 15.5268713,1.6087662 15.1148356,1.6602216 L15.01,1.6667188 L13.3266406,1.6667188 C12.8666406,1.6667188 12.4932813,1.2933594 12.4932813,0.8333594 C12.4932813,0.408744 12.810012,0.0579526 13.2218327,0.0064972 L13.3266406,0 L15.0116406,0 Z M9.9566406,0 C10.4166406,0 10.79,0.3733594 10.79,0.8333594 C10.79,1.2579748 10.4718713,1.6087662 10.061126,1.6602216 L9.9566406,1.6667188 L8.2716406,1.6667188 C7.8116406,1.6667188 7.4382813,1.2933594 7.4382813,0.8333594 C7.4382813,0.408744 7.7564099,0.0579526 8.1671553,0.0064972 L8.2716406,0 L9.9566406,0 Z" id="Combined-Shape"></path>
        </g>
    </g>
</svg>