<?xml version="1.0" encoding="UTF-8"?>
<svg width="80px" height="81px" viewBox="0 0 80 81" version="1.1" xmlns="http://www.w3.org/2000/svg" xmlns:xlink="http://www.w3.org/1999/xlink">
    <!-- Generator: sketchtool 57.1 (101010) - https://sketch.com -->
    <title>7794FEFC-A7E8-4FE6-8C87-7C5A865020BA</title>
    <desc>Created with sketchtool.</desc>
    <g id="DMDV-Design-System" stroke="none" stroke-width="1" fill="none" fill-rule="evenodd">
        <g id="DMDV-/-Design-system" transform="translate(-1191.000000, -1489.000000)" fill="#FFFFFF" fill-rule="nonzero">
            <g id="drag-icon" transform="translate(1191.000000, 1489.000000)">
                <path d="M71.6832203,30.3677511 L55.049505,30.3677511 C54.1313267,30.3677511 53.3860866,31.1196451 53.3860866,32.0460213 C53.3860866,32.9723976 54.1313267,33.7242916 55.049505,33.7242916 L71.6832203,33.7242916 C74.4344802,33.7242916 76.6733193,35.9831203 76.6733193,38.7589451 L76.6733193,72.323249 C76.6733193,75.0990738 74.4344802,77.3579025 71.6832203,77.3579025 L38.4157896,77.3579025 C35.6645297,77.3579025 33.4256906,75.0990738 33.4256906,72.323249 L33.4256906,58.8975589 C33.4256906,57.9711827 32.6804505,57.2192887 31.7622723,57.2192887 C30.8440941,57.2192887 30.0990099,57.9710253 30.0990099,58.8974016 L30.0990099,72.3230917 C30.0990099,76.9483649 33.831604,80.7142857 38.4157896,80.7142857 L71.6830644,80.7142857 C76.2674059,80.7142857 80,76.9483649 80,72.323249 L80,38.7587877 C80,34.1336719 76.2674059,30.3677511 71.6832203,30.3677511 Z" id="Shape"></path>
                <path d="M26.4026403,46.3507779 L24.290429,46.3507779 C23.1245249,46.3507779 22.1782178,47.2459039 22.1782178,48.3487499 C22.1782178,49.451596 23.1245249,50.3465347 24.290429,50.3465347 L26.4026403,50.3465347 C27.5685444,50.3465347 28.5148515,49.4514087 28.5148515,48.3485626 C28.5148515,47.2457166 27.5685444,46.3507779 26.4026403,46.3507779 Z" id="Shape"></path>
                <g id="Group">
                    <path d="M9.78386881,0 L8.3167797,0 C7.52179455,0 6.73663366,0.114066368 5.98141337,0.33559112 C5.09988119,0.5973931 4.59416584,1.53053465 4.85037624,2.41993765 C5.06323515,3.15169307 5.72863366,3.6249505 6.44720792,3.6249505 C6.60361634,3.6249505 6.75986881,3.60481188 6.91627723,3.55776934 C7.36866089,3.42356436 7.8377302,3.3563832 8.3167797,3.3563832 L9.78386881,3.3563832 C10.7053218,3.3563832 11.4472871,2.60448917 11.4472871,1.67811293 C11.4472871,0.751736696 10.702047,0 9.78386881,0 Z" id="Shape"></path>
                    <path d="M3.32668069,40.4685446 L3.32668069,37.0751881 C3.32668069,36.1488119 2.58144059,35.3969179 1.66326238,35.3969179 C0.745084158,35.3969179 0,36.1488119 0,37.0751881 L0,40.4685446 C0,41.3949208 0.745240099,42.1468148 1.66341832,42.1468148 C2.58159653,42.1468148 3.32668069,41.3949208 3.32668069,40.4685446 Z" id="Shape"></path>
                    <path d="M1.66341832,31.9667455 C2.58159653,31.9667455 3.32683663,31.2148515 3.32683663,30.2884752 L3.32683663,26.8951188 C3.32683663,25.9687426 2.58159653,25.2168485 1.66341832,25.2168485 C0.745240099,25.2168485 0,25.9687426 0,26.8951188 L0,30.2884752 C0,31.2148515 0.745240099,31.9667455 1.66341832,31.9667455 Z" id="Shape"></path>
                    <path d="M1.66341832,11.6099109 C2.58159653,11.6099109 3.32683663,10.8580169 3.32683663,9.93164063 L3.32683663,8.39103666 C3.32683663,7.92454455 3.38999257,7.46466043 3.51318564,7.02161092 C3.76269059,6.1287466 3.25042574,5.20237036 2.36546287,4.95063769 C1.48720545,4.68553171 0.562321782,5.21243967 0.312816832,6.10860798 C0.106507426,6.8504327 0,7.61916136 0,8.39103666 L0,9.93164063 C0,10.8580169 0.745240099,11.6099109 1.66341832,11.6099109 Z" id="Shape"></path>
                    <path d="M1.66341832,21.7899802 C2.58159653,21.7899802 3.32683663,21.0380862 3.32683663,20.1117099 L3.32683663,16.7183535 C3.32683663,15.7919773 2.58159653,15.0400832 1.66341832,15.0400832 C0.745240099,15.0400832 0,15.7919773 0,16.7183535 L0,20.1117099 C0,21.0380862 0.745240099,21.7899802 1.66341832,21.7899802 Z" id="Shape"></path>
                    <path d="M6.95292327,46.7988346 C6.14780198,46.5672406 5.40271782,46.127495 4.80390594,45.526798 C4.15519307,44.872293 3.10056683,44.8790583 2.45185396,45.5335633 C1.80314109,46.1913722 1.80641584,47.2554148 2.45855941,47.9066157 C3.45657921,48.9102424 4.69739851,49.6418405 6.04472525,50.0279355 C6.19770297,50.0715167 6.35083663,50.0916553 6.5005396,50.0916553 C7.22238861,50.0916553 7.89106188,49.6116326 8.09737129,48.8732692 C8.35015099,47.9802475 7.8377302,47.0505673 6.95292327,46.7988346 Z" id="Shape"></path>
                    <path d="M47.9681064,8.17627723 C48.1210842,8.17627723 48.2774926,8.15613861 48.433901,8.10579208 C49.3154332,7.8439901 49.8244233,6.91430987 49.5649381,6.02474954 C49.1724356,4.66869709 48.433901,3.42356436 47.4324505,2.42324165 C46.7804629,1.77204069 45.7258366,1.77550201 45.0803985,2.43661494 C44.4349604,3.09442389 44.4416658,4.15846643 45.0936535,4.80966739 C45.6924653,5.4138258 46.1382995,6.15895452 46.3711188,6.96780306 C46.5842896,7.69971581 47.2462574,8.17627723 47.9681064,8.17627723 Z" id="Shape"></path>
                    <path d="M40.0505347,0 L36.6872079,0 C35.7690297,0 35.0237896,0.751894028 35.0237896,1.67827027 C35.0237896,2.6046465 35.7690297,3.35654053 36.6872079,3.35654053 L40.0505347,3.35654053 C40.9687129,3.35654053 41.713953,2.6046465 41.713953,1.67827027 C41.713953,0.751894028 40.9687129,0 40.0505347,0 Z" id="Shape"></path>
                    <path d="M16.563854,46.9901515 L13.2005272,46.9901515 C12.282349,46.9901515 11.5371089,47.7420455 11.5371089,48.6684217 C11.5371089,49.594798 12.282349,50.3465347 13.2005272,50.3465347 L16.563854,50.3465347 C17.4820322,50.3465347 18.2272723,49.5946406 18.2272723,48.6682644 C18.2272723,47.7418881 17.4820322,46.9901515 16.563854,46.9901515 Z" id="Shape"></path>
                    <path d="M48.2375718,11.579703 C47.3193936,11.579703 46.5741535,12.331597 46.5741535,13.2579732 L46.5741535,16.6513297 C46.5741535,17.5777059 47.3193936,18.3295999 48.2375718,18.3295999 C49.15575,18.3295999 49.9009901,17.5777059 49.9009901,16.6513297 L49.9009901,13.2579732 C49.9009901,12.3281357 49.15575,11.579703 48.2375718,11.579703 Z" id="Shape"></path>
                    <path d="M29.9638292,0 L26.6005025,0 C25.6790495,0 24.9370842,0.751894028 24.9370842,1.67827027 C24.9370842,2.6046465 25.6823243,3.35654053 26.6005025,3.35654053 L29.9605545,3.35654053 C30.8820074,3.35654053 31.6272475,2.6046465 31.6272475,1.67827027 C31.6272475,0.751894028 30.8820074,0 29.9638292,0 Z" id="Shape"></path>
                    <path d="M19.873849,0 L16.5105223,0 C15.5923441,0 14.847104,0.751894028 14.847104,1.67827027 C14.847104,2.6046465 15.5923441,3.35654053 16.5105223,3.35654053 L19.873849,3.35654053 C20.7920272,3.35654053 21.5372673,2.6046465 21.5372673,1.67827027 C21.5372673,0.751894028 20.7920272,0 19.873849,0 Z" id="Shape"></path>
                </g>
                <path d="M47.9207921,22.3762376 C46.8277569,22.3762376 45.9405941,23.3310237 45.9405941,24.5073745 L45.9405941,26.6383115 C45.9405941,27.8146623 46.8277569,28.7694484 47.9207921,28.7694484 C49.0138272,28.7694484 49.9009901,27.8146623 49.9009901,26.6383115 L49.9009901,24.5071747 C49.9009901,23.3308239 49.0138272,22.3762376 47.9207921,22.3762376 Z" id="Shape"></path>
                <path d="M54.9814325,29.1799205 L49.915147,23.9228562 C47.9278245,21.8606981 44.6887541,21.8606981 42.7014317,23.9228562 C42.1065066,24.5401841 41.6882358,25.2761127 41.4495304,26.0562383 C39.6681259,25.4118835 37.5370899,25.8901019 36.1643038,27.3145824 C35.4158596,28.0912104 34.951625,29.051145 34.7653183,30.0549586 C33.2062255,29.827773 31.5784934,30.3772155 30.4442595,31.5540017 C29.3590537,32.6800726 28.8655554,34.1892906 28.9636116,35.6646454 C27.8621652,35.8206069 26.8455987,36.3395248 26.0481264,37.1671862 C25.0839587,38.1676611 24.5544554,39.4972293 24.5544554,40.9115349 C24.5544554,42.3258405 25.0839587,43.6587473 26.0481264,44.6558836 L27.5123805,46.1752765 L27.5123805,52.2565046 C27.512687,56.9301042 31.179987,60.7355021 35.6839819,60.7355021 L42.3844345,60.7355021 C52.2064434,60.7355021 60.1980198,52.4429907 60.1980198,42.2511189 C60.1980198,37.3163115 58.3447585,32.6732364 54.9814325,29.1799205 Z M42.3844345,57.3439349 L35.6839819,57.3439349 C32.9808496,57.3439349 30.7811743,55.0614275 30.7811743,52.2565046 L30.7811743,49.5670027 L34.5301368,53.4571381 C35.1675017,54.1185041 36.2036795,54.1185041 36.8410445,53.4571381 C37.1580416,53.1247063 37.3183021,52.6906849 37.3183021,52.2565046 C37.3183021,51.8223242 37.1581948,51.3883028 36.8410445,51.055871 L28.3591873,42.2546165 C28.0127733,41.8984964 27.823096,41.4169393 27.823096,40.9115349 C27.823096,40.4061305 28.0126201,39.927912 28.3591873,39.5684533 C29.0521686,38.8493768 30.2582592,38.8493768 30.9510872,39.5684533 L34.5301368,43.2822774 C35.1675017,43.9436434 36.2036795,43.9436434 36.8410445,43.2822774 C37.1580416,42.9498457 37.3183021,42.5158243 37.3183021,42.0816439 C37.3183021,41.6474635 37.1581948,41.2134421 36.8410445,40.8843489 L32.7553204,36.6447707 C32.0395105,35.9020058 32.0395105,34.6980336 32.7553204,33.9552688 C33.4483016,33.2361923 34.6543923,33.2361923 35.3472203,33.9552688 L37.7986241,36.498984 C38.4359891,37.1603499 39.4721668,37.1603499 40.1095318,36.498984 C40.4265289,36.1665522 40.5867895,35.7325308 40.5867895,35.2983504 C40.5867895,34.86417 40.4266822,34.4301486 40.1095318,34.1010555 L38.4752115,32.4051924 C37.7594016,31.6624276 37.7594016,30.4584554 38.4752115,29.7156905 C39.1681927,28.9966141 40.3742834,28.9966141 41.0671114,29.7156905 L42.7014317,31.4115537 C43.3387966,32.0729196 44.3749744,32.0729196 45.0123394,31.4115537 C45.3293365,31.0791219 45.489597,30.6451005 45.489597,30.2109201 C45.489597,29.7767397 45.3294897,29.3427183 45.0091219,29.0102865 C44.6627079,28.6541664 44.4730305,28.175948 44.4730305,27.6672049 C44.4730305,27.1584619 44.6659254,26.6802434 45.0123394,26.3241233 C45.7281493,25.5813585 46.8884293,25.5813585 47.6042392,26.3241233 L52.6705248,31.5811877 C55.4160971,34.4301486 56.9293793,38.2220331 56.9293793,42.2512779 C56.9293793,50.5741549 50.4054277,57.3439349 42.3844345,57.3439349 Z" id="Shape"></path>
            </g>
        </g>
    </g>
</svg>