<?xml version="1.0" encoding="UTF-8"?>
<svg width="18px" height="18px" viewBox="0 0 18 18" version="1.1" xmlns="http://www.w3.org/2000/svg" xmlns:xlink="http://www.w3.org/1999/xlink">
    <!-- Generator: Sketch 50.2 (55047) - http://www.bohemiancoding.com/sketch -->
    <title>Full screen ON grey</title>
    <desc>Created with Sketch.</desc>
    <defs></defs>
    <g id="icon-special-DMDV" stroke="none" stroke-width="1" fill="none" fill-rule="evenodd">
        <g id="Artboard" transform="translate(-82.000000, -148.000000)" fill="#979797" fill-rule="nonzero" stroke="#606060">
            <g id="Full-screen-ON-grey" transform="translate(83.000000, 149.000000)">
                <path d="M15.5975073,0 L0.399158,0 C0.176736625,0 0,0.179666667 0,0.399 L0,7.68433333 C0,7.90666667 0.180071278,8.08333333 0.399158,8.08333333 C0.618244723,8.08333333 0.801650653,7.90333333 0.801650653,7.68433333 L0.801650653,0.801 L15.201684,0.801 L15.201684,15.1956667 L8.2699402,15.1956667 C8.0475188,15.1956667 7.86744753,15.3753333 7.86744753,15.5976667 C7.86744753,15.82 8.0475188,16 8.2699402,16 L15.5975073,16 C15.8199287,16 16,15.82 16,15.5976667 L16,0.402 C16,0.179666667 15.8199287,0 15.5975073,0 Z" id="Shape"></path>
                <path d="M0,15.6001918 C0,15.8211297 0.178870293,16 0.396495817,16 L5.9335251,16 C6.15446303,16 6.33333333,15.8211297 6.33333333,15.6001918 L6.33333333,10.0664749 C6.33333333,9.84553697 6.15446303,9.66666667 5.9335251,9.66666667 L0.39980823,9.66666667 C0.178870293,9.66666667 0.00331241283,9.84553697 0.00331241283,10.0664749 L0.00331241283,15.6001918 L0,15.6001918 Z M0.796304043,10.4629707 L5.53736053,10.4629707 L5.53736053,15.2040272 L0.796304043,15.2040272 L0.796304043,10.4629707 Z" id="Shape"></path>
                <path d="M7.11729873,8.54939093 C7.19533183,8.627464 7.29627683,8.66666667 7.40054237,8.66666667 C7.5048079,8.66666667 7.60575287,8.627464 7.68411803,8.54939093 L12.1987493,4.0287929 L12.1987493,6.63277963 C12.1987493,6.85470653 12.3780594,7.0337763 12.5995407,7.0337763 C12.8210219,7.0337763 13,6.85470653 13,6.63277963 L13,3.06733112 C13,2.84573643 12.8210219,2.66666667 12.5995407,2.66666667 L9.0325968,2.66666667 C8.81111557,2.66666667 8.6318054,2.84573643 8.6318054,3.06733112 C8.6318054,3.2889258 8.81111557,3.4683278 9.0325968,3.4683278 L11.6352505,3.4683278 L7.11729873,7.98527133 C6.96090043,8.14174973 6.96090043,8.3929125 7.11729873,8.54939093 Z" id="Shape"></path>
            </g>
        </g>
    </g>
</svg>