<?xml version="1.0" encoding="UTF-8"?>
<svg width="18px" height="18px" viewBox="0 0 18 18" version="1.1" xmlns="http://www.w3.org/2000/svg" xmlns:xlink="http://www.w3.org/1999/xlink">
    <!-- Generator: Sketch 50.2 (55047) - http://www.bohemiancoding.com/sketch -->
    <title>Full screen OFF grey</title>
    <desc>Created with Sketch.</desc>
    <defs></defs>
    <g id="icon-special-DMDV" stroke="none" stroke-width="1" fill="none" fill-rule="evenodd">
        <g id="Artboard" transform="translate(-82.000000, -118.000000)" fill="#979797" fill-rule="nonzero" stroke="#606060">
            <g id="Full-screen-OFF-grey" transform="translate(83.000000, 119.000000)">
                <path d="M0,0.402333333 L0,7.68766667 C0,7.91 0.180033756,8.09 0.402408783,8.09 C0.624783813,8.09 0.80481757,7.91 0.80481757,7.68766667 L0.80481757,0.801333333 L15.2018503,0.801333333 L15.2018503,15.1956667 L8.2715509,15.1956667 C8.0491759,15.1956667 7.86914213,15.3753333 7.86914213,15.598 C7.86914213,15.8203333 8.0491759,16 8.2715509,16 L15.5975912,16 C15.8199662,16 16,15.8203333 16,15.598 L16,0.402333333 C16,0.18 15.8199662,0 15.5975912,0 L0.402408783,0 C0.180033756,0 0,0.18 0,0.402333333 Z" id="Shape"></path>
                <path d="M0,15.6215283 C0,15.8308489 0.169456067,16 0.378765692,16 L5.62123431,16 C5.83054393,16 6,15.8308489 6,15.6215283 L6,10.3784717 C6,10.1691511 5.83054393,10 5.62123431,10 L0.378765692,10 C0.169456067,10 0,10.1691511 0,10.3784717 L0,15.6215283 Z M0.754393304,10.7541189 L5.24592051,10.7541189 L5.24592051,15.2458811 L0.754393304,15.2458811 L0.754393304,10.7541189 Z" id="Shape"></path>
                <path d="M7.4004538,4.63204713 C7.17897563,4.63204713 7,4.81101533 7,5.03248433 L7,8.59923077 C7,8.82069977 7.17897563,9 7.4004538,9 L10.9673483,9 C11.1888265,9 11.3681341,8.82069977 11.3681341,8.59923077 C11.3681341,8.3777618 11.1888265,8.1987936 10.9673483,8.1987936 L8.36473063,8.1987936 L12.8829519,3.6807598 C13.039016,3.52437017 13.039016,3.27368188 12.8829519,3.11729223 C12.7265558,2.96090259 12.4755251,2.96090259 12.3191289,3.11729223 L7.80123967,7.63532603 L7.80123967,5.03248433 C7.80123967,4.81101533 7.621932,4.63204713 7.4004538,4.63204713 Z" id="Shape"></path>
            </g>
        </g>
    </g>
</svg>