<?xml version="1.0" encoding="UTF-8"?>
<svg width="15px" height="15px" viewBox="0 0 15 15" version="1.1" xmlns="http://www.w3.org/2000/svg" xmlns:xlink="http://www.w3.org/1999/xlink">
    <!-- Generator: Sketch 61.2 (89653) - https://sketch.com -->
    <title>Generate Data Model Graph FAB button Copy</title>
    <desc>Created with Sketch.</desc>
    <g id="Drag-drop" stroke="none" stroke-width="1" fill="none" fill-rule="evenodd">
        <g id="Generate-Data-Model-Graph-FAB-button-Copy" fill="#A0A0A0">
            <path d="M6.73595008,0.824074074 C7.56437721,0.824074074 8.23595008,1.49564695 8.23595008,2.32407407 L8.23595008,2.32407407 L8.23595008,3.78272669 C8.23595008,4.61115382 7.56437721,5.28272669 6.73595008,5.28272669 L6.73595008,5.28272669 L5.13307407,5.28207407 L5.13307407,7.48607407 L7.76507407,7.48607407 L7.76574074,7.19636015 C7.76574074,6.41666404 8.36062882,5.77591148 9.12128073,5.70322673 L9.26574074,5.69636015 L12.9970612,5.69636015 C13.8254883,5.69636015 14.4970612,6.36793303 14.4970612,7.19636015 L14.4970612,7.19636015 L14.4970612,8.65501277 C14.4970612,9.4834399 13.8254883,10.1550128 12.9970612,10.1550128 L12.9970612,10.1550128 L12.4150741,10.1540741 L12.4155194,12.7643678 L7.55507407,12.7640741 L7.55539453,13.1696999 C7.55539453,13.949396 6.96050644,14.5901485 6.19985454,14.6628333 L6.05539453,14.6696999 L2.32407407,14.6696999 C1.49564695,14.6696999 0.824074074,13.998127 0.824074074,13.1696999 L0.824074074,13.1696999 L0.824074074,11.7110472 C0.824074074,10.8826201 1.49564695,10.2110472 2.32407407,10.2110472 L2.32407407,10.2110472 L6.05539453,10.2110472 C6.88382165,10.2110472 7.55539453,10.8826201 7.55539453,11.7110472 L7.55539453,11.7110472 L7.55507407,11.7640741 L11.4150741,11.7640741 L11.4150741,10.1540741 L9.26574074,10.1550128 C8.48604462,10.1550128 7.84529206,9.56012469 7.77260732,8.79947278 L7.76574074,8.65501277 L7.76507407,8.48607407 L4.12989647,8.48607914 L4.12989647,7.48607914 L4.13307407,7.48607407 L4.13307407,5.28207407 L3.00462963,5.28272669 C2.22493351,5.28272669 1.58418095,4.68783861 1.51149621,3.9271867 L1.50462963,3.78272669 L1.50462963,2.32407407 C1.50462963,1.49564695 2.1762025,0.824074074 3.00462963,0.824074074 L3.00462963,0.824074074 Z M6.05539453,11.2110472 L2.32407407,11.2110472 C2.0479317,11.2110472 1.82407407,11.4349049 1.82407407,11.7110472 L1.82407407,11.7110472 L1.82407407,13.1696999 C1.82407407,13.4458422 2.0479317,13.6696999 2.32407407,13.6696999 L2.32407407,13.6696999 L6.05539453,13.6696999 C6.3315369,13.6696999 6.55539453,13.4458422 6.55539453,13.1696999 L6.55539453,13.1696999 L6.55539453,11.7110472 C6.55539453,11.4349049 6.3315369,11.2110472 6.05539453,11.2110472 L6.05539453,11.2110472 Z M12.9970612,6.69636015 L9.26574074,6.69636015 C8.98959837,6.69636015 8.76574074,6.92021778 8.76574074,7.19636015 L8.76574074,7.19636015 L8.76574074,8.65501277 C8.76574074,8.93115515 8.98959837,9.15501277 9.26574074,9.15501277 L9.26574074,9.15501277 L12.9970612,9.15501277 C13.2732036,9.15501277 13.4970612,8.93115515 13.4970612,8.65501277 L13.4970612,8.65501277 L13.4970612,7.19636015 C13.4970612,6.92021778 13.2732036,6.69636015 12.9970612,6.69636015 L12.9970612,6.69636015 Z M6.73595008,1.82407407 L3.00462963,1.82407407 C2.72848725,1.82407407 2.50462963,2.0479317 2.50462963,2.32407407 L2.50462963,2.32407407 L2.50462963,3.78272669 C2.50462963,4.05886907 2.72848725,4.28272669 3.00462963,4.28272669 L3.00462963,4.28272669 L6.73595008,4.28272669 C7.01209246,4.28272669 7.23595008,4.05886907 7.23595008,3.78272669 L7.23595008,3.78272669 L7.23595008,2.32407407 C7.23595008,2.0479317 7.01209246,1.82407407 6.73595008,1.82407407 L6.73595008,1.82407407 Z" id="Combined-Shape"></path>
        </g>
    </g>
</svg>