<?xml version="1.0" encoding="UTF-8"?>
<svg width="16px" height="16px" viewBox="0 0 16 16" version="1.1" xmlns="http://www.w3.org/2000/svg" xmlns:xlink="http://www.w3.org/1999/xlink">
    <!-- Generator: sketchtool 57.1 (101010) - https://sketch.com -->
    <title>40C2FAA2-4F93-42F4-BEBE-67B3FA1B049A</title>
    <desc>Created with sketchtool.</desc>
    <g id="DMDV-Design-System" stroke="none" stroke-width="1" fill="none" fill-rule="evenodd">
        <g id="DMDV-/-Design-system" transform="translate(-749.000000, -1496.000000)" fill="#606060" fill-rule="nonzero">
            <g id="information" transform="translate(749.000000, 1496.000000)">
                <path d="M8,0 C3.5888,0 0,3.58884848 0,8.00004848 C0,12.4112485 3.5888,16 8,16 C12.4112,16 16,12.4112485 16,8.00004848 C16,3.58884848 12.4112,0 8,0 Z M8,14.5454545 C4.39078788,14.5454545 1.45454545,11.6092121 1.45454545,8.00004848 C1.45454545,4.39088485 4.39078788,1.45454545 8,1.45454545 C11.6092121,1.45454545 14.5454545,4.39088485 14.5454545,8.00004848 C14.5454545,11.6092121 11.6091636,14.5454545 8,14.5454545 Z" id="Shape"></path>
                <path d="M8.09210526,3.36842105 C7.62775976,3.36842105 7.25,3.74635789 7.25,4.21090526 C7.25,4.67503158 7.62775976,5.05263158 8.09210526,5.05263158 C8.55645076,5.05263158 8.93421053,4.67503158 8.93421053,4.21090526 C8.93421053,3.74635789 8.55645076,3.36842105 8.09210526,3.36842105 Z" id="Path"></path>
                <path d="M8.15,6.73684211 C7.7358,6.73684211 7.4,7.06675088 7.4,7.47368421 L7.4,11.8947368 C7.4,12.3016702 7.7358,12.6315789 8.15,12.6315789 C8.5642,12.6315789 8.9,12.3016702 8.9,11.8947368 L8.9,7.47368421 C8.9,7.06675088 8.5642,6.73684211 8.15,6.73684211 Z" id="Path"></path>
            </g>
        </g>
    </g>
</svg>