<?xml version="1.0" encoding="UTF-8"?>
<svg width="24px" height="24px" viewBox="0 0 24 24" version="1.1" xmlns="http://www.w3.org/2000/svg" xmlns:xlink="http://www.w3.org/1999/xlink">
    <!-- Generator: Sketch 61.2 (89653) - https://sketch.com -->
    <title>Group 24</title>
    <desc>Created with Sketch.</desc>
    <g id="Drag-drop" stroke="none" stroke-width="1" fill="none" fill-rule="evenodd">
        <g id="Group-24">
            <circle id="Oval" fill-opacity="0.5" fill="#FFFFFF" cx="12" cy="12" r="12"></circle>
            <path d="M10.8211015,9.53882899 C11.2870917,9.53882899 11.7496573,9.65452074 12.1583484,9.87335657 C12.4424264,10.0252236 12.6378648,10.2945378 12.6941566,10.6119995 C12.7508226,10.9276192 12.6609744,11.2476997 12.4470598,11.4886954 C12.110604,11.8695572 11.5569528,11.9740252 11.1217849,11.7596789 C10.8555788,11.6288781 10.5053091,11.6963937 10.3074244,11.919863 L10.3074244,11.919863 L7.32326799,15.2862626 C7.20202189,15.4227616 7.14132689,15.5984577 7.15246438,15.781147 C7.16354431,15.9641242 7.24478754,16.1315606 7.38140165,16.2526341 L7.38140165,16.2526341 L7.85844305,16.6758299 C8.1295704,16.9159622 8.5847685,16.8879026 8.82484326,16.6170343 L8.82484326,16.6170343 L10.1888547,15.0777297 C10.5384625,14.6840036 11.1933872,14.6448641 11.5867679,14.9931769 L11.5867679,14.9931769 L11.7151224,15.1061634 C11.9108775,15.279183 12.0318358,15.527431 12.047175,15.7883993 C12.0632337,16.0510944 11.9751698,16.3044651 11.7991572,16.5026664 L11.7991572,16.5026664 L10.435376,18.0388628 C9.89769716,18.6451797 9.12336826,18.9873337 8.31113737,18.9873337 C8.3108208,18.9873337 8.31113737,18.9873337 8.3108208,18.9873337 L8.10351728,18.9799414 C7.4846974,18.9356938 6.89701872,18.6937616 6.43025433,18.2798873 L6.43025433,18.2798873 L5.95355828,17.8631092 C4.78314344,16.8253082 4.67510691,15.0290355 5.71293671,13.858707 L5.71293671,13.858707 L8.69746723,10.492883 C9.23485827,9.88659493 10.0088706,9.53882899 10.8211015,9.53882899 Z M15.6887023,5 C16.3827376,5 17.0506416,5.25328435 17.5695277,5.71311587 L17.5695277,5.71311587 L18.0462238,6.13490151 C19.216984,7.17313421 19.3246752,8.97168042 18.2874785,10.1420089 L18.2874785,10.1420089 L15.3033509,13.5104806 C14.7656721,14.116855 13.9913144,14.469053 13.1794576,14.469053 L13.1794576,14.469053 L12.9513453,14.4595112 C12.572817,14.4278669 12.2016033,14.3183227 11.8661836,14.1429864 C11.5753426,13.9907741 11.3746664,13.7144089 11.3149786,13.3921412 C11.2558952,13.0679165 11.3466643,12.7421378 11.564608,12.4969979 L11.564608,12.4969979 L11.5880054,12.4703485 C11.8991644,12.1196471 12.4460525,12.0163591 12.8655646,12.2327487 C13.1348501,12.3715213 13.4915663,12.3059914 13.6925016,12.0790111 L13.6925016,12.0790111 L16.6769745,8.71238126 C16.7982782,8.57588226 16.8589444,8.40012865 16.8478357,8.21715151 C16.8367558,8.03403047 16.7555413,7.866594 16.6188984,7.74563569 L16.6188984,7.74563569 L16.1423751,7.32292913 C15.8709311,7.08302703 15.4154453,7.11025201 15.1753705,7.38123546 L15.1753705,7.38123546 L13.8107259,8.92100053 C13.6346845,9.11917301 13.3924801,9.23676417 13.1286914,9.25262143 L13.1286914,9.25262143 L13.0695792,9.25431939 C12.827087,9.25431939 12.5934875,9.16570872 12.4122084,9.00471876 L12.4122084,9.00471876 L12.284487,8.89132934 C12.0866023,8.71586352 11.9690399,8.47383178 11.95301,8.21004308 C11.9370088,7.94588026 12.0250439,7.69130086 12.20074,7.49341617 L12.20074,7.49341617 L13.565068,5.95382378 C14.102459,5.34762204 14.8764714,5 15.6887023,5 Z" id="Combined-Shape" fill="#606060"></path>
        </g>
    </g>
</svg>