<?xml version="1.0" encoding="UTF-8"?>
<svg width="10px" height="3px" viewBox="0 0 10 3" version="1.1" xmlns="http://www.w3.org/2000/svg" xmlns:xlink="http://www.w3.org/1999/xlink">
    <title>Minus </title>
    <g id="Incremental-tree" stroke="none" stroke-width="1" fill="none" fill-rule="evenodd">
        <path d="M10,2.24992809 C10,2.45301563 9.92931507,2.62906319 9.78794521,2.77735162 C9.64657534,2.92564004 9.47917808,3 9.28575342,3 L0.714246575,3 C0.520821918,3 0.353424658,2.92564004 0.212054795,2.77735162 C0.0706849315,2.62906319 0,2.45301563 0,2.24992809 L0,0.749928085 C0,0.546840541 0.0706849315,0.371080641 0.212054795,0.222648384 C0.353424658,0.0742161281 0.520821918,0 0.714246575,0 L9.28575342,0 C9.47917808,0 9.64657534,0.0742161281 9.78794521,0.222648384 C9.92931507,0.371080641 10,0.546840541 10,0.749928085 L10,2.24992809 L10,2.24992809 Z" id="Minus-" fill="#606060"></path>
    </g>
</svg>