<?xml version="1.0" encoding="UTF-8"?>
<svg width="21px" height="21px" viewBox="0 0 21 21" version="1.1" xmlns="http://www.w3.org/2000/svg" xmlns:xlink="http://www.w3.org/1999/xlink">
    <!-- Generator: sketchtool 57.1 (101010) - https://sketch.com -->
    <title>120DD437-3619-4631-8494-DCA509685341</title>
    <desc>Created with sketchtool.</desc>
    <g id="DMDV-Design-System" stroke="none" stroke-width="1" fill="none" fill-rule="evenodd">
        <g id="DMDV-/-Design-system" transform="translate(-838.000000, -1544.000000)" fill-rule="nonzero">
            <g id="Icon-/-Error-Triangle" transform="translate(838.000000, 1544.000000)">
                <path d="M20.8085801,18.0440603 C20.8085801,18.0440603 20.8085801,18.0440603 20.8081699,18.0436129 C19.4101523,14.9152288 17.0666016,10.4780753 14.9990859,6.56344522 C13.9172578,4.51451631 12.8952305,2.57981949 12.156498,1.10929956 C11.8078652,0.414823985 11.1883242,0 10.4995898,0 C9.81085547,0 9.19131445,0.414823985 8.84268164,1.10929956 C8.10349805,2.58071437 7.08106055,4.5173352 5.99796094,6.56765118 C3.93167578,10.4813416 1.58898633,14.9166159 0.191419922,18.0440603 C0.0645175781,18.3288575 0,18.630389 0,18.9394376 C0,20.0757627 0.841271484,21 1.87568555,21 L10.5,20.9990604 L19.1243145,21 C20.1587285,21 21,20.0757627 21,18.9394376 C21,18.630389 20.9354824,18.3288575 20.8085801,18.0440603 Z" id="Path" fill="#1E1E1E"></path>
                <path d="M19.0123351,20 L1.98766495,20 C1.44322659,20 1,19.50457 1,18.89666 C1,18.7339855 1.03416909,18.5736311 1.10161662,18.4207278 C2.46797553,15.3319201 4.77224368,10.9240926 6.80489993,7.03543138 C7.87604435,4.98629487 8.88775721,3.0505308 9.62154255,1.57445827 C10.0019369,0.808513911 10.9971725,0.808513911 11.3775668,1.57445827 C12.1109473,3.04963845 13.1217695,4.98348399 14.1921042,7.03079119 C16.226056,10.9208801 18.5311338,15.3305369 19.897938,18.4202816 C19.9658309,18.5736757 20,18.7339855 20,18.89666 C20,19.50457 19.5567734,20 19.0123351,20 Z" id="Path" fill="#F9D114"></path>
                <path d="M10.55,5 C10.245997,5 10,5.21446136 10,5.47949264 L10,15.0690307 C10,15.334062 10.245997,15.5485234 10.55,15.5485234 C10.854003,15.5485234 11.1,15.334062 11.1,15.0690307 L11.1,5.47949264 C11.1,5.21446136 10.854003,5 10.55,5 Z" id="Path" fill="#1E1E1E"></path>
                <ellipse id="Oval" fill="#1E1E1E" cx="10.55" cy="17.5761905" rx="1" ry="1"></ellipse>
            </g>
        </g>
    </g>
</svg>