<svg xmlns="http://www.w3.org/2000/svg" width="16" height="15" viewBox="0 0 16 15">
    <path fill="#1E1E1E" fill-rule="nonzero" d="M2.363 4.694c.456-.388.937-.744 1.441-1.066L.764.587A.337.337 0 1 1 1.24.11l3.163 3.164c.155-.085.31-.165.464-.24 1.059-.508 2.11-.766 3.125-.766 1.015 0 2.066.258 3.124.766.836.402 1.679.96 2.505 1.66a15.442 15.442 0 0 1 2.295 2.404.337.337 0 0 1 0 .398c-.036.049-.896 1.219-2.295 2.404-.471.401-.97.768-1.494 1.099l3.009 3.008a.337.337 0 1 1-.477.476l-3.133-3.133c-.137.073-.273.143-.41.21-1.058.508-2.11.765-3.124.765-1.015 0-2.066-.257-3.125-.766-.835-.401-1.678-.96-2.504-1.66A15.435 15.435 0 0 1 .068 7.496a.337.337 0 0 1 0-.397 15.45 15.45 0 0 1 2.295-2.404zm10.81 4.701a15.567 15.567 0 0 0 2.045-2.098c-.7-.877-3.705-4.355-7.226-4.355-1.108 0-2.162.35-3.09.831l.771.771a3.6 3.6 0 0 1 5.072 5.072l.891.891c.541-.33 1.055-.701 1.538-1.112zM5.68 5.503A2.926 2.926 0 0 0 9.785 9.61L5.68 5.503z"/>
</svg>
