<?xml version="1.0" encoding="UTF-8"?>
<svg width="10px" height="10px" viewBox="0 0 10 10" version="1.1" xmlns="http://www.w3.org/2000/svg" xmlns:xlink="http://www.w3.org/1999/xlink">
    <title>Shape</title>
    <g id="Incremental-tree" stroke="none" stroke-width="1" fill="none" fill-rule="evenodd">
        <path d="M10,5.71424658 C10,5.90767123 9.92931507,6.07534247 9.78780822,6.21657534 C9.64643836,6.35780822 9.4790411,6.42863014 9.28561644,6.42863014 L6.42849315,6.42863014 L6.42849315,9.28561644 C6.42849315,9.4790411 6.35767123,9.64657534 6.21643836,9.78794521 C6.07506849,9.92931507 5.90767123,10 5.71424658,10 L4.28561644,10 C4.09219178,10 3.92479452,9.92931507 3.78342466,9.78794521 C3.64205479,9.64657534 3.57136986,9.4790411 3.57136986,9.28561644 L3.57136986,6.42863014 L0.714246575,6.42863014 C0.520821918,6.42863014 0.353424658,6.35780822 0.212054795,6.21657534 C0.0706849315,6.07534247 0,5.90767123 0,5.71424658 L0,4.28561644 C0,4.09219178 0.0706849315,3.92479452 0.212054795,3.78342466 C0.353424658,3.64205479 0.520821918,3.57136986 0.714246575,3.57136986 L3.57150685,3.57136986 L3.57150685,0.714246575 C3.57150685,0.520821918 3.64219178,0.353424658 3.78356164,0.212054795 C3.92493151,0.0706849315 4.09232877,0 4.28575342,0 L5.71438356,0 C5.90780822,0 6.07534247,0.0706849315 6.21657534,0.212054795 C6.35780822,0.353424658 6.42876712,0.520821918 6.42876712,0.714246575 L6.42876712,3.57136986 L9.28575342,3.57136986 C9.47917808,3.57136986 9.64657534,3.64205479 9.78794521,3.78342466 C9.92931507,3.92479452 10,4.09219178 10,4.28561644 L10,5.71424658 L10,5.71424658 Z" id="Shape" fill="#606060"></path>
    </g>
</svg>