<?xml version="1.0" encoding="UTF-8" standalone="no"?>
<!DOCTYPE svg PUBLIC "-//W3C//DTD SVG 1.1//EN" "http://www.w3.org/Graphics/SVG/1.1/DTD/svg11.dtd">
<svg version="1.1" xmlns="http://www.w3.org/2000/svg" xmlns:xlink="http://www.w3.org/1999/xlink" preserveAspectRatio="xMidYMid meet" viewBox="0 0 40 40" width="40" height="40"><defs><path d="M27.73 12.9C26.76 11.98 25.64 11.26 24.39 10.76C23.14 10.25 21.84 10 20.5 10C19.08 10 17.72 10.28 16.43 10.83C15.13 11.39 14.01 12.14 13.08 13.08C12.14 14.01 11.39 15.13 10.83 16.43C10.28 17.72 10 19.08 10 20.5C10 21.92 10.28 23.28 10.83 24.57C11.39 25.87 12.14 26.98 13.08 27.92C14.01 28.86 15.13 29.61 16.43 30.17C17.72 30.72 19.08 31 20.5 31C22.07 31 23.56 30.67 24.97 30.01C26.38 29.35 27.59 28.42 28.58 27.21C28.65 27.12 28.69 27.02 28.68 26.9C28.68 26.79 28.63 26.7 28.55 26.62C28.37 26.44 26.87 24.93 26.68 24.74C26.58 24.66 26.47 24.62 26.34 24.62C26.19 24.63 26.09 24.69 26.02 24.78C25.36 25.65 24.54 26.32 23.58 26.79C22.61 27.26 21.58 27.5 20.5 27.5C19.55 27.5 18.65 27.32 17.79 26.95C16.93 26.58 16.18 26.08 15.55 25.45C14.92 24.82 14.42 24.08 14.05 23.21C13.68 22.35 13.5 21.45 13.5 20.5C13.5 19.55 13.69 18.65 14.05 17.79C14.42 16.92 14.92 16.18 15.55 15.55C16.18 14.92 16.93 14.42 17.79 14.05C18.65 13.68 19.55 13.5 20.5 13.5C22.33 13.5 23.92 14.12 25.27 15.37C25.08 15.56 23.57 17.07 23.38 17.26C23.1 17.53 23.04 17.85 23.19 18.2C23.35 18.57 23.62 18.75 24 18.75C24.61 18.75 29.51 18.75 30.13 18.75C30.36 18.75 30.57 18.66 30.74 18.49C30.91 18.32 31 18.11 31 17.87C31 17.26 31 12.36 31 11.75C31 11.37 30.82 11.1 30.47 10.94C30.09 10.79 29.77 10.85 29.51 11.13C29.15 11.49 27.91 12.72 27.73 12.9Z" id="jiwlBSD0o"></path></defs><g><g><g><use xlink:href="#jiwlBSD0o" opacity="0.6" fill="#ffffff" fill-opacity="1"></use><g><use xlink:href="#jiwlBSD0o" opacity="0.6" fill-opacity="0" stroke="#000000" stroke-width="1" stroke-opacity="0"></use></g></g></g></g></svg>