<?xml version="1.0" encoding="utf-8"?>
<!-- Generator: Adobe Illustrator 22.0.1, SVG Export Plug-In . SVG Version: 6.00 Build 0)  -->
<svg version="1.1" id="Layer_1" xmlns="http://www.w3.org/2000/svg" xmlns:xlink="http://www.w3.org/1999/xlink" x="0px" y="0px"
	 viewBox="0 0 16 16" style="enable-background:new 0 0 16 16;" xml:space="preserve">
<style type="text/css">
	.st0{clip-path:url(#SVGID_2_);fill:#606161;}
	.st1{clip-path:url(#SVGID_4_);fill:#606161;}
</style>
<title>Search icon</title>
<desc>Created with Sketch.</desc>
<g id="Search-icon">
</g>
<g>
	<defs>
		<path id="SVGID_1_" d="M7,12.8c-3.2,0-5.7-2.6-5.7-5.8c0-3.2,2.6-5.8,5.7-5.8s5.7,2.6,5.7,5.8C12.7,10.3,10.2,12.8,7,12.8z
			 M11.9,2.1C10.6,0.7,8.9,0,7,0C5.1,0,3.4,0.7,2.1,2.1C0.7,3.4,0,5.2,0,7.1c0,1.9,0.7,3.7,2.1,5c1.3,1.3,3.1,2.1,4.9,2.1
			s3.6-0.7,4.9-2.1c1.3-1.3,2.1-3.1,2.1-5C14,5.2,13.3,3.4,11.9,2.1z"/>
	</defs>
	<clipPath id="SVGID_2_">
		<use xlink:href="#SVGID_1_"  style="overflow:visible;"/>
	</clipPath>
	<rect x="-5" y="-5" class="st0" width="24" height="24.1"/>
</g>
<g>
	<defs>
		<path id="SVGID_3_" d="M15.8,14.9l-3.7-3.5c-0.3-0.2-0.7-0.2-0.9,0c-0.3,0.2-0.3,0.6,0,0.9l3.7,3.5c0.1,0.1,0.3,0.2,0.5,0.2
			c0.2,0,0.3-0.1,0.5-0.2C16.1,15.6,16.1,15.2,15.8,14.9z"/>
	</defs>
	<clipPath id="SVGID_4_">
		<use xlink:href="#SVGID_3_"  style="overflow:visible;"/>
	</clipPath>
	<rect x="6" y="6.3" class="st1" width="15" height="14.7"/>
</g>
</svg>
