<?xml version="1.0" encoding="UTF-8"?>
<svg width="16px" height="16px" viewBox="0 0 16 16" version="1.1" xmlns="http://www.w3.org/2000/svg" xmlns:xlink="http://www.w3.org/1999/xlink">
    <!-- Generator: Sketch 50.2 (55047) - http://www.bohemiancoding.com/sketch -->
    <title>Template grey</title>
    <desc>Created with Sketch.</desc>
    <defs></defs>
    <g id="icon-special-DMDV" stroke="none" stroke-width="1" fill="none" fill-rule="evenodd">
        <g id="Artboard" transform="translate(-80.000000, -26.000000)" fill="#606060" fill-rule="nonzero">
            <g id="Template-grey" transform="translate(80.000000, 26.000000)">
                <path d="M13.514729,10.2402183 C13.5863392,10.0731384 13.7501131,9.96466277 13.9293567,9.96397661 L13.9893957,9.96397661 C15.0808889,9.96397661 15.9689045,9.07596101 15.9689045,7.98446784 C15.9689045,6.89300585 15.0808889,6.00499025 13.9893957,6.00499025 L13.8785497,6.00499025 C13.7247251,6.00436647 13.5838441,5.92664327 13.5007251,5.80151267 C13.4915244,5.75607018 13.4774581,5.71162573 13.4586511,5.66895906 C13.3833294,5.49835478 13.4183548,5.30208187 13.547883,5.16812476 L13.5832515,5.13275634 C13.5842495,5.13182066 13.5852164,5.1308538 13.586152,5.12988694 C13.9597973,4.75580507 14.1654581,4.25858869 14.165115,3.72984016 C14.1648343,3.2019961 13.9592982,2.70580897 13.5864327,2.33235088 C13.5854347,2.33135283 13.5844678,2.33038596 13.583501,2.32938791 C13.2096686,1.95596101 12.7129201,1.75039376 12.184577,1.75039376 C12.1842339,1.75039376 12.1838285,1.75039376 12.1834542,1.75039376 C11.6547057,1.75067446 11.1577076,1.9568655 10.7843119,2.33069786 L10.7473528,2.36768811 C10.6134269,2.497154 10.417154,2.53221053 10.2465185,2.45692008 C10.2443977,2.45601559 10.2422768,2.45507992 10.2401559,2.45417544 C10.073076,2.3825653 9.96460039,2.21879142 9.96391423,2.03957895 L9.96391423,1.97950877 C9.96391423,0.888046784 9.07589864,3.11890838e-05 7.98440546,3.11890838e-05 C6.89291228,3.11890838e-05 6.00492788,0.888046784 6.00492788,1.97950877 L6.00492788,2.09038596 C6.00430409,2.24421053 5.9265809,2.38509162 5.80145029,2.46817934 C5.7560078,2.47738012 5.71156335,2.49147758 5.66889669,2.5102846 C5.49832359,2.58560624 5.30201949,2.55054971 5.16806238,2.42105263 L5.12982456,2.38278363 C4.75596101,2.00935673 4.25927485,1.80378947 3.73093177,1.80378947 C3.7305575,1.80378947 3.73012086,1.80378947 3.72977778,1.80378947 C3.20102924,1.80407018 2.70403119,2.01026121 2.32932554,2.38540351 C1.95564912,2.75945419 1.75001949,3.25667057 1.75033138,3.7854191 C1.75061209,4.31416764 1.95680312,4.8111345 2.33063548,5.18453021 L2.36759454,5.22148928 C2.49709162,5.35544639 2.53214815,5.55168811 2.4568577,5.72232359 C2.45133723,5.73476803 2.4462846,5.74736842 2.44157505,5.76012476 C2.37720078,5.93509552 2.21623392,6.05161793 2.03037817,6.05832359 L1.97944639,6.05832359 C0.888015595,6.05832359 0,6.94633918 0,8.03780117 C0,9.12932554 0.888015595,10.0173099 1.97953996,10.0172476 L2.09038596,10.0172476 C2.27221832,10.0179961 2.43592982,10.1264094 2.50753996,10.2934893 C2.50844444,10.2956413 2.50938012,10.2977622 2.5102846,10.2998519 C2.58560624,10.4704561 2.55054971,10.666729 2.42102144,10.8007173 L2.38406238,10.8376452 C2.38322027,10.8385185 2.38237817,10.8393918 2.38150487,10.8402651 C2.00863938,11.2141598 1.80347758,11.7108772 1.80375828,12.2390019 C1.80403899,12.7677505 2.01023002,13.2647485 2.38431189,13.6383938 C2.38521637,13.6393294 2.38615205,13.6402651 2.38708772,13.6411696 C3.15945419,14.410885 4.41394152,14.4096062 5.18449903,13.6381442 L5.22148928,13.601154 C5.3554152,13.4716881 5.55168811,13.4365692 5.7222924,13.511922 C5.73470565,13.5173801 5.74730604,13.5224639 5.76006238,13.5271735 C5.93506433,13.5915478 6.05155556,13.7525458 6.0582924,13.9384016 L6.0582924,13.9893021 C6.0582924,15.0807953 6.94630799,15.9688109 8.03776998,15.9688109 C9.12929435,15.9688109 10.0172788,15.0807953 10.0173099,13.9893645 L10.0173099,13.8785497 C10.0180585,13.6967173 10.1264717,13.5329747 10.2935517,13.4613645 C10.2957037,13.4604288 10.2977934,13.4595244 10.299883,13.4586199 C10.4705185,13.3832982 10.6667914,13.4183236 10.8007485,13.5478519 L10.8390175,13.5860897 C11.2128499,13.9595166 11.7095673,14.165115 12.2379103,14.1650838 C12.2382846,14.1650838 12.2386901,14.1650838 12.2390643,14.1650838 C12.7678129,14.1647719 13.2648109,13.9586121 13.6395166,13.583501 C14.4108538,12.8112593 14.4101676,11.5554308 13.6382378,10.7843119 L13.6012476,10.7473528 C13.4717817,10.6133957 13.4367251,10.417154 13.5120156,10.2464873 C13.5129513,10.2444288 13.5138558,10.2423392 13.514729,10.2402183 Z M12.6808577,11.6515244 C12.6825107,11.6532086 12.6841949,11.6548928 12.685848,11.656577 L12.7261131,11.6968421 C12.9949942,11.9655049 12.9952749,12.4028382 12.7255828,12.6728109 C12.595462,12.8031189 12.4223626,12.8749162 12.2382222,12.8750097 C12.2380663,12.8750097 12.2379727,12.8750097 12.2378168,12.8750097 C12.0538012,12.8750097 11.8807953,12.8033996 11.7498324,12.6725614 L11.7098168,12.6325458 C11.7081326,12.6308616 11.7064483,12.6292086 11.7047329,12.6275244 C11.1922963,12.1263158 10.4378947,11.9889279 9.78186355,12.2770526 C9.14376608,12.5521092 8.72988694,13.1782924 8.72707992,13.875961 L8.72707992,13.9893645 C8.72707992,14.3694971 8.41784016,14.6787368 8.0377076,14.6787368 C7.65760624,14.6787368 7.34836647,14.3694659 7.34836647,13.9893645 L7.34836647,13.9293255 C7.34836647,13.9243041 7.34830409,13.9192827 7.34817934,13.91423 C7.33146199,13.1995945 6.8911345,12.5774035 6.22449903,12.3235867 C5.57214815,12.0444444 4.82560624,12.1836725 4.31728655,12.6808889 C4.31560234,12.6825419 4.31391813,12.6842261 4.31223392,12.6858791 L4.27193762,12.7261754 C4.00333723,12.9950877 3.56597271,12.9953684 3.29702924,12.7267368 C3.29624951,12.7259571 3.2954386,12.7251774 3.29469006,12.7244288 C3.16522417,12.5944327 3.09392593,12.4218947 3.09380117,12.2383782 C3.09367641,12.0542378 3.16531774,11.8811072 3.2954386,11.7508304 C3.29618713,11.7501131 3.29690448,11.7493333 3.29765302,11.748616 L3.33626511,11.7099727 C3.33794932,11.7082885 3.33963353,11.7066043 3.34128655,11.7048889 C3.84246394,11.1925458 3.97985185,10.4381442 3.69182066,9.78211306 C3.41679532,9.14395322 2.79054971,8.73004288 2.0928499,8.72723587 L1.9794152,8.72723587 C1.59931384,8.72723587 1.29007407,8.41796491 1.29007407,8.03786355 C1.29007407,7.65776218 1.59934503,7.34852242 1.9794152,7.34849123 L2.03948538,7.34849123 C2.04450682,7.34849123 2.04955945,7.34842885 2.0545809,7.34830409 C2.76927875,7.33158674 3.3914386,6.89125926 3.64525536,6.22462378 C3.92433528,5.5722729 3.78516959,4.82579337 3.28795322,4.31747368 C3.28630019,4.31578947 3.28461598,4.31410526 3.28293177,4.31242105 L3.24266667,4.27212476 C3.11238986,4.14197271 3.04059259,3.96890448 3.04049903,3.78476413 C3.04037427,3.60065497 3.11201559,3.42749318 3.24319688,3.29615595 C3.37334893,3.16587914 3.54641715,3.09408187 3.7305575,3.0939883 C3.73071345,3.0939883 3.73080702,3.0939883 3.73096296,3.0939883 C3.91497856,3.0939883 4.08798441,3.16559844 4.21894737,3.29643665 L4.25899415,3.33645224 C4.26064717,3.33813645 4.26236257,3.33982066 4.26404678,3.34147368 C4.74488889,3.81180507 5.438846,3.96176218 6.06471735,3.74035088 C6.12385185,3.73277193 6.18183236,3.71702144 6.23691228,3.69341131 C6.87694347,3.41910331 7.29231969,2.79192203 7.29509552,2.09303704 L7.29509552,1.97960234 C7.29509552,1.59950097 7.60433528,1.29026121 7.98443665,1.29026121 C8.36453801,1.29026121 8.67380897,1.59953216 8.67380897,1.97963353 L8.67380897,2.04226121 C8.67655361,2.73737232 9.09049513,3.36361793 9.72865497,3.63867446 C10.3847485,3.92679922 11.1390565,3.78931774 11.651462,3.28814035 C11.6531462,3.28648733 11.6548304,3.28480312 11.6565458,3.28311891 L11.6968421,3.2428538 C11.826963,3.112577 12.0000624,3.04077973 12.1841715,3.04068616 C12.1843275,3.04068616 12.1844522,3.04068616 12.184577,3.04068616 C12.368,3.04068616 12.5405692,3.11185965 12.6705965,3.24116959 C12.6713138,3.24191813 12.6720624,3.24263548 12.6727797,3.24338402 C12.8030877,3.37353606 12.874885,3.54660429 12.8749786,3.73074464 C12.8751033,3.91438596 12.8038674,4.08704873 12.6744639,4.21720078 C12.6738402,4.21782456 12.6731852,4.21844834 12.6725302,4.21910331 L12.6325146,4.2591501 C12.6308304,4.26080312 12.6291774,4.26248733 12.6274932,4.26420273 C12.1571618,4.74504483 12.0072047,5.43903314 12.228616,6.06487329 C12.2362261,6.12403899 12.2519766,6.18201949 12.2755867,6.23709942 C12.5498947,6.8771306 13.177076,7.29250682 13.875961,7.29528265 L13.9893645,7.29528265 C14.3694971,7.29528265 14.6787368,7.60452242 14.6787368,7.98462378 C14.6787368,8.36472515 14.3694659,8.6739961 13.9893645,8.6739961 L13.926768,8.6739961 C13.2316569,8.67674074 12.6054425,9.09068226 12.3303548,9.72881092 C12.0422612,10.3846862 12.1796803,11.1391501 12.6808577,11.6515244 Z" id="Shape"></path>
                <path d="M7.98440546,5.33776218 C6.52503704,5.33776218 5.33769981,6.52506823 5.33769981,7.98446784 C5.33769981,9.44386745 6.52500585,10.6311735 7.98440546,10.6311735 C9.44380507,10.6311735 10.6311111,9.44386745 10.6311111,7.98446784 C10.6311111,6.52506823 9.44377388,5.33776218 7.98440546,5.33776218 Z M7.98440546,9.34100585 C7.23639766,9.34100585 6.62783626,8.73247563 6.62783626,7.98443665 C6.62783626,7.23642885 7.23639766,6.62786745 7.98440546,6.62786745 C8.73244444,6.62786745 9.34097466,7.23642885 9.34097466,7.98443665 C9.34097466,8.73244444 8.73244444,9.34100585 7.98440546,9.34100585 Z" id="Shape"></path>
            </g>
        </g>
    </g>
</svg>