<?xml version="1.0" encoding="UTF-8"?>
<svg width="8px" height="7px" viewBox="0 0 8 7" version="1.1" xmlns="http://www.w3.org/2000/svg" xmlns:xlink="http://www.w3.org/1999/xlink">
    <!-- Generator: sketchtool 58 (101010) - https://sketch.com -->
    <title>6D7F3A90-0CD8-431E-8EAD-1E2CC5793D74</title>
    <desc>Created with sketchtool.</desc>
    <g id="Page-1" stroke="none" stroke-width="1" fill="none" fill-rule="evenodd">
        <g id="DMDV1.3.0-/-Original-/-Filter_OFF-/-Slider-only-2" transform="translate(-1395.000000, -242.000000)" fill="#7BA6DE">
            <g id="Group-3" transform="translate(1395.000000, 242.000000)">
                <path d="M7.75,4 C7.88807119,4 8,4.11192881 8,4.25 L8,6.75 C8,6.88807119 7.88807119,7 7.75,7 L1.25,7 C0.557928813,7 0,6.44207119 0,5.75 L0,5.25 C0,4.55792881 0.557928813,4 1.25,4 L7.75,4 Z M7.5,4.5 L1.25,4.5 C0.834071187,4.5 0.5,4.83407119 0.5,5.25 L0.5,5.75 C0.5,6.16592881 0.834071187,6.5 1.25,6.5 L7.5,6.5 L7.5,4.5 Z M1.5,5 C1.77614237,5 2,5.22385763 2,5.5 C2,5.77614237 1.77614237,6 1.5,6 C1.22385763,6 1,5.77614237 1,5.5 C1,5.22385763 1.22385763,5 1.5,5 Z" id="Combined-Shape"></path>
                <path d="M7.75,0 C7.88807119,0 8,0.111928813 8,0.25 L8,2.75 C8,2.88807119 7.88807119,3 7.75,3 L1.25,3 C0.557928813,3 0,2.44207119 0,1.75 L0,1.25 C0,0.557928813 0.557928813,0 1.25,0 L7.75,0 Z M7.5,0.5 L1.25,0.5 C0.834071187,0.5 0.5,0.834071187 0.5,1.25 L0.5,1.75 C0.5,2.16592881 0.834071187,2.5 1.25,2.5 L7.5,2.5 L7.5,0.5 Z M1.5,1 C1.77614237,1 2,1.22385763 2,1.5 C2,1.77614237 1.77614237,2 1.5,2 C1.22385763,2 1,1.77614237 1,1.5 C1,1.22385763 1.22385763,1 1.5,1 Z" id="Combined-Shape-Copy"></path>
            </g>
        </g>
    </g>
</svg>