<?xml version="1.0" encoding="UTF-8"?>
<svg width="10px" height="8px" viewBox="0 0 10 8" version="1.1" xmlns="http://www.w3.org/2000/svg" xmlns:xlink="http://www.w3.org/1999/xlink">
    <!-- Generator: sketchtool 58 (101010) - https://sketch.com -->
    <title>381D4270-CE18-447D-A916-2B66E7214C14</title>
    <desc>Created with sketchtool.</desc>
    <g id="Page-1" stroke="none" stroke-width="1" fill="none" fill-rule="evenodd">
        <g id="DMDV1.3.0-/-Original-/-Filter_OFF-/-Slider-only-2" transform="translate(-1394.000000, -189.000000)" fill="#7BA6DE">
            <path d="M1403.85994,195.081017 L1402.86555,195.081017 L1402.86555,193.144073 C1402.86555,192.990992 1402.74011,192.866903 1402.58543,192.866903 L1399.28011,192.866903 L1399.28011,190.918983 L1400.29387,190.918983 C1400.37123,190.918983 1400.43392,190.856925 1400.43392,190.780399 L1400.43392,189.138585 C1400.43392,189.062058 1400.37123,189 1400.29387,189 L1397.74485,189 C1397.66748,189 1397.60479,189.062058 1397.60479,189.138585 L1397.60479,190.780399 C1397.60479,190.856925 1397.66748,190.918983 1397.74485,190.918983 L1398.71989,190.918983 L1398.71989,192.866903 L1395.41457,192.866903 C1395.25989,192.866903 1395.13445,192.990992 1395.13445,193.144073 L1395.13445,195.081017 L1394.14006,195.081017 C1394.06269,195.081017 1394,195.143075 1394,195.219601 L1394,196.861415 C1394,196.937942 1394.06269,197 1394.14006,197 L1396.68908,197 C1396.76644,197 1396.82913,196.937942 1396.82913,196.861415 L1396.82913,195.219601 C1396.82913,195.143075 1396.76644,195.081017 1396.68908,195.081017 L1395.69468,195.081017 L1395.69468,193.421242 L1398.71989,193.421242 L1398.71989,195.081017 L1397.74485,195.081017 C1397.66748,195.081017 1397.60479,195.143075 1397.60479,195.219601 L1397.60479,196.861415 C1397.60479,196.937942 1397.66748,197 1397.74485,197 L1400.29387,197 C1400.37123,197 1400.43392,196.937942 1400.43392,196.861415 L1400.43392,195.219601 C1400.43392,195.143075 1400.37123,195.081017 1400.29387,195.081017 L1399.28011,195.081017 L1399.28011,193.421242 L1402.30532,193.421242 L1402.30532,195.081017 L1401.31092,195.081017 C1401.23356,195.081017 1401.17087,195.143075 1401.17087,195.219601 L1401.17087,196.861415 C1401.17087,196.937942 1401.23356,197 1401.31092,197 L1403.85994,197 C1403.93731,197 1404,196.937942 1404,196.861415 L1404,195.219601 C1404,195.143075 1403.93731,195.081017 1403.85994,195.081017 Z" id="Path"></path>
        </g>
    </g>
</svg>