<?xml version="1.0" encoding="UTF-8"?>
<svg width="12px" height="11px" viewBox="0 0 12 11" version="1.1" xmlns="http://www.w3.org/2000/svg" xmlns:xlink="http://www.w3.org/1999/xlink">
    <!-- Generator: sketchtool 58 (101010) - https://sketch.com -->
    <title>3BBF9DEF-43F3-4AFA-A1FE-2D037A103111</title>
    <desc>Created with sketchtool.</desc>
    <g id="Page-1" stroke="none" stroke-width="1" fill="none" fill-rule="evenodd">
        <g id="DMDV1.3.0-/-Original-/-Filter_OFF-/-Slider-only-2" transform="translate(-1393.000000, -214.000000)" fill="#FFFFFF" fill-rule="nonzero">
            <g id="Zoom-slider" transform="translate(1387.000000, 178.000000)">
                <g id="Group-4" transform="translate(0.000000, 29.000000)">
                    <path d="M17.6386639,7.83826891 C17.4130588,7.61271429 17.1420756,7.5 16.8252605,7.5 L7.15164706,7.5 C6.83495798,7.5 6.56382353,7.61271429 6.33826891,7.83826891 C6.11276471,8.06387395 6,8.33490756 6,8.65167227 L6,16.4827311 C6,16.799521 6.11276471,17.0703529 6.33826891,17.2960336 C6.56382353,17.5216387 6.83493277,17.6342269 7.15164706,17.6342269 L16.8252605,17.6342269 C17.1420504,17.6342269 17.4130336,17.5216387 17.6386639,17.2960336 C17.8641681,17.0703529 17.9768571,16.7993697 17.9768571,16.4827311 L17.9768571,8.65167227 C17.9768571,8.33490756 17.8641681,8.06379832 17.6386639,7.83826891 Z M9.68528571,16.482479 C9.68528571,16.5498655 9.66363025,16.6048992 9.62039496,16.6481345 C9.57723529,16.6912689 9.52210084,16.7127227 9.45484034,16.7127227 L7.15164706,16.7127227 C7.08453782,16.7127227 7.02930252,16.6912437 6.98609244,16.6481345 C6.94290756,16.6048992 6.92135294,16.5498655 6.92135294,16.482479 L6.92135294,15.1004622 C6.92135294,15.0331765 6.94290756,14.9781176 6.98609244,14.935084 C7.02930252,14.8917479 7.08453782,14.8701933 7.15164706,14.8701933 L9.45491597,14.8701933 C9.52215126,14.8701933 9.57738655,14.8917479 9.62047059,14.935084 C9.66360504,14.9781176 9.68528571,15.0331765 9.68528571,15.1004622 L9.68528571,16.482479 L9.68528571,16.482479 Z M9.68528571,13.7187227 C9.68528571,13.7858571 9.66363025,13.8410924 9.62039496,13.8842017 C9.57723529,13.9274118 9.52210084,13.9489664 9.45484034,13.9489664 L7.15164706,13.9489664 C7.08453782,13.9489664 7.02930252,13.9274118 6.98609244,13.8842017 C6.94290756,13.8410672 6.92135294,13.7858571 6.92135294,13.7187227 L6.92135294,12.3367311 C6.92135294,12.2695714 6.94290756,12.2143613 6.98609244,12.1711765 C7.02930252,12.1280924 7.08453782,12.1065126 7.15164706,12.1065126 L9.45491597,12.1065126 C9.52215126,12.1065126 9.57728571,12.1280672 9.62047059,12.1711765 C9.66360504,12.2143613 9.68528571,12.2695714 9.68528571,12.3367311 L9.68528571,13.7187227 L9.68528571,13.7187227 Z M9.68528571,10.9548403 C9.68528571,11.0220504 9.66363025,11.0771849 9.62039496,11.120395 C9.57723529,11.163479 9.52210084,11.1851345 9.45484034,11.1851345 L7.15164706,11.1851345 C7.08453782,11.1851345 7.02930252,11.163479 6.98609244,11.120395 C6.94290756,11.0771597 6.92135294,11.0220504 6.92135294,10.9548403 L6.92135294,9.57289916 C6.92135294,9.50568908 6.94290756,9.45047899 6.98609244,9.40734454 C7.02930252,9.36415966 7.08453782,9.34260504 7.15164706,9.34260504 L9.45491597,9.34260504 C9.52215126,9.34260504 9.57728571,9.36415966 9.62047059,9.40734454 C9.66360504,9.45047899 9.68528571,9.50568908 9.68528571,9.57289916 L9.68528571,10.9548403 L9.68528571,10.9548403 Z M13.3704706,16.482479 C13.3704706,16.5498655 13.348916,16.6048992 13.3058571,16.6481345 C13.2627227,16.6912689 13.2075378,16.7127227 13.1402269,16.7127227 L10.8368067,16.7127227 C10.7696723,16.7127227 10.7144622,16.6912437 10.6712521,16.6481345 C10.6280672,16.6048992 10.6065126,16.5498655 10.6065126,16.482479 L10.6065126,15.1004622 C10.6065126,15.0331765 10.6280672,14.9781176 10.6712521,14.935084 C10.7144622,14.8917479 10.7696723,14.8701933 10.8368067,14.8701933 L13.1401261,14.8701933 C13.2074118,14.8701933 13.2626218,14.8917479 13.3057563,14.935084 C13.3487143,14.9781176 13.3702941,15.0331765 13.3702941,15.1004622 L13.3702941,16.4824538 L13.3704706,16.4824538 L13.3704706,16.482479 Z M13.3704706,13.7187227 C13.3704706,13.7858571 13.348916,13.8410924 13.3058571,13.8842017 C13.2627227,13.9274118 13.2075378,13.9489664 13.1402269,13.9489664 L10.8368067,13.9489664 C10.7696723,13.9489664 10.7144622,13.9274118 10.6712521,13.8842017 C10.6280672,13.8410672 10.6065126,13.7858571 10.6065126,13.7187227 L10.6065126,12.3367311 C10.6065126,12.2695714 10.6280672,12.2143613 10.6712521,12.1711765 C10.7144622,12.1280924 10.7696723,12.1065126 10.8368067,12.1065126 L13.1401261,12.1065126 C13.2074118,12.1065126 13.2626218,12.1280672 13.3057563,12.1711765 C13.3487143,12.2143613 13.3702941,12.2695714 13.3702941,12.3367311 L13.3702941,13.7187227 L13.3704706,13.7187227 Z M13.3704706,10.9548403 C13.3704706,11.0220504 13.348916,11.0771849 13.3058571,11.120395 C13.2627227,11.163479 13.2075378,11.1851345 13.1402269,11.1851345 L10.8368067,11.1851345 C10.7696723,11.1851345 10.7144622,11.163479 10.6712521,11.120395 C10.6280672,11.0771597 10.6065126,11.0220504 10.6065126,10.9548403 L10.6065126,9.57289916 C10.6065126,9.50568908 10.6280672,9.45047899 10.6712521,9.40734454 C10.7144622,9.36415966 10.7696723,9.34260504 10.8368067,9.34260504 L13.1401261,9.34260504 C13.2074118,9.34260504 13.2626218,9.36415966 13.3057563,9.40734454 C13.3487143,9.45047899 13.3702941,9.50568908 13.3702941,9.57289916 L13.3702941,10.9548403 L13.3704706,10.9548403 L13.3704706,10.9548403 Z M17.0555294,16.482479 C17.0555294,16.5498655 17.0339748,16.6048992 16.9909412,16.6481345 C16.9476303,16.6912689 16.8924202,16.7127227 16.8252857,16.7127227 L14.5222437,16.7127227 C14.4548571,16.7127227 14.3996723,16.6912437 14.3566134,16.6481345 C14.313479,16.6048992 14.2920756,16.5498655 14.2920756,16.482479 L14.2920756,15.1004622 C14.2920756,15.0331765 14.313479,14.9781176 14.3566134,14.935084 C14.3996723,14.8917479 14.4548571,14.8701933 14.5222437,14.8701933 L16.8252857,14.8701933 C16.8924202,14.8701933 16.9476555,14.8917479 16.9909412,14.935084 C17.0339748,14.9781176 17.0555294,15.0331765 17.0555294,15.1004622 L17.0555294,16.482479 Z M17.0555294,13.7187227 C17.0555294,13.7858571 17.0339748,13.8410924 16.9909412,13.8842017 C16.9476303,13.9274118 16.8924202,13.9489664 16.8252857,13.9489664 L14.5222437,13.9489664 C14.4548571,13.9489664 14.3996723,13.9274118 14.3566134,13.8842017 C14.313479,13.8410672 14.2920756,13.7858571 14.2920756,13.7187227 L14.2920756,12.3367311 C14.2920756,12.2695714 14.313479,12.2143613 14.3566134,12.1711765 C14.3996723,12.1280924 14.4548571,12.1065126 14.5222437,12.1065126 L16.8252857,12.1065126 C16.8924202,12.1065126 16.9476555,12.1280672 16.9909412,12.1711765 C17.0339748,12.2143613 17.0555294,12.2695714 17.0555294,12.3367311 L17.0555294,13.7187227 Z M17.0555294,10.9548403 C17.0555294,11.0220504 17.0339748,11.0771849 16.9909412,11.120395 C16.9476303,11.163479 16.8924202,11.1851345 16.8252857,11.1851345 L14.5222437,11.1851345 C14.4548571,11.1851345 14.3996723,11.163479 14.3566134,11.120395 C14.313479,11.0771597 14.2920756,11.0220504 14.2920756,10.9548403 L14.2920756,9.57289916 C14.2920756,9.50568908 14.313479,9.45047899 14.3566134,9.40734454 C14.3996723,9.36415966 14.4548571,9.34260504 14.5222437,9.34260504 L16.8252857,9.34260504 C16.8924202,9.34260504 16.9476555,9.36415966 16.9909412,9.40734454 C17.0339748,9.45047899 17.0555294,9.50568908 17.0555294,9.57289916 L17.0555294,10.9548403 Z" id="Shape"></path>
                </g>
            </g>
        </g>
    </g>
</svg>