<?xml version="1.0" encoding="UTF-8"?>
<svg width="17px" height="22px" viewBox="0 0 17 22" version="1.1" xmlns="http://www.w3.org/2000/svg" xmlns:xlink="http://www.w3.org/1999/xlink">
    <!-- Generator: Sketch 61.2 (89653) - https://sketch.com -->
    <title>Path</title>
    <desc>Created with Sketch.</desc>
    <g id="DMDV-1.3.0-Mapping" stroke="none" stroke-width="1" fill="none" fill-rule="evenodd">
        <g id="DMDV1.3.0-/-Slider-/-Tooltip-2" transform="translate(-1169.000000, -123.000000)" fill="#606060">
            <path d="M1186,136.729623 C1186,141.289924 1182.32633,145 1177.81141,145 L1174.91279,145 C1174.43245,145 1174.0432,144.606907 1174.0432,144.121769 L1174.0432,143.828993 C1174.0432,143.343806 1174.4324,142.950713 1174.91279,142.950713 L1177.81141,142.950713 C1181.20765,142.950713 1183.97098,140.159789 1183.97098,136.729623 C1183.97098,133.299457 1181.20765,130.508533 1177.81141,130.508533 L1172.46363,130.508533 L1176.14664,134.228331 C1176.54222,134.627711 1176.54222,135.277884 1176.14664,135.677265 C1175.7628,136.06465 1175.09478,136.064069 1174.7118,135.677265 L1169.29721,130.208453 C1169.1056,130.01493 1169,129.757608 1169,129.483841 C1169,129.210268 1169.1056,128.952801 1169.29721,128.759374 L1174.71208,123.290321 C1175.09506,122.903226 1175.76366,122.903226 1176.14669,123.290321 C1176.54226,123.689605 1176.54226,124.339874 1176.14669,124.73911 L1172.46368,128.459198 L1177.81141,128.459198 C1182.32633,128.459198 1186,132.169419 1186,136.729623 Z" id="Path"></path>
        </g>
    </g>
</svg>