<?xml version="1.0" encoding="UTF-8"?>
<svg width="16px" height="16px" viewBox="0 0 16 16" version="1.1" xmlns="http://www.w3.org/2000/svg" xmlns:xlink="http://www.w3.org/1999/xlink">
    <!-- Generator: Sketch 50.2 (55047) - http://www.bohemiancoding.com/sketch -->
    <title>zoom-in grey</title>
    <desc>Created with Sketch.</desc>
    <defs></defs>
    <g id="icon-special-DMDV" stroke="none" stroke-width="1" fill="none" fill-rule="evenodd">
        <g id="Artboard" transform="translate(-80.000000, -56.000000)" fill="#606060" fill-rule="nonzero">
            <g id="zoom-in-grey" transform="translate(80.000000, 56.000000)">
                <path d="M12.2620312,2.10384375 C10.905375,0.74715625 9.1015625,0 7.1829375,0 C5.26428125,0 3.46053125,0.74715625 2.10384375,2.10384375 C0.74715625,3.4605 0,5.26428125 0,7.1829375 C0,9.1015625 0.74715625,10.905375 2.10384375,12.2620312 C3.4605,13.6186562 5.2643125,14.3658437 7.1829375,14.3658437 C9.1015625,14.3658437 10.905375,13.6186875 12.2620312,12.2620312 C13.6186562,10.905375 14.3658437,9.1015625 14.3658437,7.1829375 C14.3658437,5.26428125 13.6187187,3.4605 12.2620312,2.10384375 Z M7.1829375,13.07325 C3.93503125,13.07325 1.292625,10.430875 1.292625,7.1829375 C1.292625,3.935 3.935,1.292625 7.1829375,1.292625 C10.430875,1.292625 13.0732188,3.935 13.07325,7.1829375 C13.07325,10.430875 10.4308438,13.07325 7.1829375,13.07325 Z" id="Shape"></path>
                <path d="M15.8107187,14.8966563 L12.2564375,11.3424062 C12.0040313,11.09 11.5948125,11.09 11.3424062,11.3424062 C11.0900312,11.5948125 11.0900312,12.0040313 11.3424062,12.2564375 L14.8966875,15.8107188 C15.022875,15.9369375 15.1883125,16.0000312 15.3537187,16.0000312 C15.519125,16.0000312 15.6845625,15.9369375 15.81075,15.8107188 C16.0630938,15.5582813 16.0630938,15.1490625 15.8107187,14.8966563 Z" id="Shape"></path>
                <path d="M7.1829375,4.085375 C6.826,4.085375 6.536625,4.37475 6.536625,4.7316875 L6.536625,9.63415625 C6.536625,9.991125 6.826,10.2804688 7.1829375,10.2804688 C7.539875,10.2804688 7.82925,9.99109375 7.82925,9.63415625 L7.82925,4.7316875 C7.82925,4.37475 7.539875,4.085375 7.1829375,4.085375 Z" id="Shape"></path>
                <path d="M9.63415625,6.536625 L4.7316875,6.536625 C4.37475,6.536625 4.085375,6.826 4.085375,7.1829375 C4.085375,7.539875 4.37475,7.82925 4.7316875,7.82925 L9.63415625,7.82925 C9.991125,7.82925 10.2804688,7.539875 10.2804688,7.1829375 C10.2804688,6.826 9.991125,6.536625 9.63415625,6.536625 Z" id="Shape"></path>
            </g>
        </g>
    </g>
</svg>