<svg id="SVGRoot" width="16px" height="16px" version="1.1" viewBox="0 0 16 16" xmlns="http://www.w3.org/2000/svg">
<g>
<path d="m13.5 13.5s-0.219-5.03-1.16-5.18c-0.938-0.145-2.69-0.447-2.69-0.447l-3.35-0.0238s-2.09 0.394-2.85 0.473c-0.762 0.08-0.95 5.17-0.95 5.17 2.41 1.36 8.41 1.4 11 0z" style="fill-rule:evenodd;fill:#ffffff;stroke-linecap:round;stroke-linejoin:round;stroke:#000000"/>
<path d="m9.65 7.88-0.438-1c0.795-0.766 0.999-1.44 1.12-2.73 0.125-1.29-0.279-2.64-2.34-2.64-2.06 0-2.62 1.38-2.46 2.74 0.162 1.33 0.43 1.58 1.08 2.66-0.0299 0.348-0.139 0.617-0.316 0.956l-0.303 0.147s0.5 1.5 2 1.5 2-1.5 2-1.5z" style="fill-rule:evenodd;fill:#ffffff;stroke-linecap:round;stroke-linejoin:round;stroke:#000000"/>
</g>
</svg>
