<svg id="SVGRoot" width="16px" height="16px" version="1.1" viewBox="0 0 16 16" xmlns="http://www.w3.org/2000/svg">
<g>
<path d="m10 6a4 4 0 1 1-8 0 4 4 0 1 1 8 0z" style="fill-opacity:.502;fill:#ffffff"/>
<path d="m6 1c-1.22 0-2.46 0.402-3.41 1.25s-1.59 2.16-1.59 3.75 0.63 2.9 1.59 3.75 2.19 1.25 3.41 1.25c0.972 0 1.95-0.267 2.79-0.799l4.51 4.51c0.889 0.889 2.3-0.521 1.41-1.41l-4.49-4.49c0.49-0.768 0.787-1.72 0.787-2.8 0-1.58-0.63-2.9-1.59-3.75-0.956-0.85-2.19-1.25-3.41-1.25zm0 2c0.778 0 1.54 0.265 2.09 0.748 0.544 0.483 0.914 1.17 0.914 2.25s-0.37 1.77-0.914 2.25c-0.544 0.483-1.31 0.748-2.09 0.748s-1.54-0.265-2.09-0.748c-0.544-0.483-0.914-1.17-0.914-2.25s0.37-1.77 0.914-2.25c0.544-0.483 1.31-0.748 2.09-0.748z" style="color-rendering:auto;color:#000000;dominant-baseline:auto;fill:#ffffff;font-feature-settings:normal;font-variant-alternates:normal;font-variant-caps:normal;font-variant-ligatures:normal;font-variant-numeric:normal;font-variant-position:normal;image-rendering:auto;isolation:auto;mix-blend-mode:normal;shape-padding:0;shape-rendering:auto;solid-color:#000000;text-decoration-color:#000000;text-decoration-line:none;text-decoration-style:solid;text-indent:0;text-orientation:mixed;text-transform:none;white-space:normal"/>
</g>
</svg>
