<?xml version="1.0" encoding="UTF-8"?>
<svg width="13px" height="13px" viewBox="0 0 13 13" version="1.1" xmlns="http://www.w3.org/2000/svg" xmlns:xlink="http://www.w3.org/1999/xlink">
    <!-- Generator: Sketch 47.1 (45422) - http://www.bohemiancoding.com/sketch -->
    <title>Shape</title>
    <desc>Created with Sketch.</desc>
    <defs></defs>
    <g id="Page-1" stroke="none" stroke-width="1" fill="none" fill-rule="evenodd">
        <g id="Artboard" transform="translate(-346.000000, -60.000000)" fill-rule="nonzero" fill="#BCBCBF">
            <path d="M352.174219,74.1114675 C352.468452,74.1114675 352.727448,73.9898981 352.924778,73.7996155 C353.11506,73.6110949 353.23663,73.3432898 353.23663,73.0490566 L353.23663,67.2436773 L359.042009,67.2436773 C359.33448,67.2436773 359.593476,67.1238698 359.792568,66.9335872 C359.981089,66.7433047 360.102658,66.4772615 360.102658,66.1830283 C360.102658,65.5963238 359.628714,65.1223794 359.050818,65.1311888 L353.245439,65.1311888 L353.245439,59.3258094 C353.245439,58.739105 352.769733,58.2651605 352.191838,58.2739699 C351.605133,58.2739699 351.131189,58.7479143 351.139998,59.3258094 L351.139998,65.1311888 L345.334619,65.1311888 C344.747914,65.1311888 344.27397,65.6051332 344.282779,66.1830283 C344.282779,66.7697328 344.756724,67.2436773 345.334619,67.2348679 L351.139998,67.2348679 L351.139998,73.0402472 C351.11357,73.6357611 351.589276,74.1114675 352.174219,74.1114675 Z" id="Shape" transform="translate(352.192658, 66.192658) rotate(45.000000) translate(-352.192658, -66.192658) "></path>
        </g>
    </g>
</svg>