<svg xmlns="http://www.w3.org/2000/svg" width="152" height="24"><defs/><g fill="none" fill-rule="nonzero"><path fill="#A2A9AD" d="M105.445 3v2.056h-12.19v6.822h10.905v2.056H93.255v6.994h12.333v2.056H91V3h14.445zm12.048 0c2.283 0 4.082.656 5.224 1.77a4.415 4.415 0 011.28 2.943l.005.311c0 2.598-1.6 3.94-3.169 4.625 2.296.692 4.163 2 4.277 4.572l.006.31c0 3.35-2.76 5.364-6.97 5.45l-.282.003h-8.878V3h8.507zm11.82 0l6.109 8.222L141.532 3h2.626l-7.365 9.792 7.65 10.192h-2.683l-6.395-8.621-6.395 8.62h-2.597l7.65-10.191L126.659 3h2.655zm-11.792 10.905h-6.308v7.051h6.708c2.937 0 4.799-1.263 4.906-3.373l.005-.252c0-2.107-1.725-3.353-5.016-3.423l-.295-.003zm-.228-8.878h-6.08v6.88h5.909c2.63 0 4.481-1.154 4.591-3.359l.005-.267c0-1.908-1.474-3.173-4.161-3.25l-.264-.004zM148.789.795a2.574 2.574 0 012.577 2.421l.005.176c0 1.41-1.142 2.598-2.582 2.598a2.574 2.574 0 01-2.577-2.421l-.005-.177c0-1.41 1.142-2.597 2.582-2.597zm0 .282c-1.238 0-2.202.968-2.28 2.159l-.006.171c0 1.261.98 2.3 2.286 2.3 1.238 0 2.203-.967 2.28-2.158l.006-.171c0-1.262-.98-2.3-2.286-2.3zm.178.95c.58 0 1.01.282 1.01.83a.78.78 0 01-.506.767l-.103.036.697.994h-.608l-.623-.905h-.55v.905h-.504V2.027h1.187zm-.044.446h-.639v.86h.639c.341 0 .534-.178.534-.43 0-.251-.152-.396-.426-.425l-.108-.005z"/><path fill="#3A8DDE" d="M53.811 2.52c2.145 0 4.433.57 6.055 1.497l.28.167-.865 2.463c-1.759-1.151-3.39-1.695-5.47-1.695-4.352 0-7.263 3.007-7.263 7.966s2.943 8.126 7.327 8.126c2.03 0 4.033-.775 5.434-1.781l.228-.17.448 2.72c-1.631 1.023-3.935 1.663-6.174 1.663-5.855 0-10.015-4.063-10.015-10.43S47.988 2.52 53.811 2.52zM76.846 4.07c2.66 1.743 4.299 4.813 4.299 8.772 0 5.973-4.152 10.542-10.03 10.542-2.272 0-4.29-.62-5.912-1.746 4.8-4.616 8.559-9.984 11.643-17.568zM16.7 3v2.56H9.694v17.436H7.007V5.56H0V3h16.7zm5.886 0v19.996H19.9V3h2.688zm11.35 0c4.832 0 6.975 2.175 6.975 5.31 0 2.049-1.184 3.552-3.423 4.384 2.655.672 4.063 2.4 4.063 4.64 0 3.32-2.178 5.567-7.104 5.659l-.319.003h-6.815V3h6.623zm.032 11.23h-3.935v6.27h4.351c2.976 0 4.448-1.055 4.448-3.135 0-2.236-1.93-3.085-4.617-3.133l-.247-.002zM75.695 3.432c.32.15.629.316.925.499-2.803 6.136-7.806 12.35-13.21 16.064a9.455 9.455 0 01-1.361-2.2c6.283-3.391 11.033-9.352 13.646-14.363zm-4.58-.972c1.587 0 3.05.302 4.343.865-2.71 4.636-8.052 10.039-14.065 12.49a12.806 12.806 0 01-.31-2.844c0-5.974 4.154-10.51 10.031-10.51zM34.16 5.496h-4.127v6.27h3.711c2.88 0 4.447-1.28 4.447-3.231 0-1.858-1.318-2.966-3.78-3.036l-.25-.003zm49.566-4.7a2.574 2.574 0 012.577 2.421l.005.176c0 1.41-1.142 2.598-2.582 2.598a2.574 2.574 0 01-2.577-2.42l-.005-.178c0-1.41 1.142-2.597 2.582-2.597zm0 .282c-1.238 0-2.202.968-2.28 2.159l-.006.172c0 1.26.98 2.3 2.286 2.3 1.238 0 2.202-.968 2.28-2.159l.006-.171c0-1.262-.98-2.3-2.286-2.3zm.178.95c.58 0 1.01.282 1.01.831a.78.78 0 01-.506.766l-.104.036.698.994h-.608l-.623-.905h-.55v.905h-.504V2.028h1.187zm-.044.446h-.639v.86h.639c.341 0 .534-.178.534-.43 0-.25-.152-.396-.426-.425l-.108-.005z"/></g></svg>